<?xml version="1.0" standalone="no"?>
<svg id="CAMSVG" xmlns="http://www.w3.org/2000/svg" height="1400px" width="2400px"><rect id="background" x="0" y="0" width="100%" height="100%" fill="white"></rect><marker id="arrowRight" markerWidth="30" markerHeight="15" refX="30" refY="7.5" orient="auto" markerUnits="userSpaceOnUse"><polygon points="0 0, 0 0, 0 0" fill="#8c8c8c"></polygon></marker><marker id="arrowLeft" markerWidth="30" markerHeight="15" refX="0" refY="7.5" orient="auto" markerUnits="userSpaceOnUse"><polygon points="0 0, 0 0, 0 0" fill="#8c8c8c"></polygon></marker><g><line class="connector" id="cae36d67-609f-4824-bf0c-448a1a5197e9" transform="translate(298.7667,383.65) scale(1,1) " x1="60" y1="0" x2="140" y2="0" stroke="#808080" stroke-width="3" marker-start="url(#arrowRight)" stroke-linecap="butt"></line><line transform="translate(298.7667,383.65) " class="outer-connector" id="cae36d67-609f-4824-bf0c-448a1a5197e9" x1="0" y1="0" x2="160" y2="0" stroke="rgba(255, 255, 255, 0)" stroke-width="30"></line></g><g><line class="connector" id="979e4eb6-5540-4e46-9c1c-f807b3ff136f" transform="translate(698.7667,383.65) scale(1,1) " x1="-60" y1="0" x2="-140" y2="0" stroke="#808080" stroke-width="3" marker-start="url(#arrowRight)" stroke-linecap="butt"></line><line transform="translate(698.7667,383.65) " class="outer-connector" id="979e4eb6-5540-4e46-9c1c-f807b3ff136f" x1="0" y1="0" x2="-160" y2="0" stroke="rgba(255, 255, 255, 0)" stroke-width="30"></line></g><g><line class="connector" id="ab846bb5-4b38-4647-b7ea-f7de47c2f302" transform="translate(585,284) scale(1,1) " x1="39.75457539706786" y1="34.82164322528306" x2="74.01212460293215" y2="64.82835677471691" stroke="#808080" stroke-width="6" marker-start="url(#arrowRight)" stroke-linecap="butt"></line><line transform="translate(585,284) " class="outer-connector" id="ab846bb5-4b38-4647-b7ea-f7de47c2f302" x1="0" y1="0" x2="89.0568317487822" y2="78.0062468522524" stroke="rgba(255, 255, 255, 0)" stroke-width="30"></line></g><g><line class="connector" id="e524c2dd-1656-420d-9a05-4e0dd6719597" transform="translate(654,100) scale(1,1) " x1="6.3474267801362165" y1="40.218457160917325" x2="38.41927321986378" y2="243.43154283908265" stroke="#808080" stroke-width="9" marker-start="url(#arrowRight)" stroke-linecap="butt"></line><line transform="translate(654,100) " class="outer-connector" id="e524c2dd-1656-420d-9a05-4e0dd6719597" x1="0" y1="0" x2="41.5371559605061" y2="263.18701821214324" stroke="rgba(255, 255, 255, 0)" stroke-width="30"></line></g><g><line class="connector" id="3d3bd413-914e-4de3-a8d6-04ca1f99398a" transform="translate(811,177) scale(1,1) " x1="-21.9295792346034" y1="40.377923030248525" x2="-90.30372076539659" y2="166.27207696975142" stroke="#808080" stroke-width="6" marker-start="url(#arrowRight)" stroke-linecap="butt"></line><line transform="translate(811,177) " class="outer-connector" id="3d3bd413-914e-4de3-a8d6-04ca1f99398a" x1="0" y1="0" x2="-99.8489652702398" y2="183.84729552721922" stroke="rgba(255, 255, 255, 0)" stroke-width="30"></line></g><g><line class="connector" id="b00c6ade-12a0-4262-96e5-f5e640d4dd70" transform="translate(968.0000000000001,239) scale(1,1) " x1="-49.758793882799594" y1="26.733726976369404" x2="-219.47450611720055" y2="117.91627302363058" stroke="#808080" stroke-width="3" marker-start="url(#arrowRight)" stroke-linecap="butt"></line><line transform="translate(968.0000000000001,239) " class="outer-connector" id="b00c6ade-12a0-4262-96e5-f5e640d4dd70" x1="0" y1="0" x2="-237.09271022146987" y2="127.38194173430848" stroke="rgba(255, 255, 255, 0)" stroke-width="30"></line></g><g><line class="connector" id="2f76164e-3992-400b-8bd4-cb45122f972c" transform="translate(978.0000000000001,360) scale(1,1) " x1="-59.679350808070986" y1="5.054614355131988" x2="-219.5539491919291" y2="18.59538564486799" stroke="#808080" stroke-width="3" marker-start="url(#arrowRight)" stroke-linecap="butt"></line><line transform="translate(978.0000000000001,360) " class="outer-connector" id="2f76164e-3992-400b-8bd4-cb45122f972c" x1="0" y1="0" x2="-239.48259837031583" y2="20.283266542557644" stroke="rgba(255, 255, 255, 0)" stroke-width="30"></line></g><g><line class="connector" id="ac7cc894-bb85-4619-a430-f219396de700" transform="translate(698.7667,383.65) scale(1,1) " x1="51.36938865948037" y1="24.821796143814044" x2="172.86391134051973" y2="83.52820385618598" stroke="#808080" stroke-width="3" marker-start="url(#arrowRight)" stroke-linecap="butt"></line><line transform="translate(698.7667,383.65) " class="outer-connector" id="ac7cc894-bb85-4619-a430-f219396de700" x1="0" y1="0" x2="190.8718162660979" y2="92.22966121638359" stroke="rgba(255, 255, 255, 0)" stroke-width="30"></line></g><g><line class="connector" id="3a48757c-86d2-4289-a224-923209574097" transform="translate(342,208) scale(1,1) " x1="-9.953378555355435" y1="40.438989002648036" x2="-33.27992144464453" y2="135.21101099735193" stroke="#808080" stroke-width="6" marker-start="url(#arrowRight)" stroke-linecap="butt"></line><line transform="translate(342,208) " class="outer-connector" id="3a48757c-86d2-4289-a224-923209574097" x1="0" y1="0" x2="-38.059924693020214" y2="154.63140154300055" stroke="rgba(255, 255, 255, 0)" stroke-width="30"></line></g><g><line class="connector" id="dd262c7d-0aea-4686-b5a9-3f898288e3ae" transform="translate(166.99999999999997,249.00000000000003) scale(1,1) " x1="35.96157662170086" y1="36.7484826751525" x2="95.8051233782992" y2="97.90151732484746" stroke="#808080" stroke-width="3" marker-start="url(#arrowRight)" stroke-linecap="butt"></line><line transform="translate(166.99999999999997,249.00000000000003) " class="outer-connector" id="dd262c7d-0aea-4686-b5a9-3f898288e3ae" x1="0" y1="0" x2="109.793386282615" y2="112.19586938850333" stroke="rgba(255, 255, 255, 0)" stroke-width="30"></line></g><g><line class="connector" id="52bfb447-4a24-452b-8a29-13fc49554136" transform="translate(100,350) scale(1,1) " x1="58.74399728767745" y1="9.94500340716199" x2="140.02270271232254" y2="23.704996592837986" stroke="#808080" stroke-width="3" marker-start="url(#arrowRight)" stroke-linecap="butt"></line><line transform="translate(100,350) " class="outer-connector" id="52bfb447-4a24-452b-8a29-13fc49554136" x1="0" y1="0" x2="159.74211540824183" y2="27.043373882483" stroke="rgba(255, 255, 255, 0)" stroke-width="30"></line></g><g><line class="connector" id="8f63b918-0e8b-40d3-90dc-b2f384928a74" transform="translate(743,536) scale(1,1) " x1="-11.769282376521865" y1="-40.53620620806287" x2="-32.46401762347811" y2="-111.81379379193713" stroke="#808080" stroke-width="3" marker-start="url(#arrowRight)" stroke-linecap="butt"></line><line transform="translate(743,536) " class="outer-connector" id="8f63b918-0e8b-40d3-90dc-b2f384928a74" x1="0" y1="0" x2="-38.04053019908719" y2="-131.02062870803078" stroke="rgba(255, 255, 255, 0)" stroke-width="30"></line></g><g><line class="connector" id="b9c236c4-09ea-49d9-bd5f-f42ff0523e7e" transform="translate(149.99999999999997,474) scale(1,1) " x1="47.63363751860211" y1="-28.929183411379707" x2="101.1330624813979" y2="-61.42081658862032" stroke="#808080" stroke-width="3" marker-start="url(#arrowRight)" stroke-linecap="butt"></line><line transform="translate(149.99999999999997,474) " class="outer-connector" id="b9c236c4-09ea-49d9-bd5f-f42ff0523e7e" x1="0" y1="0" x2="118.22741792873111" y2="-71.8026763372506" stroke="rgba(255, 255, 255, 0)" stroke-width="30"></line></g><g><line class="connector" id="a6bf0ac1-03ec-40ef-b490-2765115880ad" transform="translate(968.0000000000001,239) scale(1,1) " x1="-59.38672129811877" y1="6.977552110745022" x2="-323.61327870188137" y2="38.02244788925498" stroke="#808080" stroke-width="3" marker-start="url(#arrowRight)" stroke-linecap="butt"></line><line transform="translate(968.0000000000001,239) " class="outer-connector" id="a6bf0ac1-03ec-40ef-b490-2765115880ad" x1="0" y1="0" x2="-343.47664457115644" y2="40.35626372245962" stroke="rgba(255, 255, 255, 0)" stroke-width="30"></line></g><g><line class="connector" id="74774e21-9b09-48c9-9503-8261444d94ff" transform="translate(585,284) scale(1,1) " x1="15.241646913959617" y1="-40.64439177055898" x2="53.75835308604039" y2="-143.35560822944103" stroke="#808080" stroke-width="6" marker-start="url(#arrowRight)" stroke-linecap="butt"></line><line transform="translate(585,284) " class="outer-connector" id="74774e21-9b09-48c9-9503-8261444d94ff" x1="0" y1="0" x2="60.78082191780822" y2="-162.08219178082192" stroke="rgba(255, 255, 255, 0)" stroke-width="30"></line></g><g transform="translate(498.7667,383.65) scale(0.45)"><ellipse id="a9a2c38e-5a8f-44ba-9b6f-1c4862044ed1" class="node" null="cy" rx="100" ry="70" transform="translate(0,0)" fill="#B9F1B9" stroke="#22AA22" stroke-width="6" opacity="1"></ellipse><text id="a9a2c38e-5a8f-44ba-9b6f-1c4862044ed1" class="noselect node" x="0" fill="black" alignment-baseline="center" text-anchor="middle" font-size="20px" y="0">rescue robot</text></g><g transform="translate(298.7667,383.65) scale(0.45)"><polygon id="8555b509-8dfd-462e-b2a3-88900f4b961b" class="node" points="-100,0 -60,-60 60,-60 100,0 60,60 -60,60" transform="translate(0,0)" fill="#EB8989" stroke="#E04848" stroke-width="9"></polygon><text id="8555b509-8dfd-462e-b2a3-88900f4b961b" class="noselect node" x="0" fill="black" alignment-baseline="center" text-anchor="middle" font-size="20px" y="0">disadvantages</text></g><g transform="translate(698.7667,383.65) scale(0.45)"><ellipse id="8a31f12e-220e-423c-b6c6-2a9b1b0307b9" class="node" null="cy" rx="100" ry="70" transform="translate(0,0)" fill="#B9F1B9" stroke="#22AA22" stroke-width="9" opacity="1"></ellipse><text id="8a31f12e-220e-423c-b6c6-2a9b1b0307b9" class="noselect node" x="0" fill="black" alignment-baseline="center" text-anchor="middle" font-size="20px" y="0">advantages</text></g><g transform="translate(585,284) scale(0.45)"><ellipse id="282ebb80-7aa8-4e62-b214-445b47bbea40" class="node" null="cy" rx="100" ry="70" transform="translate(0,0)" fill="#B9F1B9" stroke="#22AA22" stroke-width="6" opacity="1"></ellipse><text id="282ebb80-7aa8-4e62-b214-445b47bbea40" class="noselect node" x="0" fill="black" alignment-baseline="center" text-anchor="middle" font-size="20px" y="-20"> <tspan dy="1.1em" x="0">accessibility</tspan> of  <tspan dy="1.1em" x="0">contaminated</tspan>  <tspan dy="1.1em" x="0">places</tspan></text></g><g transform="translate(654,100) scale(0.45)"><ellipse id="b3d11266-47b2-44f4-88c5-50c31016db91" class="node" null="cy" rx="100" ry="70" transform="translate(0,0)" fill="#B9F1B9" stroke="#22AA22" stroke-width="9" opacity="1"></ellipse><text id="b3d11266-47b2-44f4-88c5-50c31016db91" class="noselect node" x="0" fill="black" alignment-baseline="center" text-anchor="middle" font-size="20px" y="-20"> <tspan dy="1.1em" x="0">protection</tspan> of  <tspan dy="1.1em" x="0">rescue</tspan> forces</text></g><g transform="translate(811,177) scale(0.45)"><ellipse id="1466866c-6a8f-4d6b-8ce7-1195559799b0" class="node" null="cy" rx="100" ry="70" transform="translate(0,0)" fill="#B9F1B9" stroke="#22AA22" stroke-width="3" opacity="1"></ellipse><text id="1466866c-6a8f-4d6b-8ce7-1195559799b0" class="noselect node" x="0" fill="black" alignment-baseline="center" text-anchor="middle" font-size="20px" y="0">strength</text></g><g transform="translate(968.0000000000001,239) scale(0.45)"><ellipse id="becb51d9-a28c-4a0b-95c0-b48f475ac74b" class="node" null="cy" rx="100" ry="70" transform="translate(0,0)" fill="#B9F1B9" stroke="#22AA22" stroke-width="6" opacity="1"></ellipse><text id="becb51d9-a28c-4a0b-95c0-b48f475ac74b" class="noselect node" x="0" fill="black" alignment-baseline="center" text-anchor="middle" font-size="20px" y="0">mobility</text></g><g transform="translate(978.0000000000001,360) scale(0.45)"><ellipse id="32b2c2d4-b726-4633-b74e-b91a741d02a5" class="node" null="cy" rx="100" ry="70" transform="translate(0,0)" fill="#B9F1B9" stroke="#22AA22" stroke-width="3" opacity="1"></ellipse><text id="32b2c2d4-b726-4633-b74e-b91a741d02a5" class="noselect node" x="0" fill="black" alignment-baseline="center" text-anchor="middle" font-size="20px" y="0">resources</text></g><g transform="translate(342,208) scale(0.45)"><polygon id="9e6772a0-3de9-4e7d-a282-eef48cbf5c18" class="node" points="-100,0 -60,-60 60,-60 100,0 60,60 -60,60" transform="translate(0,0)" fill="#EB8989" stroke="#E04848" stroke-width="9"></polygon><text id="9e6772a0-3de9-4e7d-a282-eef48cbf5c18" class="noselect node" x="0" fill="black" alignment-baseline="center" text-anchor="middle" font-size="20px" y="0">unclear algorithms</text></g><g transform="translate(166.99999999999997,249.00000000000003) scale(0.45)"><polygon id="fc56f102-775c-4c3a-9e4d-e9b03a64b303" class="node" points="-100,0 -60,-60 60,-60 100,0 60,60 -60,60" transform="translate(0,0)" fill="#EB8989" stroke="#E04848" stroke-width="3"></polygon><text id="fc56f102-775c-4c3a-9e4d-e9b03a64b303" class="noselect node" x="0" fill="black" alignment-baseline="center" text-anchor="middle" font-size="20px" y="0">jobs</text></g><g transform="translate(100,350) scale(0.45)"><polygon id="557fee6b-8450-4694-b24b-c12caaa31db2" class="node" points="-100,0 -60,-60 60,-60 100,0 60,60 -60,60" transform="translate(0,0)" fill="#EB8989" stroke="#E04848" stroke-width="3"></polygon><text id="557fee6b-8450-4694-b24b-c12caaa31db2" class="noselect node" x="0" fill="black" alignment-baseline="center" text-anchor="middle" font-size="20px" y="0">abuse</text></g><g transform="translate(923.0000000000001,492) scale(0.45)"><ellipse id="61f87191-8c7d-4a8f-b583-cb615139eaa9" class="node" null="cy" rx="100" ry="70" transform="translate(0,0)" fill="#B9F1B9" stroke="#22AA22" stroke-width="3" opacity="1"></ellipse><text id="61f87191-8c7d-4a8f-b583-cb615139eaa9" class="noselect node" x="0" fill="black" alignment-baseline="center" text-anchor="middle" font-size="20px" y="-20">economic  <tspan dy="1.1em" x="0">development</tspan></text></g><g transform="translate(743,536) scale(0.45)"><ellipse id="7b01a145-23eb-45f2-9bd7-6da15162be6c" class="node" null="cy" rx="100" ry="70" transform="translate(0,0)" fill="#B9F1B9" stroke="#22AA22" stroke-width="3" opacity="1"></ellipse><text id="7b01a145-23eb-45f2-9bd7-6da15162be6c" class="noselect node" x="0" fill="black" alignment-baseline="center" text-anchor="middle" font-size="20px" y="0">Cost savings</text></g><g transform="translate(149.99999999999997,474) scale(0.45)"><polygon id="c6199810-f430-4c6c-9a86-aec08169000c" class="node" points="-100,0 -60,-60 60,-60 100,0 60,60 -60,60" transform="translate(0,0)" fill="#EB8989" stroke="#E04848" stroke-width="6"></polygon><text id="c6199810-f430-4c6c-9a86-aec08169000c" class="noselect node" x="0" fill="black" alignment-baseline="center" text-anchor="middle" font-size="20px" y="0">emotional coldness</text></g></svg>