<?xml version="1.0" standalone="no"?>
<svg id="CAMSVG" xmlns="http://www.w3.org/2000/svg" height="1400px" width="2400px"><rect id="background" x="0" y="0" width="100%" height="100%" fill="white"></rect><marker id="arrowRight" markerWidth="30" markerHeight="15" refX="30" refY="7.5" orient="auto" markerUnits="userSpaceOnUse"><polygon points="0 0, 0 0, 0 0" fill="#8c8c8c"></polygon></marker><marker id="arrowLeft" markerWidth="30" markerHeight="15" refX="0" refY="7.5" orient="auto" markerUnits="userSpaceOnUse"><polygon points="0 0, 0 0, 0 0" fill="#8c8c8c"></polygon></marker><g><line class="connector" id="bda10cc2-32b2-4fe6-b91e-118014e334b8" transform="translate(298.7667,383.65) scale(1,1) " x1="60" y1="0" x2="140" y2="0" stroke="#808080" stroke-width="3" marker-start="url(#arrowRight)" stroke-linecap="butt"></line><line transform="translate(298.7667,383.65) " class="outer-connector" id="bda10cc2-32b2-4fe6-b91e-118014e334b8" x1="0" y1="0" x2="160" y2="0" stroke="rgba(255, 255, 255, 0)" stroke-width="30"></line></g><g><line class="connector" id="3ad8df9e-f8f6-4e64-877e-e912c38bc593" transform="translate(698.7667,383.65) scale(1,1) " x1="-60" y1="0" x2="-140" y2="0" stroke="#808080" stroke-width="3" marker-start="url(#arrowRight)" stroke-linecap="butt"></line><line transform="translate(698.7667,383.65) " class="outer-connector" id="3ad8df9e-f8f6-4e64-877e-e912c38bc593" x1="0" y1="0" x2="-160" y2="0" stroke="rgba(255, 255, 255, 0)" stroke-width="30"></line></g><g><line class="connector" id="d2a10785-abeb-4f37-9ae0-3d424225deb9" transform="translate(585,284) scale(1,1) " x1="39.75457539706786" y1="34.82164322528306" x2="74.01212460293215" y2="64.82835677471691" stroke="#808080" stroke-width="6" marker-start="url(#arrowRight)" stroke-linecap="butt"></line><line transform="translate(585,284) " class="outer-connector" id="d2a10785-abeb-4f37-9ae0-3d424225deb9" x1="0" y1="0" x2="89.0568317487822" y2="78.0062468522524" stroke="rgba(255, 255, 255, 0)" stroke-width="30"></line></g><g><line class="connector" id="b9819808-e202-4edd-a116-194a23ba9992" transform="translate(654,100) scale(1,1) " x1="6.3474267801362165" y1="40.218457160917325" x2="38.41927321986378" y2="243.43154283908265" stroke="#808080" stroke-width="9" marker-start="url(#arrowRight)" stroke-linecap="butt"></line><line transform="translate(654,100) " class="outer-connector" id="b9819808-e202-4edd-a116-194a23ba9992" x1="0" y1="0" x2="41.5371559605061" y2="263.18701821214324" stroke="rgba(255, 255, 255, 0)" stroke-width="30"></line></g><g><line class="connector" id="3b01e157-4536-473d-94f8-de7273c3ecb6" transform="translate(811,177) scale(1,1) " x1="-21.9295792346034" y1="40.377923030248525" x2="-90.30372076539659" y2="166.27207696975142" stroke="#808080" stroke-width="6" marker-start="url(#arrowRight)" stroke-linecap="butt"></line><line transform="translate(811,177) " class="outer-connector" id="3b01e157-4536-473d-94f8-de7273c3ecb6" x1="0" y1="0" x2="-99.8489652702398" y2="183.84729552721922" stroke="rgba(255, 255, 255, 0)" stroke-width="30"></line></g><g><line class="connector" id="8546928b-d83a-44cc-b6e8-1b4fae572dea" transform="translate(968.0000000000001,239) scale(1,1) " x1="-49.758793882799594" y1="26.733726976369404" x2="-219.47450611720055" y2="117.91627302363058" stroke="#808080" stroke-width="3" marker-start="url(#arrowRight)" stroke-linecap="butt"></line><line transform="translate(968.0000000000001,239) " class="outer-connector" id="8546928b-d83a-44cc-b6e8-1b4fae572dea" x1="0" y1="0" x2="-237.09271022146987" y2="127.38194173430848" stroke="rgba(255, 255, 255, 0)" stroke-width="30"></line></g><g><line class="connector" id="efbee35e-d389-447c-a1aa-44838d52b40a" transform="translate(978.0000000000001,360) scale(1,1) " x1="-59.679350808070986" y1="5.054614355131988" x2="-219.5539491919291" y2="18.59538564486799" stroke="#808080" stroke-width="3" marker-start="url(#arrowRight)" stroke-linecap="butt"></line><line transform="translate(978.0000000000001,360) " class="outer-connector" id="efbee35e-d389-447c-a1aa-44838d52b40a" x1="0" y1="0" x2="-239.48259837031583" y2="20.283266542557644" stroke="rgba(255, 255, 255, 0)" stroke-width="30"></line></g><g><line class="connector" id="36709b34-b1a8-4783-83e5-51cd1c492132" transform="translate(698.7667,383.65) scale(1,1) " x1="51.36938865948037" y1="24.821796143814044" x2="172.86391134051973" y2="83.52820385618598" stroke="#808080" stroke-width="3" marker-start="url(#arrowRight)" stroke-linecap="butt"></line><line transform="translate(698.7667,383.65) " class="outer-connector" id="36709b34-b1a8-4783-83e5-51cd1c492132" x1="0" y1="0" x2="190.8718162660979" y2="92.22966121638359" stroke="rgba(255, 255, 255, 0)" stroke-width="30"></line></g><g><line class="connector" id="52442a5c-46f6-4413-a785-f209a686c9c0" transform="translate(342,208) scale(1,1) " x1="-9.953378555355435" y1="40.438989002648036" x2="-33.27992144464453" y2="135.21101099735193" stroke="#808080" stroke-width="6" marker-start="url(#arrowRight)" stroke-linecap="butt"></line><line transform="translate(342,208) " class="outer-connector" id="52442a5c-46f6-4413-a785-f209a686c9c0" x1="0" y1="0" x2="-38.059924693020214" y2="154.63140154300055" stroke="rgba(255, 255, 255, 0)" stroke-width="30"></line></g><g><line class="connector" id="af2849a5-783b-4d39-bce3-d228a9984770" transform="translate(166.99999999999997,249.00000000000003) scale(1,1) " x1="35.96157662170086" y1="36.7484826751525" x2="95.8051233782992" y2="97.90151732484746" stroke="#808080" stroke-width="3" marker-start="url(#arrowRight)" stroke-linecap="butt"></line><line transform="translate(166.99999999999997,249.00000000000003) " class="outer-connector" id="af2849a5-783b-4d39-bce3-d228a9984770" x1="0" y1="0" x2="109.793386282615" y2="112.19586938850333" stroke="rgba(255, 255, 255, 0)" stroke-width="30"></line></g><g><line class="connector" id="ac09025c-e11d-46ba-b1ab-e70acdf9e37f" transform="translate(100,350) scale(1,1) " x1="58.74399728767745" y1="9.94500340716199" x2="140.02270271232254" y2="23.704996592837986" stroke="#808080" stroke-width="3" marker-start="url(#arrowRight)" stroke-linecap="butt"></line><line transform="translate(100,350) " class="outer-connector" id="ac09025c-e11d-46ba-b1ab-e70acdf9e37f" x1="0" y1="0" x2="159.74211540824183" y2="27.043373882483" stroke="rgba(255, 255, 255, 0)" stroke-width="30"></line></g><g><line class="connector" id="28461bf9-bfae-4928-90bd-333110032b71" transform="translate(743,536) scale(1,1) " x1="-11.769282376521865" y1="-40.53620620806287" x2="-32.46401762347811" y2="-111.81379379193713" stroke="#808080" stroke-width="3" marker-start="url(#arrowRight)" stroke-linecap="butt"></line><line transform="translate(743,536) " class="outer-connector" id="28461bf9-bfae-4928-90bd-333110032b71" x1="0" y1="0" x2="-38.04053019908719" y2="-131.02062870803078" stroke="rgba(255, 255, 255, 0)" stroke-width="30"></line></g><g><line class="connector" id="621ff0ed-a2f1-4afd-b61d-32e714da354c" transform="translate(149.99999999999997,474) scale(1,1) " x1="47.63363751860211" y1="-28.929183411379707" x2="101.1330624813979" y2="-61.42081658862032" stroke="#808080" stroke-width="3" marker-start="url(#arrowRight)" stroke-linecap="butt"></line><line transform="translate(149.99999999999997,474) " class="outer-connector" id="621ff0ed-a2f1-4afd-b61d-32e714da354c" x1="0" y1="0" x2="118.22741792873111" y2="-71.8026763372506" stroke="rgba(255, 255, 255, 0)" stroke-width="30"></line></g><g><line class="connector" id="e6ff73be-a8ec-4382-91d6-8caf8dc4891e" transform="translate(968.0000000000001,239) scale(1,1) " x1="-59.38672129811877" y1="6.977552110745022" x2="-323.61327870188137" y2="38.02244788925498" stroke="#808080" stroke-width="3" marker-start="url(#arrowRight)" stroke-linecap="butt"></line><line transform="translate(968.0000000000001,239) " class="outer-connector" id="e6ff73be-a8ec-4382-91d6-8caf8dc4891e" x1="0" y1="0" x2="-343.47664457115644" y2="40.35626372245962" stroke="rgba(255, 255, 255, 0)" stroke-width="30"></line></g><g><line class="connector" id="eb50c1b9-ae99-480e-bda1-81a1ff59d50c" transform="translate(585,284) scale(1,1) " x1="15.241646913959617" y1="-40.64439177055898" x2="53.75835308604039" y2="-143.35560822944103" stroke="#808080" stroke-width="6" marker-start="url(#arrowRight)" stroke-linecap="butt"></line><line transform="translate(585,284) " class="outer-connector" id="eb50c1b9-ae99-480e-bda1-81a1ff59d50c" x1="0" y1="0" x2="60.78082191780822" y2="-162.08219178082192" stroke="rgba(255, 255, 255, 0)" stroke-width="30"></line></g><g><line class="connector" id="0eca5022-136c-46a0-86e7-5464c4c5208c" transform="translate(605,511) scale(1,1) " x1="28.855805511960856" y1="-39.19074502939972" x2="64.91089448803915" y2="-88.15925497060029" stroke="#808080" stroke-width="6" marker-start="url(#arrowRight)" stroke-linecap="butt"></line><line transform="translate(605,511) " class="outer-connector" id="0eca5022-136c-46a0-86e7-5464c4c5208c" x1="0" y1="0" x2="76.76912536347695" y2="-104.26460689177276" stroke="rgba(255, 255, 255, 0)" stroke-width="30"></line></g><g><line class="connector" id="c81612ff-8bf3-43d7-8d56-5bacc42cf8b3" transform="translate(298.7667,383.65) scale(1,1) " x1="3.0537172245931115" y1="40.05637106137958" x2="8.179582775406885" y2="107.29362893862046" stroke="#808080" stroke-width="6" marker-start="url(#arrowRight)" stroke-linecap="butt"></line><line transform="translate(298.7667,383.65) " class="outer-connector" id="c81612ff-8bf3-43d7-8d56-5bacc42cf8b3" x1="0" y1="0" x2="9.699881176760524" y2="127.23576254490345" stroke="rgba(255, 255, 255, 0)" stroke-width="30"></line></g><g transform="translate(498.7667,383.65) scale(0.45)"><ellipse id="e32a0708-8c25-4e4d-bcaf-7f33306befb0" class="node" null="cy" rx="100" ry="70" transform="translate(0,0)" fill="#B9F1B9" stroke="#22AA22" stroke-width="6" opacity="1"></ellipse><text id="e32a0708-8c25-4e4d-bcaf-7f33306befb0" class="noselect node" x="0" fill="black" alignment-baseline="center" text-anchor="middle" font-size="20px" y="0">rescue robot</text></g><g transform="translate(298.7667,383.65) scale(0.45)"><polygon id="99c94ea7-b8f3-418a-abc0-acd324a94232" class="node" points="-100,0 -60,-60 60,-60 100,0 60,60 -60,60" transform="translate(0,0)" fill="#EB8989" stroke="#E04848" stroke-width="9"></polygon><text id="99c94ea7-b8f3-418a-abc0-acd324a94232" class="noselect node" x="0" fill="black" alignment-baseline="center" text-anchor="middle" font-size="20px" y="0">disadvantages</text></g><g transform="translate(698.7667,383.65) scale(0.45)"><ellipse id="49806189-7a53-44d1-bfaf-eb1e31b2a0b7" class="node" null="cy" rx="100" ry="70" transform="translate(0,0)" fill="#B9F1B9" stroke="#22AA22" stroke-width="9" opacity="1"></ellipse><text id="49806189-7a53-44d1-bfaf-eb1e31b2a0b7" class="noselect node" x="0" fill="black" alignment-baseline="center" text-anchor="middle" font-size="20px" y="0">advantages</text></g><g transform="translate(585,284) scale(0.45)"><ellipse id="46718026-592f-4aa3-b498-9e382233204c" class="node" null="cy" rx="100" ry="70" transform="translate(0,0)" fill="#B9F1B9" stroke="#22AA22" stroke-width="6" opacity="1"></ellipse><text id="46718026-592f-4aa3-b498-9e382233204c" class="noselect node" x="0" fill="black" alignment-baseline="center" text-anchor="middle" font-size="20px" y="-20"> <tspan dy="1.1em" x="0">accessibility</tspan> of  <tspan dy="1.1em" x="0">contaminated</tspan>  <tspan dy="1.1em" x="0">places</tspan></text></g><g transform="translate(654,100) scale(0.45)"><ellipse id="17fa421b-5f2b-478c-9119-1a0468380c4a" class="node" null="cy" rx="100" ry="70" transform="translate(0,0)" fill="#B9F1B9" stroke="#22AA22" stroke-width="9" opacity="1"></ellipse><text id="17fa421b-5f2b-478c-9119-1a0468380c4a" class="noselect node" x="0" fill="black" alignment-baseline="center" text-anchor="middle" font-size="20px" y="-20"> <tspan dy="1.1em" x="0">protection</tspan> of  <tspan dy="1.1em" x="0">rescue</tspan> forces</text></g><g transform="translate(811,177) scale(0.45)"><ellipse id="4bacd140-1729-4b01-89d2-9d5f621fd0f9" class="node" null="cy" rx="100" ry="70" transform="translate(0,0)" fill="#B9F1B9" stroke="#22AA22" stroke-width="3" opacity="1"></ellipse><text id="4bacd140-1729-4b01-89d2-9d5f621fd0f9" class="noselect node" x="0" fill="black" alignment-baseline="center" text-anchor="middle" font-size="20px" y="0">strength</text></g><g transform="translate(968.0000000000001,239) scale(0.45)"><ellipse id="5b38f75a-42ab-4d01-8fca-26ff8895597f" class="node" null="cy" rx="100" ry="70" transform="translate(0,0)" fill="#B9F1B9" stroke="#22AA22" stroke-width="6" opacity="1"></ellipse><text id="5b38f75a-42ab-4d01-8fca-26ff8895597f" class="noselect node" x="0" fill="black" alignment-baseline="center" text-anchor="middle" font-size="20px" y="0">mobility</text></g><g transform="translate(978.0000000000001,360) scale(0.45)"><ellipse id="803511a5-3b47-41df-a11a-2a4afd3a18b3" class="node" null="cy" rx="100" ry="70" transform="translate(0,0)" fill="#B9F1B9" stroke="#22AA22" stroke-width="3" opacity="1"></ellipse><text id="803511a5-3b47-41df-a11a-2a4afd3a18b3" class="noselect node" x="0" fill="black" alignment-baseline="center" text-anchor="middle" font-size="20px" y="0">resources</text></g><g transform="translate(342,208) scale(0.45)"><polygon id="7d6d5f91-1811-4a22-a8a3-f14fe3842d33" class="node" points="-100,0 -60,-60 60,-60 100,0 60,60 -60,60" transform="translate(0,0)" fill="#EB8989" stroke="#E04848" stroke-width="9"></polygon><text id="7d6d5f91-1811-4a22-a8a3-f14fe3842d33" class="noselect node" x="0" fill="black" alignment-baseline="center" text-anchor="middle" font-size="20px" y="0">unclear algorithms</text></g><g transform="translate(166.99999999999997,249.00000000000003) scale(0.45)"><polygon id="b4a74f13-957f-4fae-bfe3-c1d115ec2c0b" class="node" points="-100,0 -60,-60 60,-60 100,0 60,60 -60,60" transform="translate(0,0)" fill="#EB8989" stroke="#E04848" stroke-width="3"></polygon><text id="b4a74f13-957f-4fae-bfe3-c1d115ec2c0b" class="noselect node" x="0" fill="black" alignment-baseline="center" text-anchor="middle" font-size="20px" y="0">jobs</text></g><g transform="translate(100,350) scale(0.45)"><polygon id="6ff5538f-fdfa-4d12-848f-03df33f2dfe4" class="node" points="-100,0 -60,-60 60,-60 100,0 60,60 -60,60" transform="translate(0,0)" fill="#EB8989" stroke="#E04848" stroke-width="3"></polygon><text id="6ff5538f-fdfa-4d12-848f-03df33f2dfe4" class="noselect node" x="0" fill="black" alignment-baseline="center" text-anchor="middle" font-size="20px" y="0">abuse</text></g><g transform="translate(923.0000000000001,492) scale(0.45)"><ellipse id="ce11b401-b3ec-4f2b-9ce7-597f5ee87bd4" class="node" null="cy" rx="100" ry="70" transform="translate(0,0)" fill="#B9F1B9" stroke="#22AA22" stroke-width="3" opacity="1"></ellipse><text id="ce11b401-b3ec-4f2b-9ce7-597f5ee87bd4" class="noselect node" x="0" fill="black" alignment-baseline="center" text-anchor="middle" font-size="20px" y="-20">economic  <tspan dy="1.1em" x="0">development</tspan></text></g><g transform="translate(743,536) scale(0.45)"><ellipse id="44d62143-31da-468b-a7f1-604c4c0fd8db" class="node" null="cy" rx="100" ry="70" transform="translate(0,0)" fill="#B9F1B9" stroke="#22AA22" stroke-width="3" opacity="1"></ellipse><text id="44d62143-31da-468b-a7f1-604c4c0fd8db" class="noselect node" x="0" fill="black" alignment-baseline="center" text-anchor="middle" font-size="20px" y="0">Cost savings</text></g><g transform="translate(149.99999999999997,474) scale(0.45)"><polygon id="1fdfe7cd-d8b2-4f3e-b95a-f36fbf685b3e" class="node" points="-100,0 -60,-60 60,-60 100,0 60,60 -60,60" transform="translate(0,0)" fill="#EB8989" stroke="#E04848" stroke-width="3"></polygon><text id="1fdfe7cd-d8b2-4f3e-b95a-f36fbf685b3e" class="noselect node" x="0" fill="black" alignment-baseline="center" text-anchor="middle" font-size="20px" y="0">emotional coldness</text></g><g transform="translate(605,511) scale(0.45)"><ellipse id="8c62fb82-9240-42cf-9032-24cad1e68bfc" class="node" null="cy" rx="100" ry="70" transform="translate(0,0)" fill="#B9F1B9" stroke="#22AA22" stroke-width="6" opacity="1"></ellipse><text id="8c62fb82-9240-42cf-9032-24cad1e68bfc" class="noselect node" x="0" fill="black" alignment-baseline="center" text-anchor="middle" font-size="20px" y="0">supply with goods</text></g><g transform="translate(310,531) scale(0.45)"><polygon id="8feb5924-e934-49a8-aad0-2dd22ee6f6d9" class="node" points="-100,0 -60,-60 60,-60 100,0 60,60 -60,60" transform="translate(0,0)" fill="#EB8989" stroke="#E04848" stroke-width="6"></polygon><text id="8feb5924-e934-49a8-aad0-2dd22ee6f6d9" class="noselect node" x="0" fill="black" alignment-baseline="center" text-anchor="middle" font-size="20px" y="0">easily damaged</text></g></svg>