<?xml version="1.0" standalone="no"?>
<svg id="CAMSVG" xmlns="http://www.w3.org/2000/svg" height="1400px" width="2400px"><rect id="background" x="0" y="0" width="100%" height="100%" fill="white"></rect><marker id="arrowRight" markerWidth="30" markerHeight="15" refX="30" refY="7.5" orient="auto" markerUnits="userSpaceOnUse"><polygon points="0 0, 0 0, 0 0" fill="#8c8c8c"></polygon></marker><marker id="arrowLeft" markerWidth="30" markerHeight="15" refX="0" refY="7.5" orient="auto" markerUnits="userSpaceOnUse"><polygon points="0 0, 0 0, 0 0" fill="#8c8c8c"></polygon></marker><g><line class="connector" id="852dbe92-ad84-4bce-8bfb-fae8f0ba34d7" transform="translate(333.5,394) scale(1,1) " x1="60" y1="0" x2="140" y2="0" stroke="#808080" stroke-width="9" marker-start="url(#arrowRight)" stroke-dasharray="20,10"></line><line transform="translate(333.5,394) " class="outer-connector" id="852dbe92-ad84-4bce-8bfb-fae8f0ba34d7" x1="0" y1="0" x2="160" y2="0" stroke="rgba(255, 255, 255, 0)" stroke-width="30"></line></g><g><line class="connector" id="1ab8c49d-52ed-4128-8338-60c0116c0348" transform="translate(733.5,394) scale(1,1) " x1="-60" y1="0" x2="-140" y2="0" stroke="#808080" stroke-width="9" marker-start="url(#arrowRight)" stroke-linecap="butt"></line><line transform="translate(733.5,394) " class="outer-connector" id="1ab8c49d-52ed-4128-8338-60c0116c0348" x1="0" y1="0" x2="-160" y2="0" stroke="rgba(255, 255, 255, 0)" stroke-width="30"></line></g><g><line class="connector" id="38236a7a-f5ab-4dc9-bcb4-152e10000339" transform="translate(821,258) scale(1,1) " x1="-28.874030342299754" y1="-39.186184035978236" x2="-27.125969657700242" y2="-36.81381596402176" stroke="#808080" stroke-width="3" marker-start="url(#arrowRight)" stroke-linecap="butt"></line><line transform="translate(821,258) " class="outer-connector" id="38236a7a-f5ab-4dc9-bcb4-152e10000339" x1="0" y1="0" x2="-38.98995041869724" y2="-52.914932711089115" stroke="rgba(255, 255, 255, 0)" stroke-width="30"></line></g><g><line class="connector" id="b473bef5-8ae7-4171-bacb-abee103bef2d" transform="translate(821,258) scale(1,1) " x1="30.041305231470385" y1="-38.87698324072639" x2="37.95869476852961" y2="-49.12301675927362" stroke="#808080" stroke-width="3" marker-start="url(#arrowRight)" stroke-linecap="butt"></line><line transform="translate(821,258) " class="outer-connector" id="b473bef5-8ae7-4171-bacb-abee103bef2d" x1="0" y1="0" x2="50.18764479004492" y2="-64.94871678711696" stroke="rgba(255, 255, 255, 0)" stroke-width="30"></line></g><g><line class="connector" id="48ea35cf-370a-40ae-b0e0-3e681dbcfbd3" transform="translate(821,258) scale(1,1) " x1="18.970320281088497" y1="40.5876619967475" x2="24.02967971891149" y2="51.41233800325251" stroke="#808080" stroke-width="6" marker-start="url(#arrowRight)" stroke-linecap="butt"></line><line transform="translate(821,258) " class="outer-connector" id="48ea35cf-370a-40ae-b0e0-3e681dbcfbd3" x1="0" y1="0" x2="32.49816900406802" y2="69.53096624126184" stroke="rgba(255, 255, 255, 0)" stroke-width="30"></line></g><g><line class="connector" id="0c9b517a-22bb-4f53-8bc3-3c5eb31a8cc7" transform="translate(733.5,394) scale(1,1) " x1="25.652133785804693" y1="-39.87074508422214" x2="61.84786621419531" y2="-96.12925491577784" stroke="#808080" stroke-width="9" marker-start="url(#arrowRight)" stroke-linecap="butt"></line><line transform="translate(733.5,394) " class="outer-connector" id="0c9b517a-22bb-4f53-8bc3-3c5eb31a8cc7" x1="0" y1="0" x2="72.66926792313875" y2="-112.94880500053564" stroke="rgba(255, 255, 255, 0)" stroke-width="30"></line></g><g><line class="connector" id="da6e563e-c2af-425c-95e2-07956940778c" transform="translate(864,350) scale(1,1) " x1="7.190984277044843" y1="40.269511951451136" x2="7.809015722955155" y2="43.73048804854888" stroke="#808080" stroke-width="9" marker-start="url(#arrowRight)" stroke-linecap="butt"></line><line transform="translate(864,350) " class="outer-connector" id="da6e563e-c2af-425c-95e2-07956940778c" x1="0" y1="0" x2="11.324828492628303" y2="63.419039558718524" stroke="rgba(255, 255, 255, 0)" stroke-width="30"></line></g><g><line class="connector" id="03312ee9-5a41-4f6e-ab48-eb59e0f035bd" transform="translate(879,434) scale(1,1) " x1="-56.82353792009951" y1="-15.62159118078337" x2="-88.6764620799005" y2="-24.378408819216634" stroke="#808080" stroke-width="9" marker-start="url(#arrowRight)" stroke-linecap="butt"></line><line transform="translate(879,434) " class="outer-connector" id="03312ee9-5a41-4f6e-ab48-eb59e0f035bd" x1="0" y1="0" x2="-107.96099344711939" y2="-29.679998198520796" stroke="rgba(255, 255, 255, 0)" stroke-width="30"></line></g><g><line class="connector" id="f2ccda4d-23d3-4d6c-afba-321b8ab29e7b" transform="translate(879,434) scale(1,1) " x1="2.4021195470752383" y1="40.03532578458728" x2="3.597880452924766" y2="59.96467421541273" stroke="#808080" stroke-width="6" marker-start="url(#arrowRight)" stroke-linecap="butt"></line><line transform="translate(879,434) " class="outer-connector" id="f2ccda4d-23d3-4d6c-afba-321b8ab29e7b" x1="0" y1="0" x2="4.795726267483701" y2="79.9287711247283" stroke="rgba(255, 255, 255, 0)" stroke-width="30"></line></g><g><line class="connector" id="03a1e07b-a5aa-41b3-ba76-984982158362" transform="translate(879,434) scale(1,1) " x1="47.64852690166375" y1="28.914918034342953" x2="69.35147309833626" y2="42.08508196565704" stroke="#808080" stroke-width="9" marker-start="url(#arrowRight)" stroke-linecap="butt"></line><line transform="translate(879,434) " class="outer-connector" id="03a1e07b-a5aa-41b3-ba76-984982158362" x1="0" y1="0" x2="86.44953829362422" y2="52.460830930318956" stroke="rgba(255, 255, 255, 0)" stroke-width="30"></line></g><g><line class="connector" id="cd0fb0e9-85a9-434a-b68e-d13dc6cd7ae0" transform="translate(733.5,394) scale(1,1) " x1="19.551922557666355" y1="40.55887191032183" x2="87.94807744233367" y2="182.4411280896782" stroke="#808080" stroke-width="6" marker-start="url(#arrowRight)" stroke-linecap="butt"></line><line transform="translate(733.5,394) " class="outer-connector" id="cd0fb0e9-85a9-434a-b68e-d13dc6cd7ae0" x1="0" y1="0" x2="96.63289058565128" y2="200.45706605209517" stroke="rgba(255, 255, 255, 0)" stroke-width="30"></line></g><g><line class="connector" id="5444aaa6-69c4-4721-aa6b-ae22caeb3809" transform="translate(533.5,394) scale(1,1) " x1="39.52097620785145" y1="-34.95480764200408" x2="85.97902379214854" y2="-76.04519235799593" stroke="#808080" stroke-width="3" marker-start="url(#arrowRight)" stroke-linecap="butt"></line><line transform="translate(533.5,394) " class="outer-connector" id="5444aaa6-69c4-4721-aa6b-ae22caeb3809" x1="0" y1="0" x2="100.96009421266496" y2="-89.29538213231721" stroke="rgba(255, 255, 255, 0)" stroke-width="30"></line></g><g><line class="connector" id="6ca007e4-ddef-4bc1-b1b4-e15b796105e5" transform="translate(765,182) scale(1,1) " x1="-37.70286272077689" y1="35.92442579998553" x2="-68.29713727922311" y2="65.07557420001447" stroke="#808080" stroke-width="3" marker-start="url(#arrowRight)" stroke-linecap="butt"></line><line transform="translate(765,182) " class="outer-connector" id="6ca007e4-ddef-4bc1-b1b4-e15b796105e5" x1="0" y1="0" x2="-82.7766470048292" y2="78.8720881838467" stroke="rgba(255, 255, 255, 0)" stroke-width="30"></line></g><g><line class="connector" id="f2e05559-dfd9-434e-be5d-dee875a77c7c" transform="translate(333.5,394) scale(1,1) " x1="-58.440468120905294" y1="-11.06034435024806" x2="-137.05953187909472" y2="-25.939655649751938" stroke="#808080" stroke-width="3" marker-start="url(#arrowRight)" stroke-linecap="butt"></line><line transform="translate(333.5,394) " class="outer-connector" id="f2e05559-dfd9-434e-be5d-dee875a77c7c" x1="0" y1="0" x2="-156.71068864561823" y2="-29.658800408633624" stroke="rgba(255, 255, 255, 0)" stroke-width="30"></line></g><g><line class="connector" id="a35f68b6-d3b5-44d6-9762-30fa89de3046" transform="translate(333.5,394) scale(1,1) " x1="-32.808111487034274" y1="-38.00396624742432" x2="-77.6918885129657" y2="-89.99603375257567" stroke="#808080" stroke-width="3" marker-start="url(#arrowRight)" stroke-linecap="butt"></line><line transform="translate(333.5,394) " class="outer-connector" id="a35f68b6-d3b5-44d6-9762-30fa89de3046" x1="0" y1="0" x2="-90.76120631668259" y2="-105.13515301841967" stroke="rgba(255, 255, 255, 0)" stroke-width="30"></line></g><g><line class="connector" id="ab1c26ba-90fe-4d24-acea-517b81481813" transform="translate(533.5,394) scale(1,1) " x1="0.7463334771582171" y1="40.00347437568025" x2="1.7536665228417947" y2="93.99652562431976" stroke="#808080" stroke-width="3" marker-start="url(#arrowRight)" stroke-linecap="butt"></line><line transform="translate(533.5,394) " class="outer-connector" id="ab1c26ba-90fe-4d24-acea-517b81481813" x1="0" y1="0" x2="2.1267359291425985" y2="113.99304580204274" stroke="rgba(255, 255, 255, 0)" stroke-width="30"></line></g><g><line class="connector" id="bef169b2-dccc-4a78-83fa-eff0e72052ab" transform="translate(536,528) scale(1,1) " x1="-2.1637174875208895" y1="40.02877351913649" x2="-3.8362825124791047" y2="70.9712264808635" stroke="#808080" stroke-width="3" marker-start="url(#arrowRight)" stroke-linecap="butt"></line><line transform="translate(536,528) " class="outer-connector" id="bef169b2-dccc-4a78-83fa-eff0e72052ab" x1="0" y1="0" x2="-4.915787672779112" y2="90.94207194641366" stroke="rgba(255, 255, 255, 0)" stroke-width="30"></line></g><g><line class="connector" id="183b6e65-c6d9-4734-80ff-4132c7acd3d9" transform="translate(333.5,394) scale(1,1) " x1="12.192368953859576" y1="40.55566936231183" x2="35.307631046140436" y2="117.44433063768814" stroke="#808080" stroke-width="6" marker-start="url(#arrowRight)" stroke-linecap="butt"></line><line transform="translate(333.5,394) " class="outer-connector" id="183b6e65-c6d9-4734-80ff-4132c7acd3d9" x1="0" y1="0" x2="41.06570913730715" y2="136.59751670935844" stroke="rgba(255, 255, 255, 0)" stroke-width="30"></line></g><g><line class="connector" id="ab63e5da-5319-4b51-a5a9-0f1be72cac98" transform="translate(530,639) scale(1,1) " x1="-48.34665720915276" y1="-28.22925622279389" x2="-100.65334279084723" y2="-58.77074377720611" stroke="#808080" stroke-width="3" marker-start="url(#arrowRight)" stroke-linecap="butt"></line><line transform="translate(530,639) " class="outer-connector" id="ab63e5da-5319-4b51-a5a9-0f1be72cac98" x1="0" y1="0" x2="-117.92471512537148" y2="-68.85537057655918" stroke="rgba(255, 255, 255, 0)" stroke-width="30"></line></g><g><line class="connector" id="bd6a2e43-0f2e-4325-af4f-774ee50830b5" transform="translate(536,528) scale(1,1) " x1="-58.944822612936" y1="9.12694027555138" x2="-96.055177387064" y2="14.87305972444862" stroke="#808080" stroke-width="3" marker-start="url(#arrowRight)" stroke-linecap="butt"></line><line transform="translate(536,528) " class="outer-connector" id="bd6a2e43-0f2e-4325-af4f-774ee50830b5" x1="0" y1="0" x2="-115.81965377911006" y2="17.93336574644285" stroke="rgba(255, 255, 255, 0)" stroke-width="30"></line></g><g><line class="connector" id="a893aa3f-1909-4701-a43f-3d539e60cc0d" transform="translate(536,528) scale(1,1) " x1="54.81937772550422" y1="19.68864974648391" x2="87.18062227449578" y2="31.311350253516093" stroke="#808080" stroke-width="3" marker-start="url(#arrowRight)" stroke-linecap="butt"></line><line transform="translate(536,528) " class="outer-connector" id="a893aa3f-1909-4701-a43f-3d539e60cc0d" x1="0" y1="0" x2="106.00343462760334" y2="38.07165609864628" stroke="rgba(255, 255, 255, 0)" stroke-width="30"></line></g><g><line class="connector" id="602e58db-19f3-4aca-b19d-4ab21637c6ae" transform="translate(733.5,394) scale(1,1) " x1="-12.166354292807982" y1="40.55451430935991" x2="-43.333645707192055" y2="144.44548569064006" stroke="#808080" stroke-width="3" marker-start="url(#arrowRight)" stroke-linecap="butt"></line><line transform="translate(733.5,394) " class="outer-connector" id="602e58db-19f3-4aca-b19d-4ab21637c6ae" x1="0" y1="0" x2="-49.08060341851896" y2="163.6020113950631" stroke="rgba(255, 255, 255, 0)" stroke-width="30"></line></g><g><line class="connector" id="3d4e5a09-f043-46f0-8b94-df885b53678c" transform="translate(333.5,394) scale(1,1) " x1="-5.754518026529206" y1="-40.18409198186497" x2="-23.745481973470792" y2="-165.81590801813505" stroke="#808080" stroke-width="6" marker-start="url(#arrowRight)" stroke-linecap="butt"></line><line transform="translate(333.5,394) " class="outer-connector" id="3d4e5a09-f043-46f0-8b94-df885b53678c" x1="0" y1="0" x2="-26.58063642006395" y2="-185.61393567909064" stroke="rgba(255, 255, 255, 0)" stroke-width="30"></line></g><g><line class="connector" id="177b8959-e810-4a03-8aec-e92ec4b4f8d9" transform="translate(223,266) scale(1,1) " x1="37.4412654639555" y1="-36.054551928253446" x2="43.5587345360445" y2="-41.94544807174655" stroke="#808080" stroke-width="3" marker-start="url(#arrowRight)" stroke-linecap="butt"></line><line transform="translate(223,266) " class="outer-connector" id="177b8959-e810-4a03-8aec-e92ec4b4f8d9" x1="0" y1="0" x2="57.96513880587411" y2="-55.81828181306396" stroke="rgba(255, 255, 255, 0)" stroke-width="30"></line></g><g><line class="connector" id="b6766815-0bf7-4f61-8ace-2164c6ba76e7" transform="translate(533.5,394) scale(1,1) " x1="-46.43301638548287" y1="-30.03327017273786" x2="-71.06698361451713" y2="-45.96672982726214" stroke="#808080" stroke-width="3" marker-start="url(#arrowRight)" stroke-linecap="butt"></line><line transform="translate(533.5,394) " class="outer-connector" id="b6766815-0bf7-4f61-8ace-2164c6ba76e7" x1="0" y1="0" x2="-87.86030374077644" y2="-56.82879220680009" stroke="rgba(255, 255, 255, 0)" stroke-width="30"></line></g><g><line class="connector" id="25b1b8e2-fa15-4522-89b7-cfc4e2cfee65" transform="translate(416,318) scale(1,1) " x1="-32.75729075491059" y1="-38.02185534052123" x2="-79.2427092450894" y2="-91.97814465947879" stroke="#808080" stroke-width="3" marker-start="url(#arrowRight)" stroke-linecap="butt"></line><line transform="translate(416,318) " class="outer-connector" id="25b1b8e2-fa15-4522-89b7-cfc4e2cfee65" x1="0" y1="0" x2="-92.2968897576599" y2="-107.13031846871239" stroke="rgba(255, 255, 255, 0)" stroke-width="30"></line></g><g><line class="connector" id="75cb9d67-eb99-4e33-8141-e0c13ff9ba45" transform="translate(169,479) scale(1,1) " x1="-10.280269387666968" y1="-40.457834364366775" x2="-20.719730612333034" y2="-81.54216563563322" stroke="#808080" stroke-width="3" marker-start="url(#arrowRight)" stroke-linecap="butt"></line><line transform="translate(169,479) " class="outer-connector" id="75cb9d67-eb99-4e33-8141-e0c13ff9ba45" x1="0" y1="0" x2="-25.645176676743596" y2="-100.92617917944254" stroke="rgba(255, 255, 255, 0)" stroke-width="30"></line></g><g><line class="connector" id="7176318c-c9fd-4db5-8eea-6db747384f84" transform="translate(333.5,394) scale(1,1) " x1="-50.37551102580104" y1="26.0298993142437" x2="-114.12448897419897" y2="58.97010068575631" stroke="#808080" stroke-width="9" marker-start="url(#arrowRight)" stroke-linecap="butt"></line><line transform="translate(333.5,394) " class="outer-connector" id="7176318c-c9fd-4db5-8eea-6db747384f84" x1="0" y1="0" x2="-131.89264002793055" y2="68.15121217248692" stroke="rgba(255, 255, 255, 0)" stroke-width="30"></line></g><g><line class="connector" id="6a3a5f70-082b-4650-b1ed-34bc0a3346e6" transform="translate(821,258) scale(1,1) " x1="59.85839144253727" y1="3.362830979917824" x2="207.14160855746272" y2="11.637169020082174" stroke="#808080" stroke-width="9" marker-start="url(#arrowRight)" stroke-linecap="butt"></line><line transform="translate(821,258) " class="outer-connector" id="6a3a5f70-082b-4650-b1ed-34bc0a3346e6" x1="0" y1="0" x2="227.11012140043198" y2="12.758995584293931" stroke="rgba(255, 255, 255, 0)" stroke-width="30"></line></g><g><line class="connector" id="a24f2a5b-8fe7-4a1b-9112-94a9ae710885" transform="translate(864,350) scale(1,1) " x1="55.2111963732928" y1="-18.978848753319397" x2="168.7888036267072" y2="-58.02115124668058" stroke="#808080" stroke-width="9" marker-start="url(#arrowRight)" stroke-linecap="butt"></line><line transform="translate(864,350) " class="outer-connector" id="a24f2a5b-8fe7-4a1b-9112-94a9ae710885" x1="0" y1="0" x2="187.70253561280452" y2="-64.52274661690154" stroke="rgba(255, 255, 255, 0)" stroke-width="30"></line></g><g><line class="connector" id="965bf80d-c157-4836-ba6a-44d688aa2d5f" transform="translate(879,434) scale(1,1) " x1="42.74504060917878" y1="-32.92799778984586" x2="166.2549593908212" y2="-128.07200221015415" stroke="#808080" stroke-width="9" marker-start="url(#arrowRight)" stroke-linecap="butt"></line><line transform="translate(879,434) " class="outer-connector" id="965bf80d-c157-4836-ba6a-44d688aa2d5f" x1="0" y1="0" x2="182.09898085926903" y2="-140.27720535092016" stroke="rgba(255, 255, 255, 0)" stroke-width="30"></line></g><g><line class="connector" id="4c2170cf-0691-41a2-ba8d-6b0f8ad60e21" transform="translate(1088,273) scale(1,1) " x1="-16.119606664309266" y1="40.649442892605975" x2="-75.88039333569074" y2="191.35055710739402" stroke="#808080" stroke-width="9" marker-start="url(#arrowRight)" stroke-linecap="butt"></line><line transform="translate(1088,273) " class="outer-connector" id="4c2170cf-0691-41a2-ba8d-6b0f8ad60e21" x1="0" y1="0" x2="-83.25290774135321" y2="209.94211517384718" stroke="rgba(255, 255, 255, 0)" stroke-width="30"></line></g><g><line class="connector" id="841c9096-7c34-487f-b268-a289d324af28" transform="translate(1088,273) scale(1,1) " x1="-30.202384399475743" y1="38.83163708504024" x2="-172.79761560052427" y2="222.16836291495977" stroke="#808080" stroke-width="9" marker-start="url(#arrowRight)" stroke-linecap="butt"></line><line transform="translate(1088,273) " class="outer-connector" id="841c9096-7c34-487f-b268-a289d324af28" x1="0" y1="0" x2="-185.07642787082267" y2="237.9554072624863" stroke="rgba(255, 255, 255, 0)" stroke-width="30"></line></g><g><line class="connector" id="ee1b8a33-41e3-475f-912a-fa4ffdc50ddf" transform="translate(533.5,394) scale(1,1) " x1="3.1772403730951484" y1="-40.06085687815623" x2="8.322759626904848" y2="-104.93914312184376" stroke="#808080" stroke-width="3" marker-start="url(#arrowRight)" stroke-linecap="butt"></line><line transform="translate(533.5,394) " class="outer-connector" id="ee1b8a33-41e3-475f-912a-fa4ffdc50ddf" x1="0" y1="0" x2="9.904001211139514" y2="-124.87653701001999" stroke="rgba(255, 255, 255, 0)" stroke-width="30"></line></g><g><line class="connector" id="45c9b930-9761-47b6-acb4-77be920ce4bd" transform="translate(545,249) scale(1,1) " x1="56.30454966473272" y1="16.7925849877273" x2="57.69545033526728" y2="17.207415012272698" stroke="#808080" stroke-width="3" marker-start="url(#arrowRight)" stroke-linecap="butt"></line><line transform="translate(545,249) " class="outer-connector" id="45c9b930-9761-47b6-acb4-77be920ce4bd" x1="0" y1="0" x2="76.86120555073126" y2="22.923517444954932" stroke="rgba(255, 255, 255, 0)" stroke-width="30"></line></g><g><line class="connector" id="022043f6-b740-4718-88fd-2eca11831f8b" transform="translate(545,249) scale(1,1) " x1="-49.830530266569724" y1="26.653539444909384" x2="-79.16946973343026" y2="42.34646055509061" stroke="#808080" stroke-width="3" marker-start="url(#arrowRight)" stroke-linecap="butt"></line><line transform="translate(545,249) " class="outer-connector" id="022043f6-b740-4718-88fd-2eca11831f8b" x1="0" y1="0" x2="-96.8051625721241" y2="51.779505561833815" stroke="rgba(255, 255, 255, 0)" stroke-width="30"></line></g><g><line class="connector" id="9f5d5b22-b135-48b8-98f0-cc6b5b71677c" transform="translate(537,130) scale(1,1) " x1="2.6920426500809413" y1="40.04413441995401" x2="5.307957349919057" y2="78.955865580046" stroke="#808080" stroke-width="9" marker-start="url(#arrowRight)" stroke-linecap="butt"></line><line transform="translate(537,130) " class="outer-connector" id="9f5d5b22-b135-48b8-98f0-cc6b5b71677c" x1="0" y1="0" x2="6.6494671360000766" y2="98.91082364800116" stroke="rgba(255, 255, 255, 0)" stroke-width="30"></line></g><g><line class="connector" id="cd93c536-c87f-4250-917b-d9ebcea64bc3" transform="translate(545,249) scale(1,1) " x1="35.29744028230493" y1="-37.037454944108696" x2="106.70255971769508" y2="-111.9625450558913" stroke="#808080" stroke-width="3" marker-start="url(#arrowRight)" stroke-linecap="butt"></line><line transform="translate(545,249) " class="outer-connector" id="cd93c536-c87f-4250-917b-d9ebcea64bc3" x1="0" y1="0" x2="120.50051504970968" y2="-126.4406812845545" stroke="rgba(255, 255, 255, 0)" stroke-width="30"></line></g><g><line class="connector" id="19ba4432-4aba-423c-9aaf-79be273eabe2" transform="translate(333.5,394) scale(1,1) " x1="-47.739329643438644" y1="-28.82760376755824" x2="-185.76067035656135" y2="-112.17239623244176" stroke="#808080" stroke-width="3" marker-start="url(#arrowRight)" stroke-linecap="butt"></line><line transform="translate(333.5,394) " class="outer-connector" id="19ba4432-4aba-423c-9aaf-79be273eabe2" x1="0" y1="0" x2="-202.8813470998757" y2="-122.51079203889712" stroke="rgba(255, 255, 255, 0)" stroke-width="30"></line></g><g><line class="connector" id="74fa1039-de1e-4234-aa5f-7c02afc347dd" transform="translate(333.5,394) scale(1,1) " x1="-22.393829726238376" y1="40.330119886116506" x2="-83.10617027376163" y2="149.6698801138835" stroke="#808080" stroke-width="6" marker-start="url(#arrowRight)" stroke-linecap="butt"></line><line transform="translate(333.5,394) " class="outer-connector" id="74fa1039-de1e-4234-aa5f-7c02afc347dd" x1="0" y1="0" x2="-92.81512180675965" y2="167.15519567094154" stroke="rgba(255, 255, 255, 0)" stroke-width="30"></line></g><g><line class="connector" id="43f14f73-c5bf-481f-a7db-9b4502b23211" transform="translate(333.5,394) scale(1,1) " x1="16.045824477999727" y1="-40.64942201093264" x2="51.454175522000284" y2="-130.35057798906738" stroke="#808080" stroke-width="3" marker-start="url(#arrowRight)" stroke-linecap="butt"></line><line transform="translate(333.5,394) " class="outer-connector" id="43f14f73-c5bf-481f-a7db-9b4502b23211" x1="0" y1="0" x2="58.79750621672125" y2="-148.95368241569383" stroke="rgba(255, 255, 255, 0)" stroke-width="30"></line></g><g transform="translate(533.5,394) scale(0.45)"><rect id="66047e34-0270-4dea-9632-5daec2ee240b" class="node" x="-100" y="-60" width="200" height="120" transform="translate(0,0)" fill="#F0EEC0" stroke="#F3F033" stroke-width="5"></rect><text id="66047e34-0270-4dea-9632-5daec2ee240b" class="noselect node" x="0" fill="black" alignment-baseline="center" text-anchor="middle" font-size="20px" y="-20">social  <tspan dy="1.1em" x="0">assistance</tspan>  <tspan dy="1.1em" x="0">robot</tspan></text></g><g transform="translate(333.5,394) scale(0.45)"><polygon id="e4ec1deb-4600-4f61-bddc-233bff8d5bca" class="node" points="-100,0 -60,-60 60,-60 100,0 60,60 -60,60" transform="translate(0,0)" fill="#EB8989" stroke="#E04848" stroke-width="9"></polygon><text id="e4ec1deb-4600-4f61-bddc-233bff8d5bca" class="noselect node" x="0" fill="black" alignment-baseline="center" text-anchor="middle" font-size="20px" y="0">disadvantages</text></g><g transform="translate(733.5,394) scale(0.45)"><ellipse id="9ecb6d1c-242f-43c9-860b-9a7fbc4e2802" class="node" null="cy" rx="100" ry="70" transform="translate(0,0)" fill="#B9F1B9" stroke="#22AA22" stroke-width="9" opacity="1"></ellipse><text id="9ecb6d1c-242f-43c9-860b-9a7fbc4e2802" class="noselect node" x="0" fill="black" alignment-baseline="center" text-anchor="middle" font-size="20px" y="0">advantages</text></g><g transform="translate(821,258) scale(0.45)"><ellipse id="db299313-c976-4686-91a6-27187dc6fcae" class="node" null="cy" rx="100" ry="70" transform="translate(0,0)" fill="#B9F1B9" stroke="#22AA22" stroke-width="9" opacity="1"></ellipse><text id="db299313-c976-4686-91a6-27187dc6fcae" class="noselect node" x="0" fill="black" alignment-baseline="center" text-anchor="middle" font-size="20px" y="0">learning</text></g><g transform="translate(765,182) scale(0.45)"><g><polygon id="a380a051-6403-47e5-94f4-4331e697c725" class="node" points="-100,0 -60,-60 60,-60 100,0 60,60 -60,60" transform="translate(0,0)" fill="rgb(247, 151, 226)" stroke="rgb(142, 19, 146)" stroke-width="5"></polygon><ellipse id="a380a051-6403-47e5-94f4-4331e697c725" class="node" null="cy" rx="90" ry="55" transform="translate(0,0)" fill="rgb(247, 151, 226)" stroke="rgb(142, 19, 146)" stroke-width="3"></ellipse></g><text id="a380a051-6403-47e5-94f4-4331e697c725" class="noselect node" x="0" fill="black" alignment-baseline="center" text-anchor="middle" font-size="20px" y="0">Social interactions</text></g><g transform="translate(889,170) scale(0.45)"><ellipse id="8b9e54f7-0d34-44d2-9533-3c06535e6311" class="node" null="cy" rx="100" ry="70" transform="translate(0,0)" fill="#B9F1B9" stroke="#22AA22" stroke-width="3" opacity="1"></ellipse><text id="8b9e54f7-0d34-44d2-9533-3c06535e6311" class="noselect node" x="0" fill="black" alignment-baseline="center" text-anchor="middle" font-size="20px" y="0">Emotion recognition</text></g><g transform="translate(864,350) scale(0.45)"><ellipse id="2902aaa5-9159-4526-9a35-0bd02eaa8943" class="node" null="cy" rx="100" ry="70" transform="translate(0,0)" fill="#B9F1B9" stroke="#22AA22" stroke-width="9" opacity="1"></ellipse><text id="2902aaa5-9159-4526-9a35-0bd02eaa8943" class="noselect node" x="0" fill="black" alignment-baseline="center" text-anchor="middle" font-size="20px" y="-20"> <tspan dy="1.1em" x="0">Non-judgmental</tspan>  <tspan dy="1.1em" x="0">feedback</tspan></text></g><g transform="translate(879,434) scale(0.45)"><ellipse id="582bf812-06aa-47a6-a529-80ecedc10e57" class="node" null="cy" rx="100" ry="70" transform="translate(0,0)" fill="#B9F1B9" stroke="#22AA22" stroke-width="9" opacity="1"></ellipse><text id="582bf812-06aa-47a6-a529-80ecedc10e57" class="noselect node" x="0" fill="black" alignment-baseline="center" text-anchor="middle" font-size="20px" y="0">(Pre-)judgment-free</text></g><g transform="translate(885,534) scale(0.45)"><ellipse id="dd399071-4c30-47fe-b81d-6b919489152a" class="node" null="cy" rx="100" ry="70" transform="translate(0,0)" fill="#B9F1B9" stroke="#22AA22" stroke-width="9" opacity="1"></ellipse><text id="dd399071-4c30-47fe-b81d-6b919489152a" class="noselect node" x="0" fill="black" alignment-baseline="center" text-anchor="middle" font-size="20px" y="0">Fear-relieving</text></g><g transform="translate(996,505) scale(0.45)"><ellipse id="10fee48b-0593-4f13-ad2c-99895f4291f1" class="node" null="cy" rx="100" ry="70" transform="translate(0,0)" fill="#B9F1B9" stroke="#22AA22" stroke-width="6" opacity="1"></ellipse><text id="10fee48b-0593-4f13-ad2c-99895f4291f1" class="noselect node" x="0" fill="black" alignment-baseline="center" text-anchor="middle" font-size="20px" y="0">Possible to try out</text></g><g transform="translate(841,617) scale(0.45)"><ellipse id="6cf1a182-8fa6-4e89-a623-ae9b7df184f1" class="node" null="cy" rx="100" ry="70" transform="translate(0,0)" fill="#B9F1B9" stroke="#22AA22" stroke-width="6" opacity="1"></ellipse><text id="6cf1a182-8fa6-4e89-a623-ae9b7df184f1" class="noselect node" x="0" fill="black" alignment-baseline="center" text-anchor="middle" font-size="20px" y="0">supportive</text></g><g transform="translate(223,266) scale(0.45)"><polygon id="3b4a861e-d089-42b9-a96b-8a1e7f4eb3bd" class="node" points="-100,0 -60,-60 60,-60 100,0 60,60 -60,60" transform="translate(0,0)" fill="#EB8989" stroke="#E04848" stroke-width="6"></polygon><text id="3b4a861e-d089-42b9-a96b-8a1e7f4eb3bd" class="noselect node" x="0" fill="black" alignment-baseline="center" text-anchor="middle" font-size="20px" y="-20">Not  <tspan dy="1.1em" x="0">empathetic</tspan>  <tspan dy="1.1em" x="0">(enough)</tspan></text></g><g transform="translate(659,283) scale(0.45)"><g><polygon id="56649ea3-8d46-45ef-9b86-a4166a571662" class="node" points="-100,0 -60,-60 60,-60 100,0 60,60 -60,60" transform="translate(0,0)" fill="rgb(247, 151, 226)" stroke="rgb(142, 19, 146)" stroke-width="5"></polygon><ellipse id="56649ea3-8d46-45ef-9b86-a4166a571662" class="node" null="cy" rx="90" ry="55" transform="translate(0,0)" fill="rgb(247, 151, 226)" stroke="rgb(142, 19, 146)" stroke-width="3"></ellipse></g><text id="56649ea3-8d46-45ef-9b86-a4166a571662" class="noselect node" x="0" fill="black" alignment-baseline="center" text-anchor="middle" font-size="20px" y="0">no "real" contact</text></g><g transform="translate(138,357) scale(0.45)"><polygon id="3b1ac64d-9bb7-45e3-8fe8-eca6bfb99d98" class="node" points="-100,0 -60,-60 60,-60 100,0 60,60 -60,60" transform="translate(0,0)" fill="#EB8989" stroke="#E04848" stroke-width="6"></polygon><text id="3b1ac64d-9bb7-45e3-8fe8-eca6bfb99d98" class="noselect node" x="0" fill="black" alignment-baseline="center" text-anchor="middle" font-size="20px" y="-20"> <tspan dy="1.1em" x="0">Unforeseen</tspan>  <tspan dy="1.1em" x="0">reactions</tspan></text></g><g transform="translate(536,528) scale(0.45)"><g><polygon id="047fded6-2d37-4013-8629-c0b97aa66aa7" class="node" points="-100,0 -60,-60 60,-60 100,0 60,60 -60,60" transform="translate(0,0)" fill="rgb(247, 151, 226)" stroke="rgb(142, 19, 146)" stroke-width="5"></polygon><ellipse id="047fded6-2d37-4013-8629-c0b97aa66aa7" class="node" null="cy" rx="90" ry="55" transform="translate(0,0)" fill="rgb(247, 151, 226)" stroke="rgb(142, 19, 146)" stroke-width="3"></ellipse></g><text id="047fded6-2d37-4013-8629-c0b97aa66aa7" class="noselect node" x="0" fill="black" alignment-baseline="center" text-anchor="middle" font-size="20px" y="0">jobs</text></g><g transform="translate(530,639) scale(0.45)"><g><polygon id="8145d115-9d1e-42d9-a6aa-9ded781d536f" class="node" points="-100,0 -60,-60 60,-60 100,0 60,60 -60,60" transform="translate(0,0)" fill="rgb(247, 151, 226)" stroke="rgb(142, 19, 146)" stroke-width="5"></polygon><ellipse id="8145d115-9d1e-42d9-a6aa-9ded781d536f" class="node" null="cy" rx="90" ry="55" transform="translate(0,0)" fill="rgb(247, 151, 226)" stroke="rgb(142, 19, 146)" stroke-width="3"></ellipse></g><text id="8145d115-9d1e-42d9-a6aa-9ded781d536f" class="noselect node" x="0" fill="black" alignment-baseline="center" text-anchor="middle" font-size="20px" y="0">replaces human care</text></g><g transform="translate(381,552) scale(0.45)"><polygon id="eef9b5f2-6291-4fe0-8d7a-b1c0dd49c8ea" class="node" points="-100,0 -60,-60 60,-60 100,0 60,60 -60,60" transform="translate(0,0)" fill="#EB8989" stroke="#E04848" stroke-width="9"></polygon><text id="eef9b5f2-6291-4fe0-8d7a-b1c0dd49c8ea" class="noselect node" x="0" fill="black" alignment-baseline="center" text-anchor="middle" font-size="20px" y="-20">Loss of  <tspan dy="1.1em" x="0">therapist</tspan>  <tspan dy="1.1em" x="0">jobs</tspan></text></g><g transform="translate(678,579) scale(0.45)"><ellipse id="8716b662-bf36-4fc6-b4c2-84f9e97a4372" class="node" null="cy" rx="100" ry="70" transform="translate(0,0)" fill="#B9F1B9" stroke="#22AA22" stroke-width="6" opacity="1"></ellipse><text id="8716b662-bf36-4fc6-b4c2-84f9e97a4372" class="noselect node" x="0" fill="black" alignment-baseline="center" text-anchor="middle" font-size="20px" y="-20">creates  <tspan dy="1.1em" x="0">jobs</tspan>  <tspan dy="1.1em" x="0">development</tspan></text></g><g transform="translate(304,188) scale(0.45)"><polygon id="85bb2f1b-af55-416a-9f9a-aae837245409" class="node" points="-100,0 -60,-60 60,-60 100,0 60,60 -60,60" transform="translate(0,0)" fill="#EB8989" stroke="#E04848" stroke-width="6"></polygon><text id="85bb2f1b-af55-416a-9f9a-aae837245409" class="noselect node" x="0" fill="black" alignment-baseline="center" text-anchor="middle" font-size="20px" y="-20"> <tspan dy="1.1em" x="0">unrealistic</tspan>  <tspan dy="1.1em" x="0">learned</tspan>  <tspan dy="1.1em" x="0">handling</tspan></text></g><g transform="translate(416,318) scale(0.45)"><g><polygon id="8db239ab-a899-4bbc-99ed-e08412740596" class="node" points="-100,0 -60,-60 60,-60 100,0 60,60 -60,60" transform="translate(0,0)" fill="rgb(247, 151, 226)" stroke="rgb(142, 19, 146)" stroke-width="5"></polygon><ellipse id="8db239ab-a899-4bbc-99ed-e08412740596" class="node" null="cy" rx="90" ry="55" transform="translate(0,0)" fill="rgb(247, 151, 226)" stroke="rgb(142, 19, 146)" stroke-width="3"></ellipse></g><text id="8db239ab-a899-4bbc-99ed-e08412740596" class="noselect node" x="0" fill="black" alignment-baseline="center" text-anchor="middle" font-size="20px" y="-20"> <tspan dy="1.1em" x="0">integration</tspan> into  <tspan dy="1.1em" x="0">society</tspan></text></g><g transform="translate(169,479) scale(0.45)"><polygon id="d7098d17-a203-49e7-9b73-0916b81785e0" class="node" points="-100,0 -60,-60 60,-60 100,0 60,60 -60,60" transform="translate(0,0)" fill="#EB8989" stroke="#E04848" stroke-width="9"></polygon><text id="d7098d17-a203-49e7-9b73-0916b81785e0" class="noselect node" x="0" fill="black" alignment-baseline="center" text-anchor="middle" font-size="20px" y="0">unresearched</text></g><g transform="translate(1088,273) scale(0.45)"><ellipse id="b56b7ad1-3674-4176-bbf7-cf4d381576fb" class="node" null="cy" rx="100" ry="70" transform="translate(0,0)" fill="#B9F1B9" stroke="#22AA22" stroke-width="9" opacity="1"></ellipse><text id="b56b7ad1-3674-4176-bbf7-cf4d381576fb" class="noselect node" x="0" fill="black" alignment-baseline="center" text-anchor="middle" font-size="20px" y="0">infinite patience</text></g><g transform="translate(545,249) scale(0.45)"><ellipse id="762835cb-c457-47cc-85a0-2ab20640be2a" class="node" null="cy" rx="100" ry="70" transform="translate(0,0)" fill="#B9F1B9" stroke="#22AA22" stroke-width="6" opacity="1"></ellipse><text id="762835cb-c457-47cc-85a0-2ab20640be2a" class="noselect node" x="0" fill="black" alignment-baseline="center" text-anchor="middle" font-size="20px" y="0">soft robots</text></g><g transform="translate(537,130) scale(0.45)"><ellipse id="b5755cad-07c4-4634-98fe-7169eecb072e" class="node" null="cy" rx="100" ry="70" transform="translate(0,0)" fill="#B9F1B9" stroke="#22AA22" stroke-width="9" opacity="1"></ellipse><text id="b5755cad-07c4-4634-98fe-7169eecb072e" class="noselect node" x="0" fill="black" alignment-baseline="center" text-anchor="middle" font-size="20px" y="0">low risk of injury</text></g><g transform="translate(687,100) scale(0.45)"><ellipse id="ef2855c5-90bc-4475-9491-3a57ebcd72d6" class="node" null="cy" rx="100" ry="70" transform="translate(0,0)" fill="#B9F1B9" stroke="#22AA22" stroke-width="9" opacity="1"></ellipse><text id="ef2855c5-90bc-4475-9491-3a57ebcd72d6" class="noselect node" x="0" fill="black" alignment-baseline="center" text-anchor="middle" font-size="20px" y="0">animal protection</text></g><g transform="translate(100,253) scale(0.45)"><polygon id="8f402034-ef29-485f-bdcd-0e439e58ac99" class="node" points="-100,0 -60,-60 60,-60 100,0 60,60 -60,60" transform="translate(0,0)" fill="#EB8989" stroke="#E04848" stroke-width="3"></polygon><text id="8f402034-ef29-485f-bdcd-0e439e58ac99" class="noselect node" x="0" fill="black" alignment-baseline="center" text-anchor="middle" font-size="20px" y="0">risk of dependency</text></g><g transform="translate(228,584) scale(0.45)"><polygon id="111126d7-1c66-494b-b8a8-e7a5a2140276" class="node" points="-100,0 -60,-60 60,-60 100,0 60,60 -60,60" transform="translate(0,0)" fill="#EB8989" stroke="#E04848" stroke-width="6"></polygon><text id="111126d7-1c66-494b-b8a8-e7a5a2140276" class="noselect node" x="0" fill="black" alignment-baseline="center" text-anchor="middle" font-size="20px" y="-20">risk of  <tspan dy="1.1em" x="0">manipulation</tspan></text></g><g transform="translate(401,223) scale(0.45)"><polygon id="ac376f72-c986-442a-8e15-9b518da48456" class="node" points="-100,0 -60,-60 60,-60 100,0 60,60 -60,60" transform="translate(0,0)" fill="#EB8989" stroke="#E04848" stroke-width="3"></polygon><text id="ac376f72-c986-442a-8e15-9b518da48456" class="noselect node" x="0" fill="black" alignment-baseline="center" text-anchor="middle" font-size="20px" y="0">uncanny valley</text></g></svg>