<?xml version="1.0" standalone="no"?>
<svg id="CAMSVG" xmlns="http://www.w3.org/2000/svg" height="1400px" width="2400px"><rect id="background" x="0" y="0" width="100%" height="100%" fill="white"></rect><marker id="arrowRight" markerWidth="30" markerHeight="15" refX="30" refY="7.5" orient="auto" markerUnits="userSpaceOnUse"><polygon points="0 0, 0 0, 0 0" fill="#8c8c8c"></polygon></marker><marker id="arrowLeft" markerWidth="30" markerHeight="15" refX="0" refY="7.5" orient="auto" markerUnits="userSpaceOnUse"><polygon points="0 0, 0 0, 0 0" fill="#8c8c8c"></polygon></marker><g><line class="connector" id="283f79eb-dc64-4ae7-83ae-aeea82636a9e" transform="translate(628,366) scale(1,1) " x1="60" y1="0" x2="140" y2="0" stroke="#808080" stroke-width="3" marker-start="url(#arrowRight)" stroke-linecap="butt"></line><line transform="translate(628,366) " class="outer-connector" id="283f79eb-dc64-4ae7-83ae-aeea82636a9e" x1="0" y1="0" x2="160" y2="0" stroke="rgba(255, 255, 255, 0)" stroke-width="30"></line></g><g><line class="connector" id="05e5189a-aa20-40d7-bab1-e1541c804b4a" transform="translate(1028,366) scale(1,1) " x1="-60" y1="0" x2="-140" y2="0" stroke="#808080" stroke-width="3" marker-start="url(#arrowRight)" stroke-linecap="butt"></line><line transform="translate(1028,366) " class="outer-connector" id="05e5189a-aa20-40d7-bab1-e1541c804b4a" x1="0" y1="0" x2="-160" y2="0" stroke="rgba(255, 255, 255, 0)" stroke-width="30"></line></g><g><line class="connector" id="2544efd8-f713-4698-a330-96bbac5ef5dd" transform="translate(628,366) scale(1,1) " x1="-0.5333570149235939" y1="40.00177611926968" x2="-1.4666429850763993" y2="109.99822388073032" stroke="#808080" stroke-width="3" marker-start="url(#arrowRight)" stroke-linecap="butt"></line><line transform="translate(628,366) " class="outer-connector" id="2544efd8-f713-4698-a330-96bbac5ef5dd" x1="0" y1="0" x2="-1.733285951199387" y2="129.99644633995447" stroke="rgba(255, 255, 255, 0)" stroke-width="30"></line></g><g><line class="connector" id="747f7b80-4142-4f9b-a1e1-7727b0ad1b4f" transform="translate(1028,366) scale(1,1) " x1="26.814617634729867" y1="39.651402672632464" x2="67.18538236527014" y2="99.34859732736756" stroke="#808080" stroke-width="3" marker-start="url(#arrowRight)" stroke-linecap="butt"></line><line transform="translate(1028,366) " class="outer-connector" id="747f7b80-4142-4f9b-a1e1-7727b0ad1b4f" x1="0" y1="0" x2="78.38916459717879" y2="115.91589232987077" stroke="rgba(255, 255, 255, 0)" stroke-width="30"></line></g><g><line class="connector" id="dd829347-4c7f-48fa-9f40-d7f772843a26" transform="translate(628,366) scale(1,1) " x1="0.27027335424464904" y1="-40.000456428207464" x2="0.7297266457553658" y2="-107.99954357179254" stroke="#808080" stroke-width="3" marker-start="url(#arrowRight)" stroke-linecap="butt"></line><line transform="translate(628,366) " class="outer-connector" id="dd829347-4c7f-48fa-9f40-d7f772843a26" x1="0" y1="0" x2="0.8648586962824807" y2="-127.99908704980524" stroke="rgba(255, 255, 255, 0)" stroke-width="30"></line></g><g><line class="connector" id="6d3a79e9-be2a-43c0-a1fa-947defa2e3b8" transform="translate(628,366) scale(1,1) " x1="-49.897331791253066" y1="-26.578478240566955" x2="-149.10266820874693" y2="-79.42152175943303" stroke="#808080" stroke-width="3" marker-start="url(#arrowRight)" stroke-linecap="butt"></line><line transform="translate(628,366) " class="outer-connector" id="6d3a79e9-be2a-43c0-a1fa-947defa2e3b8" x1="0" y1="0" x2="-166.75463554229185" y2="-88.82407722353233" stroke="rgba(255, 255, 255, 0)" stroke-width="30"></line></g><g><line class="connector" id="83d14879-f192-4018-b824-9e06f68020ea" transform="translate(429,260) scale(1,1) " x1="-60" y1="0" x2="-107" y2="0" stroke="#808080" stroke-width="3" marker-start="url(#arrowRight)" stroke-linecap="butt"></line><line transform="translate(429,260) " class="outer-connector" id="83d14879-f192-4018-b824-9e06f68020ea" x1="0" y1="0" x2="-127" y2="0" stroke="rgba(255, 255, 255, 0)" stroke-width="30"></line></g><g><line class="connector" id="30f0c018-6782-4acc-a283-fd854410faf4" transform="translate(1028,366) scale(1,1) " x1="59.980476693943444" y1="-1.2495932644571555" x2="132.01952330605653" y2="-2.750406735542845" stroke="#808080" stroke-width="3" marker-start="url(#arrowRight)" stroke-linecap="butt"></line><line transform="translate(1028,366) " class="outer-connector" id="30f0c018-6782-4acc-a283-fd854410faf4" x1="0" y1="0" x2="152.01518444061878" y2="-3.1669830091795586" stroke="rgba(255, 255, 255, 0)" stroke-width="30"></line></g><g><line class="connector" id="267606cc-f293-4b3b-9dbf-a059615a15db" transform="translate(628,366) scale(1,1) " x1="-58.30874506851958" y1="11.508304947734127" x2="-169.69125493148044" y2="33.491695052265875" stroke="#808080" stroke-width="3" marker-start="url(#arrowRight)" stroke-linecap="butt"></line><line transform="translate(628,366) " class="outer-connector" id="267606cc-f293-4b3b-9dbf-a059615a15db" x1="0" y1="0" x2="-189.31273549700867" y2="37.36435569019908" stroke="rgba(255, 255, 255, 0)" stroke-width="30"></line></g><g><line class="connector" id="dc2f3642-57e5-4b32-9e32-db498648c0d5" transform="translate(400,411) scale(1,1) " x1="-59.99132101398519" y1="0.8332127918609055" x2="-84.0086789860148" y2="1.1667872081390944" stroke="#808080" stroke-width="3" marker-start="url(#arrowRight)" stroke-linecap="butt"></line><line transform="translate(400,411) " class="outer-connector" id="dc2f3642-57e5-4b32-9e32-db498648c0d5" x1="0" y1="0" x2="-104.00675025270591" y2="1.4445381979542486" stroke="rgba(255, 255, 255, 0)" stroke-width="30"></line></g><g><line class="connector" id="c4accf7f-f1fb-4b60-af40-725c38cad7e6" transform="translate(400,411) scale(1,1) " x1="-0.39604930486793133" y1="40.00097979166069" x2="-0.603950695132078" y2="60.99902020833932" stroke="#808080" stroke-width="3" marker-start="url(#arrowRight)" stroke-linecap="butt"></line><line transform="translate(400,411) " class="outer-connector" id="c4accf7f-f1fb-4b60-af40-725c38cad7e6" x1="0" y1="0" x2="-0.8019607919243396" y2="80.99803998435755" stroke="rgba(255, 255, 255, 0)" stroke-width="30"></line></g><g><line class="connector" id="58c1ba0e-5dd4-4231-88df-153e419df25a" transform="translate(626,516) scale(1,1) " x1="-36.188517515749474" y1="36.646600015948835" x2="-42.81148248425053" y2="43.353399984051165" stroke="#808080" stroke-width="3" marker-start="url(#arrowRight)" stroke-linecap="butt"></line><line transform="translate(626,516) " class="outer-connector" id="58c1ba0e-5dd4-4231-88df-153e419df25a" x1="0" y1="0" x2="-56.86439592723655" y2="57.58419840732815" stroke="rgba(255, 255, 255, 0)" stroke-width="30"></line></g><g><line class="connector" id="5d986bb7-ffd2-49da-b98f-d3064eca1a52" transform="translate(629,218) scale(1,1) " x1="0.6780147187840844" y1="-40.00286840826111" x2="1.321985281215909" y2="-77.99713159173889" stroke="#808080" stroke-width="3" marker-start="url(#arrowRight)" stroke-linecap="butt"></line><line transform="translate(629,218) " class="outer-connector" id="5d986bb7-ffd2-49da-b98f-d3064eca1a52" x1="0" y1="0" x2="1.6609196520816616" y2="-97.99425947281836" stroke="rgba(255, 255, 255, 0)" stroke-width="30"></line></g><g><line class="connector" id="eec75675-e309-4f00-8d62-82576c8cf05a" transform="translate(1097,213) scale(1,1) " x1="-18.31576301548931" y1="40.61321364304151" x2="-50.6842369845107" y2="112.38678635695848" stroke="#808080" stroke-width="3" marker-start="url(#arrowRight)" stroke-linecap="butt"></line><line transform="translate(1097,213) " class="outer-connector" id="eec75675-e309-4f00-8d62-82576c8cf05a" x1="0" y1="0" x2="-58.90639204664706" y2="130.61852149473913" stroke="rgba(255, 255, 255, 0)" stroke-width="30"></line></g><g><line class="connector" id="fc04daef-d96f-4bce-b0f7-4f61a5adf51c" transform="translate(1293,210) scale(1,1) " x1="-19.480774102002158" y1="40.56270771923736" x2="-53.51922589799785" y2="111.43729228076262" stroke="#808080" stroke-width="3" marker-start="url(#arrowRight)" stroke-linecap="butt"></line><line transform="translate(1293,210) " class="outer-connector" id="fc04daef-d96f-4bce-b0f7-4f61a5adf51c" x1="0" y1="0" x2="-62.17770301002413" y2="129.46590215785844" stroke="rgba(255, 255, 255, 0)" stroke-width="30"></line></g><g><line class="connector" id="2bd745b7-8231-4053-bb63-8d434ce518e9" transform="translate(1097,213) scale(1,1) " x1="59.98945983267379" y1="-0.9182060178470478" x2="136.0105401673262" y2="-2.081793982152952" stroke="#808080" stroke-width="3" marker-start="url(#arrowRight)" stroke-linecap="butt"></line><line transform="translate(1097,213) " class="outer-connector" id="2bd745b7-8231-4053-bb63-8d434ce518e9" x1="0" y1="0" x2="156.00819780504582" y2="-2.3878805786486605" stroke="rgba(255, 255, 255, 0)" stroke-width="30"></line></g><g><line class="connector" id="982d20a3-24f9-476b-9223-36a97e16d080" transform="translate(1301,499) scale(1,1) " x1="-59.9494929793325" y1="2.009480211597737" x2="-119.05050702066751" y2="3.990519788402263" stroke="#808080" stroke-width="3" marker-start="url(#arrowRight)" stroke-linecap="butt"></line><line transform="translate(1301,499) " class="outer-connector" id="982d20a3-24f9-476b-9223-36a97e16d080" x1="0" y1="0" x2="-139.03928087533995" y2="4.660534554480669" stroke="rgba(255, 255, 255, 0)" stroke-width="30"></line></g><g><line class="connector" id="bd61e24a-24e9-46dd-baf1-ad16552cf141" transform="translate(1028,366) scale(1,1) " x1="-24.128284397312612" y1="40.11327281053221" x2="-55.87171560268741" y2="92.8867271894678" stroke="#808080" stroke-width="3" marker-start="url(#arrowRight)" stroke-linecap="butt"></line><line transform="translate(1028,366) " class="outer-connector" id="bd61e24a-24e9-46dd-baf1-ad16552cf141" x1="0" y1="0" x2="-66.18057453777254" y2="110.02520516904683" stroke="rgba(255, 255, 255, 0)" stroke-width="30"></line></g><g><line class="connector" id="2ac7b148-bee9-4451-8c7e-bcef394cffcb" transform="translate(948,499) scale(1,1) " x1="20.112665145226664" y1="40.52551932247163" x2="46.88733485477334" y2="94.47448067752836" stroke="#808080" stroke-width="3" marker-start="url(#arrowRight)" stroke-linecap="butt"></line><line transform="translate(948,499) " class="outer-connector" id="2ac7b148-bee9-4451-8c7e-bcef394cffcb" x1="0" y1="0" x2="55.77848588818584" y2="112.38948649112072" stroke="rgba(255, 255, 255, 0)" stroke-width="30"></line></g><g transform="translate(828,366) scale(0.45)"><rect id="1e9266fd-524c-4de0-8878-ec3a607b33e6" class="node" x="-100" y="-60" width="200" height="120" transform="translate(0,0)" fill="#F0EEC0" stroke="#F3F033" stroke-width="5"></rect><text id="1e9266fd-524c-4de0-8878-ec3a607b33e6" class="noselect node" x="0" fill="black" alignment-baseline="center" text-anchor="middle" font-size="20px" y="0">rescue robot</text></g><g transform="translate(628,366) scale(0.45)"><polygon id="3c00cc19-d65c-40e1-b2b5-30f6812e9cd4" class="node" points="-100,0 -60,-60 60,-60 100,0 60,60 -60,60" transform="translate(0,0)" fill="#EB8989" stroke="#E04848" stroke-width="6"></polygon><text id="3c00cc19-d65c-40e1-b2b5-30f6812e9cd4" class="noselect node" x="0" fill="black" alignment-baseline="center" text-anchor="middle" font-size="20px" y="0">risks</text></g><g transform="translate(1028,366) scale(0.45)"><ellipse id="60697f34-bbfb-45b3-a194-8cc3189b886b" class="node" null="cy" rx="100" ry="70" transform="translate(0,0)" fill="#B9F1B9" stroke="#22AA22" stroke-width="6" opacity="1"></ellipse><text id="60697f34-bbfb-45b3-a194-8cc3189b886b" class="noselect node" x="0" fill="black" alignment-baseline="center" text-anchor="middle" font-size="20px" y="0">benefits</text></g><g transform="translate(626,516) scale(0.45)"><polygon id="ffaa1e8c-8a5d-4b4a-9869-9088b36a619f" class="node" points="-100,0 -60,-60 60,-60 100,0 60,60 -60,60" transform="translate(0,0)" fill="#EB8989" stroke="#E04848" stroke-width="6"></polygon><text id="ffaa1e8c-8a5d-4b4a-9869-9088b36a619f" class="noselect node" x="0" fill="black" alignment-baseline="center" text-anchor="middle" font-size="20px" y="0">black box</text></g><g transform="translate(1122,505) scale(0.45)"><ellipse id="c1c98761-507c-4ae8-81b7-09742034e404" class="node" null="cy" rx="100" ry="70" transform="translate(0,0)" fill="#B9F1B9" stroke="#22AA22" stroke-width="6" opacity="1"></ellipse><text id="c1c98761-507c-4ae8-81b7-09742034e404" class="noselect node" x="0" fill="black" alignment-baseline="center" text-anchor="middle" font-size="20px" y="-20">relief  <tspan dy="1.1em" x="0">for</tspan> rescue  <tspan dy="1.1em" x="0">workers</tspan></text></g><g transform="translate(629,218) scale(0.45)"><polygon id="78faa1c9-fc30-42ff-b761-9e54b5db83d0" class="node" points="-100,0 -60,-60 60,-60 100,0 60,60 -60,60" transform="translate(0,0)" fill="#EB8989" stroke="#E04848" stroke-width="3"></polygon><text id="78faa1c9-fc30-42ff-b761-9e54b5db83d0" class="noselect node" x="0" fill="black" alignment-baseline="center" text-anchor="middle" font-size="20px" y="0">bias of algorithms</text></g><g transform="translate(429,260) scale(0.45)"><polygon id="b6587c62-51b7-4b23-a295-ba18489627c6" class="node" points="-100,0 -60,-60 60,-60 100,0 60,60 -60,60" transform="translate(0,0)" fill="#EB8989" stroke="#E04848" stroke-width="9"></polygon><text id="b6587c62-51b7-4b23-a295-ba18489627c6" class="noselect node" x="0" fill="black" alignment-baseline="center" text-anchor="middle" font-size="20px" y="-20"> <tspan dy="1.1em" x="0">complexity</tspan> of the  <tspan dy="1.1em" x="0">problem</tspan></text></g><g transform="translate(262,260) scale(0.45)"><polygon id="019a4df8-a1c0-4bd3-ae9e-97bf77555b4b" class="node" points="-100,0 -60,-60 60,-60 100,0 60,60 -60,60" transform="translate(0,0)" fill="#EB8989" stroke="#E04848" stroke-width="6"></polygon><text id="019a4df8-a1c0-4bd3-ae9e-97bf77555b4b" class="noselect node" x="0" fill="black" alignment-baseline="center" text-anchor="middle" font-size="20px" y="0">lack of safety net</text></g><g transform="translate(1220,362) scale(0.45)"><ellipse id="ec30d69c-6ed8-4d32-b239-ed21e66b7f80" class="node" null="cy" rx="100" ry="70" transform="translate(0,0)" fill="#B9F1B9" stroke="#22AA22" stroke-width="9" opacity="1"></ellipse><text id="ec30d69c-6ed8-4d32-b239-ed21e66b7f80" class="noselect node" x="0" fill="black" alignment-baseline="center" text-anchor="middle" font-size="20px" y="-20"> <tspan dy="1.1em" x="0">accessibility</tspan> of  <tspan dy="1.1em" x="0">inaccessible</tspan>  <tspan dy="1.1em" x="0">places</tspan></text></g><g transform="translate(400,411) scale(0.45)"><polygon id="d829c585-11b5-4ca6-9cce-10698071496b" class="node" points="-100,0 -60,-60 60,-60 100,0 60,60 -60,60" transform="translate(0,0)" fill="#EB8989" stroke="#E04848" stroke-width="6"></polygon><text id="d829c585-11b5-4ca6-9cce-10698071496b" class="noselect node" x="0" fill="black" alignment-baseline="center" text-anchor="middle" font-size="20px" y="-20">problems  <tspan dy="1.1em" x="0">with</tspan>  <tspan dy="1.1em" x="0">contacting</tspan></text></g><g transform="translate(256,413) scale(0.45)"><rect id="266d6282-6cdd-44f2-92cf-3f858133f91e" class="node" x="-100" y="-60" width="200" height="120" transform="translate(0,0)" fill="#F0EEC0" stroke="#F3F033" stroke-width="5"></rect><text id="266d6282-6cdd-44f2-92cf-3f858133f91e" class="noselect node" x="0" fill="black" alignment-baseline="center" text-anchor="middle" font-size="20px" y="0">calming the injured</text></g><g transform="translate(399,512) scale(0.45)"><polygon id="b6024d87-3c0b-427c-9777-06bd497a7785" class="node" points="-100,0 -60,-60 60,-60 100,0 60,60 -60,60" transform="translate(0,0)" fill="#EB8989" stroke="#E04848" stroke-width="6"></polygon><text id="b6024d87-3c0b-427c-9777-06bd497a7785" class="noselect node" x="0" fill="black" alignment-baseline="center" text-anchor="middle" font-size="20px" y="-20"> <tspan dy="1.1em" x="0">evacuation</tspan> too  <tspan dy="1.1em" x="0">complex?</tspan></text></g><g transform="translate(547,596) scale(0.45)"><polygon id="1a33fdf7-3fb9-401a-88ca-6dedda99c2bb" class="node" points="-100,0 -60,-60 60,-60 100,0 60,60 -60,60" transform="translate(0,0)" fill="#EB8989" stroke="#E04848" stroke-width="3"></polygon><text id="1a33fdf7-3fb9-401a-88ca-6dedda99c2bb" class="noselect node" x="0" fill="black" alignment-baseline="center" text-anchor="middle" font-size="20px" y="-20">thought  <tspan dy="1.1em" x="0">process</tspan>  <tspan dy="1.1em" x="0">not</tspan>  <tspan dy="1.1em" x="0">comprehensible</tspan></text></g><g transform="translate(631,100) scale(0.45)"><polygon id="fa502f9e-8d84-49f7-96d3-e3285f7d63f6" class="node" points="-100,0 -60,-60 60,-60 100,0 60,60 -60,60" transform="translate(0,0)" fill="#EB8989" stroke="#E04848" stroke-width="3"></polygon><text id="fa502f9e-8d84-49f7-96d3-e3285f7d63f6" class="noselect node" x="0" fill="black" alignment-baseline="center" text-anchor="middle" font-size="20px" y="0">developer bias</text></g><g transform="translate(1097,213) scale(0.45)"><ellipse id="8004b831-5a7a-491d-8b8a-bf85c30b1396" class="node" null="cy" rx="100" ry="70" transform="translate(0,0)" fill="#B9F1B9" stroke="#22AA22" stroke-width="6" opacity="1"></ellipse><text id="8004b831-5a7a-491d-8b8a-bf85c30b1396" class="noselect node" x="0" fill="black" alignment-baseline="center" text-anchor="middle" font-size="20px" y="-20"> <tspan dy="1.1em" x="0">deciphering</tspan>  <tspan dy="1.1em" x="0">incomprehensible</tspan>  <tspan dy="1.1em" x="0">patterns</tspan></text></g><g transform="translate(1293,210) scale(0.45)"><ellipse id="d3b8b043-8ad1-4eaf-be86-1f24f2ba32b2" class="node" null="cy" rx="100" ry="70" transform="translate(0,0)" fill="#B9F1B9" stroke="#22AA22" stroke-width="6" opacity="1"></ellipse><text id="d3b8b043-8ad1-4eaf-be86-1f24f2ba32b2" class="noselect node" x="0" fill="black" alignment-baseline="center" text-anchor="middle" font-size="20px" y="0">improved approach</text></g><g transform="translate(1301,499) scale(0.45)"><ellipse id="4ec5dd83-9524-4cd0-8e42-1618e33e1277" class="node" null="cy" rx="100" ry="70" transform="translate(0,0)" fill="#B9F1B9" stroke="#22AA22" stroke-width="6" opacity="1"></ellipse><text id="4ec5dd83-9524-4cd0-8e42-1618e33e1277" class="noselect node" x="0" fill="black" alignment-baseline="center" text-anchor="middle" font-size="20px" y="-20">better  <tspan dy="1.1em" x="0">support</tspan>  <tspan dy="1.1em" x="0">possible</tspan></text></g><g transform="translate(948,499) scale(0.45)"><ellipse id="f8d037f9-bd88-4b3c-83cc-b7282c81bfb7" class="node" null="cy" rx="100" ry="70" transform="translate(0,0)" fill="#B9F1B9" stroke="#22AA22" stroke-width="9" opacity="1"></ellipse><text id="f8d037f9-bd88-4b3c-83cc-b7282c81bfb7" class="noselect node" x="0" fill="black" alignment-baseline="center" text-anchor="middle" font-size="20px" y="0">flexibility</text></g><g transform="translate(1015,634) scale(0.45)"><ellipse id="0b26e1e2-fc1c-4afc-90a6-8825a471aa8f" class="node" null="cy" rx="100" ry="70" transform="translate(0,0)" fill="#B9F1B9" stroke="#22AA22" stroke-width="6" opacity="1"></ellipse><text id="0b26e1e2-fc1c-4afc-90a6-8825a471aa8f" class="noselect node" x="0" fill="black" alignment-baseline="center" text-anchor="middle" font-size="20px" y="0">new approaches</text></g></svg>