<?xml version="1.0" standalone="no"?>
<svg id="CAMSVG" xmlns="http://www.w3.org/2000/svg" height="1400px" width="2400px"><rect id="background" x="0" y="0" width="100%" height="100%" fill="white"></rect><marker id="arrowRight" markerWidth="30" markerHeight="15" refX="30" refY="7.5" orient="auto" markerUnits="userSpaceOnUse"><polygon points="0 0, 0 0, 0 0" fill="#8c8c8c"></polygon></marker><marker id="arrowLeft" markerWidth="30" markerHeight="15" refX="0" refY="7.5" orient="auto" markerUnits="userSpaceOnUse"><polygon points="0 0, 0 0, 0 0" fill="#8c8c8c"></polygon></marker><g><line class="connector" id="f8a06fe4-40d2-4048-a337-984fc56b9ab0" transform="translate(333.5,394) scale(1,1) " x1="60" y1="0" x2="140" y2="0" stroke="#808080" stroke-width="9" marker-start="url(#arrowRight)" stroke-dasharray="20,10"></line><line transform="translate(333.5,394) " class="outer-connector" id="f8a06fe4-40d2-4048-a337-984fc56b9ab0" x1="0" y1="0" x2="160" y2="0" stroke="rgba(255, 255, 255, 0)" stroke-width="30"></line></g><g><line class="connector" id="f644da78-24fe-4797-be7f-06e1a956b067" transform="translate(733.5,394) scale(1,1) " x1="-60" y1="0" x2="-140" y2="0" stroke="#808080" stroke-width="9" marker-start="url(#arrowRight)" stroke-linecap="butt"></line><line transform="translate(733.5,394) " class="outer-connector" id="f644da78-24fe-4797-be7f-06e1a956b067" x1="0" y1="0" x2="-160" y2="0" stroke="rgba(255, 255, 255, 0)" stroke-width="30"></line></g><g><line class="connector" id="33f252b7-4baf-42e6-bcba-ee0e57a33d5a" transform="translate(821,258) scale(1,1) " x1="-28.874030342299754" y1="-39.186184035978236" x2="-27.125969657700242" y2="-36.81381596402176" stroke="#808080" stroke-width="3" marker-start="url(#arrowRight)" stroke-linecap="butt"></line><line transform="translate(821,258) " class="outer-connector" id="33f252b7-4baf-42e6-bcba-ee0e57a33d5a" x1="0" y1="0" x2="-38.98995041869724" y2="-52.914932711089115" stroke="rgba(255, 255, 255, 0)" stroke-width="30"></line></g><g><line class="connector" id="cca57c26-ba52-46e5-86d8-d0fde92f753e" transform="translate(821,258) scale(1,1) " x1="30.041305231470385" y1="-38.87698324072639" x2="37.95869476852961" y2="-49.12301675927362" stroke="#808080" stroke-width="3" marker-start="url(#arrowRight)" stroke-linecap="butt"></line><line transform="translate(821,258) " class="outer-connector" id="cca57c26-ba52-46e5-86d8-d0fde92f753e" x1="0" y1="0" x2="50.18764479004492" y2="-64.94871678711696" stroke="rgba(255, 255, 255, 0)" stroke-width="30"></line></g><g><line class="connector" id="17747a20-adcf-4b71-a828-1fce5bf9ccab" transform="translate(821,258) scale(1,1) " x1="18.970320281088497" y1="40.5876619967475" x2="24.02967971891149" y2="51.41233800325251" stroke="#808080" stroke-width="6" marker-start="url(#arrowRight)" stroke-linecap="butt"></line><line transform="translate(821,258) " class="outer-connector" id="17747a20-adcf-4b71-a828-1fce5bf9ccab" x1="0" y1="0" x2="32.49816900406802" y2="69.53096624126184" stroke="rgba(255, 255, 255, 0)" stroke-width="30"></line></g><g><line class="connector" id="f880c8a1-b268-4f41-b291-2afe7b126252" transform="translate(733.5,394) scale(1,1) " x1="25.652133785804693" y1="-39.87074508422214" x2="61.84786621419531" y2="-96.12925491577784" stroke="#808080" stroke-width="9" marker-start="url(#arrowRight)" stroke-linecap="butt"></line><line transform="translate(733.5,394) " class="outer-connector" id="f880c8a1-b268-4f41-b291-2afe7b126252" x1="0" y1="0" x2="72.66926792313875" y2="-112.94880500053564" stroke="rgba(255, 255, 255, 0)" stroke-width="30"></line></g><g><line class="connector" id="09ca681f-191e-49ac-b549-50fb400436f8" transform="translate(864,350) scale(1,1) " x1="7.190984277044843" y1="40.269511951451136" x2="7.809015722955155" y2="43.73048804854888" stroke="#808080" stroke-width="9" marker-start="url(#arrowRight)" stroke-linecap="butt"></line><line transform="translate(864,350) " class="outer-connector" id="09ca681f-191e-49ac-b549-50fb400436f8" x1="0" y1="0" x2="11.324828492628303" y2="63.419039558718524" stroke="rgba(255, 255, 255, 0)" stroke-width="30"></line></g><g><line class="connector" id="4b89dd6d-678d-4207-94be-acb617520669" transform="translate(879,434) scale(1,1) " x1="-56.82353792009951" y1="-15.62159118078337" x2="-88.6764620799005" y2="-24.378408819216634" stroke="#808080" stroke-width="9" marker-start="url(#arrowRight)" stroke-linecap="butt"></line><line transform="translate(879,434) " class="outer-connector" id="4b89dd6d-678d-4207-94be-acb617520669" x1="0" y1="0" x2="-107.96099344711939" y2="-29.679998198520796" stroke="rgba(255, 255, 255, 0)" stroke-width="30"></line></g><g><line class="connector" id="c5ed23dc-3bf4-472c-ba7e-9b9061dea120" transform="translate(879,434) scale(1,1) " x1="2.4021195470752383" y1="40.03532578458728" x2="3.597880452924766" y2="59.96467421541273" stroke="#808080" stroke-width="6" marker-start="url(#arrowRight)" stroke-linecap="butt"></line><line transform="translate(879,434) " class="outer-connector" id="c5ed23dc-3bf4-472c-ba7e-9b9061dea120" x1="0" y1="0" x2="4.795726267483701" y2="79.9287711247283" stroke="rgba(255, 255, 255, 0)" stroke-width="30"></line></g><g><line class="connector" id="19113af6-4fab-4bb4-a921-d069e855a435" transform="translate(879,434) scale(1,1) " x1="47.64852690166375" y1="28.914918034342953" x2="69.35147309833626" y2="42.08508196565704" stroke="#808080" stroke-width="9" marker-start="url(#arrowRight)" stroke-linecap="butt"></line><line transform="translate(879,434) " class="outer-connector" id="19113af6-4fab-4bb4-a921-d069e855a435" x1="0" y1="0" x2="86.44953829362422" y2="52.460830930318956" stroke="rgba(255, 255, 255, 0)" stroke-width="30"></line></g><g><line class="connector" id="bd59d6bf-3b4d-4b07-bd8b-c9f1b836b199" transform="translate(733.5,394) scale(1,1) " x1="19.551922557666355" y1="40.55887191032183" x2="87.94807744233367" y2="182.4411280896782" stroke="#808080" stroke-width="6" marker-start="url(#arrowRight)" stroke-linecap="butt"></line><line transform="translate(733.5,394) " class="outer-connector" id="bd59d6bf-3b4d-4b07-bd8b-c9f1b836b199" x1="0" y1="0" x2="96.63289058565128" y2="200.45706605209517" stroke="rgba(255, 255, 255, 0)" stroke-width="30"></line></g><g><line class="connector" id="25cc5244-3f5d-455f-b6f1-e7ac984d8361" transform="translate(533.5,394) scale(1,1) " x1="39.52097620785145" y1="-34.95480764200408" x2="85.97902379214854" y2="-76.04519235799593" stroke="#808080" stroke-width="3" marker-start="url(#arrowRight)" stroke-linecap="butt"></line><line transform="translate(533.5,394) " class="outer-connector" id="25cc5244-3f5d-455f-b6f1-e7ac984d8361" x1="0" y1="0" x2="100.96009421266496" y2="-89.29538213231721" stroke="rgba(255, 255, 255, 0)" stroke-width="30"></line></g><g><line class="connector" id="db55f62c-b383-47c6-b38c-a527eee01781" transform="translate(765,182) scale(1,1) " x1="-37.70286272077689" y1="35.92442579998553" x2="-68.29713727922311" y2="65.07557420001447" stroke="#808080" stroke-width="3" marker-start="url(#arrowRight)" stroke-linecap="butt"></line><line transform="translate(765,182) " class="outer-connector" id="db55f62c-b383-47c6-b38c-a527eee01781" x1="0" y1="0" x2="-82.7766470048292" y2="78.8720881838467" stroke="rgba(255, 255, 255, 0)" stroke-width="30"></line></g><g><line class="connector" id="4a21a9d3-e8c5-4545-9787-8bb7b7f692ca" transform="translate(333.5,394) scale(1,1) " x1="-58.440468120905294" y1="-11.06034435024806" x2="-137.05953187909472" y2="-25.939655649751938" stroke="#808080" stroke-width="3" marker-start="url(#arrowRight)" stroke-linecap="butt"></line><line transform="translate(333.5,394) " class="outer-connector" id="4a21a9d3-e8c5-4545-9787-8bb7b7f692ca" x1="0" y1="0" x2="-156.71068864561823" y2="-29.658800408633624" stroke="rgba(255, 255, 255, 0)" stroke-width="30"></line></g><g><line class="connector" id="1dee9f19-bdb9-4070-9951-f1d72284d020" transform="translate(333.5,394) scale(1,1) " x1="-32.808111487034274" y1="-38.00396624742432" x2="-77.6918885129657" y2="-89.99603375257567" stroke="#808080" stroke-width="3" marker-start="url(#arrowRight)" stroke-linecap="butt"></line><line transform="translate(333.5,394) " class="outer-connector" id="1dee9f19-bdb9-4070-9951-f1d72284d020" x1="0" y1="0" x2="-90.76120631668259" y2="-105.13515301841967" stroke="rgba(255, 255, 255, 0)" stroke-width="30"></line></g><g><line class="connector" id="59cdd0a0-82ac-4e0f-ac0d-547a78a6f3b1" transform="translate(533.5,394) scale(1,1) " x1="0.7463334771582171" y1="40.00347437568025" x2="1.7536665228417947" y2="93.99652562431976" stroke="#808080" stroke-width="3" marker-start="url(#arrowRight)" stroke-linecap="butt"></line><line transform="translate(533.5,394) " class="outer-connector" id="59cdd0a0-82ac-4e0f-ac0d-547a78a6f3b1" x1="0" y1="0" x2="2.1267359291425985" y2="113.99304580204274" stroke="rgba(255, 255, 255, 0)" stroke-width="30"></line></g><g><line class="connector" id="4f132083-9fc0-4bde-a8b9-e2e882a7e80a" transform="translate(536,528) scale(1,1) " x1="-2.1637174875208895" y1="40.02877351913649" x2="-3.8362825124791047" y2="70.9712264808635" stroke="#808080" stroke-width="3" marker-start="url(#arrowRight)" stroke-linecap="butt"></line><line transform="translate(536,528) " class="outer-connector" id="4f132083-9fc0-4bde-a8b9-e2e882a7e80a" x1="0" y1="0" x2="-4.915787672779112" y2="90.94207194641366" stroke="rgba(255, 255, 255, 0)" stroke-width="30"></line></g><g><line class="connector" id="eda19644-6b23-4c2b-8969-936ce34b1eb4" transform="translate(333.5,394) scale(1,1) " x1="12.192368953859576" y1="40.55566936231183" x2="35.307631046140436" y2="117.44433063768814" stroke="#808080" stroke-width="6" marker-start="url(#arrowRight)" stroke-linecap="butt"></line><line transform="translate(333.5,394) " class="outer-connector" id="eda19644-6b23-4c2b-8969-936ce34b1eb4" x1="0" y1="0" x2="41.06570913730715" y2="136.59751670935844" stroke="rgba(255, 255, 255, 0)" stroke-width="30"></line></g><g><line class="connector" id="bb32c7d1-4eec-4814-b087-776f6121982f" transform="translate(530,639) scale(1,1) " x1="-48.34665720915276" y1="-28.22925622279389" x2="-100.65334279084723" y2="-58.77074377720611" stroke="#808080" stroke-width="3" marker-start="url(#arrowRight)" stroke-linecap="butt"></line><line transform="translate(530,639) " class="outer-connector" id="bb32c7d1-4eec-4814-b087-776f6121982f" x1="0" y1="0" x2="-117.92471512537148" y2="-68.85537057655918" stroke="rgba(255, 255, 255, 0)" stroke-width="30"></line></g><g><line class="connector" id="ffab1ba7-086b-4b8b-b36c-7e587747d090" transform="translate(536,528) scale(1,1) " x1="-58.944822612936" y1="9.12694027555138" x2="-96.055177387064" y2="14.87305972444862" stroke="#808080" stroke-width="3" marker-start="url(#arrowRight)" stroke-linecap="butt"></line><line transform="translate(536,528) " class="outer-connector" id="ffab1ba7-086b-4b8b-b36c-7e587747d090" x1="0" y1="0" x2="-115.81965377911006" y2="17.93336574644285" stroke="rgba(255, 255, 255, 0)" stroke-width="30"></line></g><g><line class="connector" id="8f58cf2d-0c39-4815-9ac6-582ad3dcf46d" transform="translate(536,528) scale(1,1) " x1="54.81937772550422" y1="19.68864974648391" x2="87.18062227449578" y2="31.311350253516093" stroke="#808080" stroke-width="3" marker-start="url(#arrowRight)" stroke-linecap="butt"></line><line transform="translate(536,528) " class="outer-connector" id="8f58cf2d-0c39-4815-9ac6-582ad3dcf46d" x1="0" y1="0" x2="106.00343462760334" y2="38.07165609864628" stroke="rgba(255, 255, 255, 0)" stroke-width="30"></line></g><g><line class="connector" id="75b14dc8-524a-40ee-ac98-501d5f8cc163" transform="translate(733.5,394) scale(1,1) " x1="-12.166354292807982" y1="40.55451430935991" x2="-43.333645707192055" y2="144.44548569064006" stroke="#808080" stroke-width="3" marker-start="url(#arrowRight)" stroke-linecap="butt"></line><line transform="translate(733.5,394) " class="outer-connector" id="75b14dc8-524a-40ee-ac98-501d5f8cc163" x1="0" y1="0" x2="-49.08060341851896" y2="163.6020113950631" stroke="rgba(255, 255, 255, 0)" stroke-width="30"></line></g><g><line class="connector" id="99ae5f29-974a-44be-a107-d9a56bfc19f6" transform="translate(333.5,394) scale(1,1) " x1="-5.754518026529206" y1="-40.18409198186497" x2="-23.745481973470792" y2="-165.81590801813505" stroke="#808080" stroke-width="6" marker-start="url(#arrowRight)" stroke-linecap="butt"></line><line transform="translate(333.5,394) " class="outer-connector" id="99ae5f29-974a-44be-a107-d9a56bfc19f6" x1="0" y1="0" x2="-26.58063642006395" y2="-185.61393567909064" stroke="rgba(255, 255, 255, 0)" stroke-width="30"></line></g><g><line class="connector" id="8ee07211-d04c-4538-b047-09e45caccc25" transform="translate(223,266) scale(1,1) " x1="37.4412654639555" y1="-36.054551928253446" x2="43.5587345360445" y2="-41.94544807174655" stroke="#808080" stroke-width="3" marker-start="url(#arrowRight)" stroke-linecap="butt"></line><line transform="translate(223,266) " class="outer-connector" id="8ee07211-d04c-4538-b047-09e45caccc25" x1="0" y1="0" x2="57.96513880587411" y2="-55.81828181306396" stroke="rgba(255, 255, 255, 0)" stroke-width="30"></line></g><g><line class="connector" id="544169c6-e762-46c4-89ba-fb84db45cd28" transform="translate(533.5,394) scale(1,1) " x1="-46.43301638548287" y1="-30.03327017273786" x2="-71.06698361451713" y2="-45.96672982726214" stroke="#808080" stroke-width="3" marker-start="url(#arrowRight)" stroke-linecap="butt"></line><line transform="translate(533.5,394) " class="outer-connector" id="544169c6-e762-46c4-89ba-fb84db45cd28" x1="0" y1="0" x2="-87.86030374077644" y2="-56.82879220680009" stroke="rgba(255, 255, 255, 0)" stroke-width="30"></line></g><g><line class="connector" id="e3c2b57e-f07e-4d5a-9f39-f1eca9935534" transform="translate(416,318) scale(1,1) " x1="-32.75729075491059" y1="-38.02185534052123" x2="-79.2427092450894" y2="-91.97814465947879" stroke="#808080" stroke-width="3" marker-start="url(#arrowRight)" stroke-linecap="butt"></line><line transform="translate(416,318) " class="outer-connector" id="e3c2b57e-f07e-4d5a-9f39-f1eca9935534" x1="0" y1="0" x2="-92.2968897576599" y2="-107.13031846871239" stroke="rgba(255, 255, 255, 0)" stroke-width="30"></line></g><g><line class="connector" id="6efcf914-736c-424a-8cb3-d59a9400d24f" transform="translate(169,479) scale(1,1) " x1="-10.280269387666968" y1="-40.457834364366775" x2="-20.719730612333034" y2="-81.54216563563322" stroke="#808080" stroke-width="3" marker-start="url(#arrowRight)" stroke-linecap="butt"></line><line transform="translate(169,479) " class="outer-connector" id="6efcf914-736c-424a-8cb3-d59a9400d24f" x1="0" y1="0" x2="-25.645176676743596" y2="-100.92617917944254" stroke="rgba(255, 255, 255, 0)" stroke-width="30"></line></g><g><line class="connector" id="5f83a55c-d60c-4acc-a508-b85a04c49ac7" transform="translate(333.5,394) scale(1,1) " x1="-50.37551102580104" y1="26.0298993142437" x2="-114.12448897419897" y2="58.97010068575631" stroke="#808080" stroke-width="9" marker-start="url(#arrowRight)" stroke-linecap="butt"></line><line transform="translate(333.5,394) " class="outer-connector" id="5f83a55c-d60c-4acc-a508-b85a04c49ac7" x1="0" y1="0" x2="-131.89264002793055" y2="68.15121217248692" stroke="rgba(255, 255, 255, 0)" stroke-width="30"></line></g><g><line class="connector" id="9bfd39a2-4f71-4306-817c-203424b9ae15" transform="translate(821,258) scale(1,1) " x1="59.85839144253727" y1="3.362830979917824" x2="207.14160855746272" y2="11.637169020082174" stroke="#808080" stroke-width="9" marker-start="url(#arrowRight)" stroke-linecap="butt"></line><line transform="translate(821,258) " class="outer-connector" id="9bfd39a2-4f71-4306-817c-203424b9ae15" x1="0" y1="0" x2="227.11012140043198" y2="12.758995584293931" stroke="rgba(255, 255, 255, 0)" stroke-width="30"></line></g><g><line class="connector" id="fb1ff151-4480-4275-82c9-701d26c95fb4" transform="translate(864,350) scale(1,1) " x1="55.2111963732928" y1="-18.978848753319397" x2="168.7888036267072" y2="-58.02115124668058" stroke="#808080" stroke-width="9" marker-start="url(#arrowRight)" stroke-linecap="butt"></line><line transform="translate(864,350) " class="outer-connector" id="fb1ff151-4480-4275-82c9-701d26c95fb4" x1="0" y1="0" x2="187.70253561280452" y2="-64.52274661690154" stroke="rgba(255, 255, 255, 0)" stroke-width="30"></line></g><g><line class="connector" id="1b0bd309-d3d5-40da-9d5e-49109f1c7326" transform="translate(879,434) scale(1,1) " x1="42.74504060917878" y1="-32.92799778984586" x2="166.2549593908212" y2="-128.07200221015415" stroke="#808080" stroke-width="9" marker-start="url(#arrowRight)" stroke-linecap="butt"></line><line transform="translate(879,434) " class="outer-connector" id="1b0bd309-d3d5-40da-9d5e-49109f1c7326" x1="0" y1="0" x2="182.09898085926903" y2="-140.27720535092016" stroke="rgba(255, 255, 255, 0)" stroke-width="30"></line></g><g><line class="connector" id="2f370639-a1ee-4d1c-a917-037b00bc450a" transform="translate(1088,273) scale(1,1) " x1="-16.119606664309266" y1="40.649442892605975" x2="-75.88039333569074" y2="191.35055710739402" stroke="#808080" stroke-width="9" marker-start="url(#arrowRight)" stroke-linecap="butt"></line><line transform="translate(1088,273) " class="outer-connector" id="2f370639-a1ee-4d1c-a917-037b00bc450a" x1="0" y1="0" x2="-83.25290774135321" y2="209.94211517384718" stroke="rgba(255, 255, 255, 0)" stroke-width="30"></line></g><g><line class="connector" id="d3cdd1d7-2348-4c75-9c34-04f88542b567" transform="translate(1088,273) scale(1,1) " x1="-30.202384399475743" y1="38.83163708504024" x2="-172.79761560052427" y2="222.16836291495977" stroke="#808080" stroke-width="9" marker-start="url(#arrowRight)" stroke-linecap="butt"></line><line transform="translate(1088,273) " class="outer-connector" id="d3cdd1d7-2348-4c75-9c34-04f88542b567" x1="0" y1="0" x2="-185.07642787082267" y2="237.9554072624863" stroke="rgba(255, 255, 255, 0)" stroke-width="30"></line></g><g><line class="connector" id="5f52cf56-c452-456b-8233-e0968993676f" transform="translate(533.5,394) scale(1,1) " x1="3.1772403730951484" y1="-40.06085687815623" x2="8.322759626904848" y2="-104.93914312184376" stroke="#808080" stroke-width="3" marker-start="url(#arrowRight)" stroke-linecap="butt"></line><line transform="translate(533.5,394) " class="outer-connector" id="5f52cf56-c452-456b-8233-e0968993676f" x1="0" y1="0" x2="9.904001211139514" y2="-124.87653701001999" stroke="rgba(255, 255, 255, 0)" stroke-width="30"></line></g><g><line class="connector" id="e3dc3e9d-52f2-48cf-8c57-de6c0e754e6d" transform="translate(545,249) scale(1,1) " x1="56.30454966473272" y1="16.7925849877273" x2="57.69545033526728" y2="17.207415012272698" stroke="#808080" stroke-width="3" marker-start="url(#arrowRight)" stroke-linecap="butt"></line><line transform="translate(545,249) " class="outer-connector" id="e3dc3e9d-52f2-48cf-8c57-de6c0e754e6d" x1="0" y1="0" x2="76.86120555073126" y2="22.923517444954932" stroke="rgba(255, 255, 255, 0)" stroke-width="30"></line></g><g><line class="connector" id="38e89109-119e-4315-a0e2-668824f229e5" transform="translate(545,249) scale(1,1) " x1="-49.830530266569724" y1="26.653539444909384" x2="-79.16946973343026" y2="42.34646055509061" stroke="#808080" stroke-width="3" marker-start="url(#arrowRight)" stroke-linecap="butt"></line><line transform="translate(545,249) " class="outer-connector" id="38e89109-119e-4315-a0e2-668824f229e5" x1="0" y1="0" x2="-96.8051625721241" y2="51.779505561833815" stroke="rgba(255, 255, 255, 0)" stroke-width="30"></line></g><g><line class="connector" id="90294226-e8fe-4839-8662-588d34f1197f" transform="translate(537,130) scale(1,1) " x1="2.6920426500809413" y1="40.04413441995401" x2="5.307957349919057" y2="78.955865580046" stroke="#808080" stroke-width="9" marker-start="url(#arrowRight)" stroke-linecap="butt"></line><line transform="translate(537,130) " class="outer-connector" id="90294226-e8fe-4839-8662-588d34f1197f" x1="0" y1="0" x2="6.6494671360000766" y2="98.91082364800116" stroke="rgba(255, 255, 255, 0)" stroke-width="30"></line></g><g><line class="connector" id="df31c7b3-e036-459b-a4e4-b26812111a85" transform="translate(545,249) scale(1,1) " x1="35.29744028230493" y1="-37.037454944108696" x2="106.70255971769508" y2="-111.9625450558913" stroke="#808080" stroke-width="3" marker-start="url(#arrowRight)" stroke-linecap="butt"></line><line transform="translate(545,249) " class="outer-connector" id="df31c7b3-e036-459b-a4e4-b26812111a85" x1="0" y1="0" x2="120.50051504970968" y2="-126.4406812845545" stroke="rgba(255, 255, 255, 0)" stroke-width="30"></line></g><g><line class="connector" id="59cb0b81-4529-48c9-8899-3fd78692f3f9" transform="translate(333.5,394) scale(1,1) " x1="-47.739329643438644" y1="-28.82760376755824" x2="-185.76067035656135" y2="-112.17239623244176" stroke="#808080" stroke-width="3" marker-start="url(#arrowRight)" stroke-linecap="butt"></line><line transform="translate(333.5,394) " class="outer-connector" id="59cb0b81-4529-48c9-8899-3fd78692f3f9" x1="0" y1="0" x2="-202.8813470998757" y2="-122.51079203889712" stroke="rgba(255, 255, 255, 0)" stroke-width="30"></line></g><g><line class="connector" id="face0587-2fff-457a-9076-eabae275117d" transform="translate(333.5,394) scale(1,1) " x1="-22.393829726238376" y1="40.330119886116506" x2="-83.10617027376163" y2="149.6698801138835" stroke="#808080" stroke-width="6" marker-start="url(#arrowRight)" stroke-linecap="butt"></line><line transform="translate(333.5,394) " class="outer-connector" id="face0587-2fff-457a-9076-eabae275117d" x1="0" y1="0" x2="-92.81512180675965" y2="167.15519567094154" stroke="rgba(255, 255, 255, 0)" stroke-width="30"></line></g><g><line class="connector" id="dc5b4742-87bc-459a-9c35-7f692099850b" transform="translate(333.5,394) scale(1,1) " x1="16.045824477999727" y1="-40.64942201093264" x2="51.454175522000284" y2="-130.35057798906738" stroke="#808080" stroke-width="3" marker-start="url(#arrowRight)" stroke-linecap="butt"></line><line transform="translate(333.5,394) " class="outer-connector" id="dc5b4742-87bc-459a-9c35-7f692099850b" x1="0" y1="0" x2="58.79750621672125" y2="-148.95368241569383" stroke="rgba(255, 255, 255, 0)" stroke-width="30"></line></g><g transform="translate(533.5,394) scale(0.45)"><rect id="c51213b3-b636-4e47-9135-8e186db863cb" class="node" x="-100" y="-60" width="200" height="120" transform="translate(0,0)" fill="#F0EEC0" stroke="#F3F033" stroke-width="5"></rect><text id="c51213b3-b636-4e47-9135-8e186db863cb" class="noselect node" x="0" fill="black" alignment-baseline="center" text-anchor="middle" font-size="20px" y="-20">social  <tspan dy="1.1em" x="0">assistance</tspan>  <tspan dy="1.1em" x="0">robot</tspan></text></g><g transform="translate(333.5,394) scale(0.45)"><polygon id="6899c853-9f15-4734-a1b7-9431bc58d91a" class="node" points="-100,0 -60,-60 60,-60 100,0 60,60 -60,60" transform="translate(0,0)" fill="#EB8989" stroke="#E04848" stroke-width="9"></polygon><text id="6899c853-9f15-4734-a1b7-9431bc58d91a" class="noselect node" x="0" fill="black" alignment-baseline="center" text-anchor="middle" font-size="20px" y="0">risks</text></g><g transform="translate(733.5,394) scale(0.45)"><ellipse id="d60f7dad-26fd-47e1-9b65-1a7f6cc1a6c4" class="node" null="cy" rx="100" ry="70" transform="translate(0,0)" fill="#B9F1B9" stroke="#22AA22" stroke-width="9" opacity="1"></ellipse><text id="d60f7dad-26fd-47e1-9b65-1a7f6cc1a6c4" class="noselect node" x="0" fill="black" alignment-baseline="center" text-anchor="middle" font-size="20px" y="0">benefits</text></g><g transform="translate(821,258) scale(0.45)"><ellipse id="6cff604b-0f9d-4d49-b797-200946f9ab09" class="node" null="cy" rx="100" ry="70" transform="translate(0,0)" fill="#B9F1B9" stroke="#22AA22" stroke-width="9" opacity="1"></ellipse><text id="6cff604b-0f9d-4d49-b797-200946f9ab09" class="noselect node" x="0" fill="black" alignment-baseline="center" text-anchor="middle" font-size="20px" y="0">learning</text></g><g transform="translate(765,182) scale(0.45)"><g><polygon id="3310f113-251b-4747-9803-1712a2af16fb" class="node" points="-100,0 -60,-60 60,-60 100,0 60,60 -60,60" transform="translate(0,0)" fill="rgb(247, 151, 226)" stroke="rgb(142, 19, 146)" stroke-width="5"></polygon><ellipse id="3310f113-251b-4747-9803-1712a2af16fb" class="node" null="cy" rx="90" ry="55" transform="translate(0,0)" fill="rgb(247, 151, 226)" stroke="rgb(142, 19, 146)" stroke-width="3"></ellipse></g><text id="3310f113-251b-4747-9803-1712a2af16fb" class="noselect node" x="0" fill="black" alignment-baseline="center" text-anchor="middle" font-size="20px" y="0">Social interactions</text></g><g transform="translate(889,170) scale(0.45)"><ellipse id="cab198a4-0b56-410f-9521-fd4dbbcc50ad" class="node" null="cy" rx="100" ry="70" transform="translate(0,0)" fill="#B9F1B9" stroke="#22AA22" stroke-width="3" opacity="1"></ellipse><text id="cab198a4-0b56-410f-9521-fd4dbbcc50ad" class="noselect node" x="0" fill="black" alignment-baseline="center" text-anchor="middle" font-size="20px" y="0">Emotion recognition</text></g><g transform="translate(864,350) scale(0.45)"><ellipse id="29d5e9dc-3ba8-4b19-bdda-df01735ff455" class="node" null="cy" rx="100" ry="70" transform="translate(0,0)" fill="#B9F1B9" stroke="#22AA22" stroke-width="9" opacity="1"></ellipse><text id="29d5e9dc-3ba8-4b19-bdda-df01735ff455" class="noselect node" x="0" fill="black" alignment-baseline="center" text-anchor="middle" font-size="20px" y="-20"> <tspan dy="1.1em" x="0">Non-judgmental</tspan>  <tspan dy="1.1em" x="0">feedback</tspan></text></g><g transform="translate(879,434) scale(0.45)"><ellipse id="ba62b083-d8c8-4b25-8eaf-0e32300fdb7e" class="node" null="cy" rx="100" ry="70" transform="translate(0,0)" fill="#B9F1B9" stroke="#22AA22" stroke-width="9" opacity="1"></ellipse><text id="ba62b083-d8c8-4b25-8eaf-0e32300fdb7e" class="noselect node" x="0" fill="black" alignment-baseline="center" text-anchor="middle" font-size="20px" y="0">(Pre-)judgment-free</text></g><g transform="translate(885,534) scale(0.45)"><ellipse id="ad925bb8-26b7-40b2-a2fd-0d81df468fba" class="node" null="cy" rx="100" ry="70" transform="translate(0,0)" fill="#B9F1B9" stroke="#22AA22" stroke-width="9" opacity="1"></ellipse><text id="ad925bb8-26b7-40b2-a2fd-0d81df468fba" class="noselect node" x="0" fill="black" alignment-baseline="center" text-anchor="middle" font-size="20px" y="0">Fear-relieving</text></g><g transform="translate(996,505) scale(0.45)"><ellipse id="c8657309-0234-45de-83b6-72a58d5f572b" class="node" null="cy" rx="100" ry="70" transform="translate(0,0)" fill="#B9F1B9" stroke="#22AA22" stroke-width="6" opacity="1"></ellipse><text id="c8657309-0234-45de-83b6-72a58d5f572b" class="noselect node" x="0" fill="black" alignment-baseline="center" text-anchor="middle" font-size="20px" y="0">Possible to try out</text></g><g transform="translate(841,617) scale(0.45)"><ellipse id="076ca1de-b93c-4c97-9733-e842e38457ed" class="node" null="cy" rx="100" ry="70" transform="translate(0,0)" fill="#B9F1B9" stroke="#22AA22" stroke-width="6" opacity="1"></ellipse><text id="076ca1de-b93c-4c97-9733-e842e38457ed" class="noselect node" x="0" fill="black" alignment-baseline="center" text-anchor="middle" font-size="20px" y="0">supportive</text></g><g transform="translate(223,266) scale(0.45)"><polygon id="5e2223ad-a23c-4d1e-8d77-fa2156f48a04" class="node" points="-100,0 -60,-60 60,-60 100,0 60,60 -60,60" transform="translate(0,0)" fill="#EB8989" stroke="#E04848" stroke-width="6"></polygon><text id="5e2223ad-a23c-4d1e-8d77-fa2156f48a04" class="noselect node" x="0" fill="black" alignment-baseline="center" text-anchor="middle" font-size="20px" y="-20">Not  <tspan dy="1.1em" x="0">empathetic</tspan>  <tspan dy="1.1em" x="0">(enough)</tspan></text></g><g transform="translate(659,283) scale(0.45)"><g><polygon id="c0094cf7-db5f-41b8-829d-486949fdbc18" class="node" points="-100,0 -60,-60 60,-60 100,0 60,60 -60,60" transform="translate(0,0)" fill="rgb(247, 151, 226)" stroke="rgb(142, 19, 146)" stroke-width="5"></polygon><ellipse id="c0094cf7-db5f-41b8-829d-486949fdbc18" class="node" null="cy" rx="90" ry="55" transform="translate(0,0)" fill="rgb(247, 151, 226)" stroke="rgb(142, 19, 146)" stroke-width="3"></ellipse></g><text id="c0094cf7-db5f-41b8-829d-486949fdbc18" class="noselect node" x="0" fill="black" alignment-baseline="center" text-anchor="middle" font-size="20px" y="0">no "real" contact</text></g><g transform="translate(138,357) scale(0.45)"><polygon id="372d0dc0-350b-4b73-93f5-6eaa75bc1e4a" class="node" points="-100,0 -60,-60 60,-60 100,0 60,60 -60,60" transform="translate(0,0)" fill="#EB8989" stroke="#E04848" stroke-width="6"></polygon><text id="372d0dc0-350b-4b73-93f5-6eaa75bc1e4a" class="noselect node" x="0" fill="black" alignment-baseline="center" text-anchor="middle" font-size="20px" y="-20"> <tspan dy="1.1em" x="0">Unforeseen</tspan>  <tspan dy="1.1em" x="0">reactions</tspan></text></g><g transform="translate(536,528) scale(0.45)"><g><polygon id="503a9e35-7af7-4514-9bb2-888cb028bc7a" class="node" points="-100,0 -60,-60 60,-60 100,0 60,60 -60,60" transform="translate(0,0)" fill="rgb(247, 151, 226)" stroke="rgb(142, 19, 146)" stroke-width="5"></polygon><ellipse id="503a9e35-7af7-4514-9bb2-888cb028bc7a" class="node" null="cy" rx="90" ry="55" transform="translate(0,0)" fill="rgb(247, 151, 226)" stroke="rgb(142, 19, 146)" stroke-width="3"></ellipse></g><text id="503a9e35-7af7-4514-9bb2-888cb028bc7a" class="noselect node" x="0" fill="black" alignment-baseline="center" text-anchor="middle" font-size="20px" y="0">jobs</text></g><g transform="translate(530,639) scale(0.45)"><g><polygon id="d5e420a9-a663-4e0a-bd28-379e75477ae2" class="node" points="-100,0 -60,-60 60,-60 100,0 60,60 -60,60" transform="translate(0,0)" fill="rgb(247, 151, 226)" stroke="rgb(142, 19, 146)" stroke-width="5"></polygon><ellipse id="d5e420a9-a663-4e0a-bd28-379e75477ae2" class="node" null="cy" rx="90" ry="55" transform="translate(0,0)" fill="rgb(247, 151, 226)" stroke="rgb(142, 19, 146)" stroke-width="3"></ellipse></g><text id="d5e420a9-a663-4e0a-bd28-379e75477ae2" class="noselect node" x="0" fill="black" alignment-baseline="center" text-anchor="middle" font-size="20px" y="0">replaces human care</text></g><g transform="translate(381,552) scale(0.45)"><polygon id="3b06ef84-1ccc-44c1-8909-d49e43d7dc63" class="node" points="-100,0 -60,-60 60,-60 100,0 60,60 -60,60" transform="translate(0,0)" fill="#EB8989" stroke="#E04848" stroke-width="9"></polygon><text id="3b06ef84-1ccc-44c1-8909-d49e43d7dc63" class="noselect node" x="0" fill="black" alignment-baseline="center" text-anchor="middle" font-size="20px" y="-20">Loss of  <tspan dy="1.1em" x="0">therapist</tspan>  <tspan dy="1.1em" x="0">jobs</tspan></text></g><g transform="translate(678,579) scale(0.45)"><ellipse id="b75eb990-96bb-4243-a6d2-c80d77952c0d" class="node" null="cy" rx="100" ry="70" transform="translate(0,0)" fill="#B9F1B9" stroke="#22AA22" stroke-width="6" opacity="1"></ellipse><text id="b75eb990-96bb-4243-a6d2-c80d77952c0d" class="noselect node" x="0" fill="black" alignment-baseline="center" text-anchor="middle" font-size="20px" y="-20">creates  <tspan dy="1.1em" x="0">jobs</tspan>  <tspan dy="1.1em" x="0">development</tspan></text></g><g transform="translate(304,188) scale(0.45)"><polygon id="23b69a6c-d877-43ab-8f5c-d4893dec1821" class="node" points="-100,0 -60,-60 60,-60 100,0 60,60 -60,60" transform="translate(0,0)" fill="#EB8989" stroke="#E04848" stroke-width="6"></polygon><text id="23b69a6c-d877-43ab-8f5c-d4893dec1821" class="noselect node" x="0" fill="black" alignment-baseline="center" text-anchor="middle" font-size="20px" y="-20"> <tspan dy="1.1em" x="0">unrealistic</tspan>  <tspan dy="1.1em" x="0">learned</tspan>  <tspan dy="1.1em" x="0">handling</tspan></text></g><g transform="translate(416,318) scale(0.45)"><g><polygon id="842d0637-5b49-4253-be95-acc761ae1198" class="node" points="-100,0 -60,-60 60,-60 100,0 60,60 -60,60" transform="translate(0,0)" fill="rgb(247, 151, 226)" stroke="rgb(142, 19, 146)" stroke-width="5"></polygon><ellipse id="842d0637-5b49-4253-be95-acc761ae1198" class="node" null="cy" rx="90" ry="55" transform="translate(0,0)" fill="rgb(247, 151, 226)" stroke="rgb(142, 19, 146)" stroke-width="3"></ellipse></g><text id="842d0637-5b49-4253-be95-acc761ae1198" class="noselect node" x="0" fill="black" alignment-baseline="center" text-anchor="middle" font-size="20px" y="-20"> <tspan dy="1.1em" x="0">integration</tspan> into  <tspan dy="1.1em" x="0">society</tspan></text></g><g transform="translate(169,479) scale(0.45)"><polygon id="928c92bc-ffc8-4ea7-a751-8f78de33d2d9" class="node" points="-100,0 -60,-60 60,-60 100,0 60,60 -60,60" transform="translate(0,0)" fill="#EB8989" stroke="#E04848" stroke-width="9"></polygon><text id="928c92bc-ffc8-4ea7-a751-8f78de33d2d9" class="noselect node" x="0" fill="black" alignment-baseline="center" text-anchor="middle" font-size="20px" y="0">unresearched</text></g><g transform="translate(1088,273) scale(0.45)"><ellipse id="0316374e-8b04-493f-a7e6-4b3d9576f3d9" class="node" null="cy" rx="100" ry="70" transform="translate(0,0)" fill="#B9F1B9" stroke="#22AA22" stroke-width="9" opacity="1"></ellipse><text id="0316374e-8b04-493f-a7e6-4b3d9576f3d9" class="noselect node" x="0" fill="black" alignment-baseline="center" text-anchor="middle" font-size="20px" y="0">infinite patience</text></g><g transform="translate(545,249) scale(0.45)"><ellipse id="82b1a681-ebd8-4dee-a4bc-fafc9dee253c" class="node" null="cy" rx="100" ry="70" transform="translate(0,0)" fill="#B9F1B9" stroke="#22AA22" stroke-width="6" opacity="1"></ellipse><text id="82b1a681-ebd8-4dee-a4bc-fafc9dee253c" class="noselect node" x="0" fill="black" alignment-baseline="center" text-anchor="middle" font-size="20px" y="0">soft robots</text></g><g transform="translate(537,130) scale(0.45)"><ellipse id="c156e083-57e5-44a1-9a1b-53dc8769c15b" class="node" null="cy" rx="100" ry="70" transform="translate(0,0)" fill="#B9F1B9" stroke="#22AA22" stroke-width="9" opacity="1"></ellipse><text id="c156e083-57e5-44a1-9a1b-53dc8769c15b" class="noselect node" x="0" fill="black" alignment-baseline="center" text-anchor="middle" font-size="20px" y="0">low risk of injury</text></g><g transform="translate(687,100) scale(0.45)"><ellipse id="57ebf452-6995-4721-99cb-843758c6180d" class="node" null="cy" rx="100" ry="70" transform="translate(0,0)" fill="#B9F1B9" stroke="#22AA22" stroke-width="9" opacity="1"></ellipse><text id="57ebf452-6995-4721-99cb-843758c6180d" class="noselect node" x="0" fill="black" alignment-baseline="center" text-anchor="middle" font-size="20px" y="0">animal protection</text></g><g transform="translate(100,253) scale(0.45)"><polygon id="1cfd1c30-1936-4743-9f4d-0745158bf8aa" class="node" points="-100,0 -60,-60 60,-60 100,0 60,60 -60,60" transform="translate(0,0)" fill="#EB8989" stroke="#E04848" stroke-width="3"></polygon><text id="1cfd1c30-1936-4743-9f4d-0745158bf8aa" class="noselect node" x="0" fill="black" alignment-baseline="center" text-anchor="middle" font-size="20px" y="0">risk of dependency</text></g><g transform="translate(228,584) scale(0.45)"><polygon id="0b84e6ea-dcd9-4202-9bd7-9e77cf302859" class="node" points="-100,0 -60,-60 60,-60 100,0 60,60 -60,60" transform="translate(0,0)" fill="#EB8989" stroke="#E04848" stroke-width="6"></polygon><text id="0b84e6ea-dcd9-4202-9bd7-9e77cf302859" class="noselect node" x="0" fill="black" alignment-baseline="center" text-anchor="middle" font-size="20px" y="-20">risk of  <tspan dy="1.1em" x="0">manipulation</tspan></text></g><g transform="translate(401,223) scale(0.45)"><polygon id="e0c7ac10-af7a-4375-a2c3-318a6b26277a" class="node" points="-100,0 -60,-60 60,-60 100,0 60,60 -60,60" transform="translate(0,0)" fill="#EB8989" stroke="#E04848" stroke-width="3"></polygon><text id="e0c7ac10-af7a-4375-a2c3-318a6b26277a" class="noselect node" x="0" fill="black" alignment-baseline="center" text-anchor="middle" font-size="20px" y="0">uncanny valley</text></g></svg>