<?xml version="1.0" standalone="no"?>
<svg id="CAMSVG" xmlns="http://www.w3.org/2000/svg" height="1400px" width="2400px"><rect id="background" x="0" y="0" width="100%" height="100%" fill="white"></rect><marker id="arrowRight" markerWidth="30" markerHeight="15" refX="30" refY="7.5" orient="auto" markerUnits="userSpaceOnUse"><polygon points="0 0, 0 0, 0 0" fill="#8c8c8c"></polygon></marker><marker id="arrowLeft" markerWidth="30" markerHeight="15" refX="0" refY="7.5" orient="auto" markerUnits="userSpaceOnUse"><polygon points="0 0, 0 0, 0 0" fill="#8c8c8c"></polygon></marker><g><line class="connector" id="acc2f11b-8ef0-4cbf-bf05-96da6ef1654a" transform="translate(295.5,331) scale(1,1) " x1="60" y1="0" x2="140" y2="0" stroke="#808080" stroke-width="9" marker-start="url(#arrowRight)" stroke-dasharray="20,10"></line><line transform="translate(295.5,331) " class="outer-connector" id="acc2f11b-8ef0-4cbf-bf05-96da6ef1654a" x1="0" y1="0" x2="160" y2="0" stroke="rgba(255, 255, 255, 0)" stroke-width="30"></line></g><g><line class="connector" id="c45ee396-46cf-4032-88d4-4c639ea3fcc8" transform="translate(695.5,331) scale(1,1) " x1="-60" y1="0" x2="-140" y2="0" stroke="#808080" stroke-width="9" marker-start="url(#arrowRight)" stroke-linecap="butt"></line><line transform="translate(695.5,331) " class="outer-connector" id="c45ee396-46cf-4032-88d4-4c639ea3fcc8" x1="0" y1="0" x2="-160" y2="0" stroke="rgba(255, 255, 255, 0)" stroke-width="30"></line></g><g><line class="connector" id="7e09159d-c9a7-4cdd-a411-62bfe4dcb599" transform="translate(733,236) scale(1,1) " x1="-2.0526121953405494" y1="-40.025937809140785" x2="-3.94738780465944" y2="-76.97406219085921" stroke="#808080" stroke-width="3" marker-start="url(#arrowRight)" stroke-linecap="butt"></line><line transform="translate(733,236) " class="outer-connector" id="7e09159d-c9a7-4cdd-a411-62bfe4dcb599" x1="0" y1="0" x2="-4.971682844122606" y2="-96.94781546039098" stroke="rgba(255, 255, 255, 0)" stroke-width="30"></line></g><g><line class="connector" id="b75a6917-2d20-4ea4-b3e0-7bda7932092b" transform="translate(733,236) scale(1,1) " x1="34.26566146501948" y1="-37.45991804226706" x2="83.73433853498052" y2="-91.54008195773295" stroke="#808080" stroke-width="3" marker-start="url(#arrowRight)" stroke-linecap="butt"></line><line transform="translate(733,236) " class="outer-connector" id="b75a6917-2d20-4ea4-b3e0-7bda7932092b" x1="0" y1="0" x2="97.23328275940855" y2="-106.29740233867545" stroke="rgba(255, 255, 255, 0)" stroke-width="30"></line></g><g><line class="connector" id="9bf9ed68-fe91-4387-8085-e5f4ace3acdc" transform="translate(733,236) scale(1,1) " x1="57.216140810422715" y1="14.661636082670823" x2="102.7838591895773" y2="26.33836391732919" stroke="#808080" stroke-width="6" marker-start="url(#arrowRight)" stroke-linecap="butt"></line><line transform="translate(733,236) " class="outer-connector" id="9bf9ed68-fe91-4387-8085-e5f4ace3acdc" x1="0" y1="0" x2="122.15788328494118" y2="31.302957591766184" stroke="rgba(255, 255, 255, 0)" stroke-width="30"></line></g><g><line class="connector" id="fd76073e-ebf5-4408-ba7e-7a931e53e7d6" transform="translate(695.5,331) scale(1,1) " x1="16.045824477999727" y1="-40.64942201093264" x2="21.45417552200028" y2="-54.35057798906737" stroke="#808080" stroke-width="9" marker-start="url(#arrowRight)" stroke-linecap="butt"></line><line transform="translate(695.5,331) " class="outer-connector" id="fd76073e-ebf5-4408-ba7e-7a931e53e7d6" x1="0" y1="0" x2="28.79750621672125" y2="-72.95368241569382" stroke="rgba(255, 255, 255, 0)" stroke-width="30"></line></g><g><line class="connector" id="a9d8e91b-7729-4688-8d41-87591777ec47" transform="translate(893,277) scale(1,1) " x1="-22.314937835220576" y1="40.338541471360266" x2="-29.685062164779428" y2="53.66145852863973" stroke="#808080" stroke-width="9" marker-start="url(#arrowRight)" stroke-linecap="butt"></line><line transform="translate(893,277) " class="outer-connector" id="a9d8e91b-7729-4688-8d41-87591777ec47" x1="0" y1="0" x2="-39.36628986812474" y2="71.16213937699472" stroke="rgba(255, 255, 255, 0)" stroke-width="30"></line></g><g><line class="connector" id="79bae6d6-d102-4478-bb37-1cabbea597f4" transform="translate(841,371) scale(1,1) " x1="-56.82353792009951" y1="-15.62159118078337" x2="-88.6764620799005" y2="-24.378408819216634" stroke="#808080" stroke-width="9" marker-start="url(#arrowRight)" stroke-linecap="butt"></line><line transform="translate(841,371) " class="outer-connector" id="79bae6d6-d102-4478-bb37-1cabbea597f4" x1="0" y1="0" x2="-107.96099344711939" y2="-29.679998198520796" stroke="rgba(255, 255, 255, 0)" stroke-width="30"></line></g><g><line class="connector" id="a130fe5e-dbff-43e0-a018-68bd07df26cb" transform="translate(841,371) scale(1,1) " x1="2.4021195470752383" y1="40.03532578458728" x2="3.597880452924766" y2="59.96467421541273" stroke="#808080" stroke-width="6" marker-start="url(#arrowRight)" stroke-linecap="butt"></line><line transform="translate(841,371) " class="outer-connector" id="a130fe5e-dbff-43e0-a018-68bd07df26cb" x1="0" y1="0" x2="4.795726267483701" y2="79.9287711247283" stroke="rgba(255, 255, 255, 0)" stroke-width="30"></line></g><g><line class="connector" id="c37b6005-715d-4b32-8e5c-44e5915f6693" transform="translate(841,371) scale(1,1) " x1="47.64852690166375" y1="28.914918034342953" x2="69.35147309833626" y2="42.08508196565704" stroke="#808080" stroke-width="9" marker-start="url(#arrowRight)" stroke-linecap="butt"></line><line transform="translate(841,371) " class="outer-connector" id="c37b6005-715d-4b32-8e5c-44e5915f6693" x1="0" y1="0" x2="86.44953829362422" y2="52.460830930318956" stroke="rgba(255, 255, 255, 0)" stroke-width="30"></line></g><g><line class="connector" id="56d4dfd5-350c-4e2e-ac04-1f629d13edc2" transform="translate(695.5,331) scale(1,1) " x1="19.551922557666355" y1="40.55887191032183" x2="87.94807744233367" y2="182.4411280896782" stroke="#808080" stroke-width="6" marker-start="url(#arrowRight)" stroke-linecap="butt"></line><line transform="translate(695.5,331) " class="outer-connector" id="56d4dfd5-350c-4e2e-ac04-1f629d13edc2" x1="0" y1="0" x2="96.63289058565128" y2="200.45706605209517" stroke="rgba(255, 255, 255, 0)" stroke-width="30"></line></g><g><line class="connector" id="4c973421-0c3a-46e3-9162-ede026db9464" transform="translate(495.5,331) scale(1,1) " x1="32.07191130647427" y1="-38.25618119965092" x2="79.42808869352574" y2="-94.74381880034906" stroke="#808080" stroke-width="3" marker-start="url(#arrowRight)" stroke-linecap="butt"></line><line transform="translate(495.5,331) " class="outer-connector" id="4c973421-0c3a-46e3-9162-ede026db9464" x1="0" y1="0" x2="92.27706024965481" y2="-110.07039473725638" stroke="rgba(255, 255, 255, 0)" stroke-width="30"></line></g><g><line class="connector" id="d83094f8-e99a-460e-8a81-94e7e4e818bb" transform="translate(727,119) scale(1,1) " x1="-46.08352613878782" y1="30.338321374701987" x2="-73.91647386121218" y2="48.66167862529804" stroke="#808080" stroke-width="3" marker-start="url(#arrowRight)" stroke-linecap="butt"></line><line transform="translate(727,119) " class="outer-connector" id="d83094f8-e99a-460e-8a81-94e7e4e818bb" x1="0" y1="0" x2="-90.6214505829811" y2="59.659121633795905" stroke="rgba(255, 255, 255, 0)" stroke-width="30"></line></g><g><line class="connector" id="8fc10bc5-d544-4369-86ab-d6f681505961" transform="translate(295.5,331) scale(1,1) " x1="-58.440468120905294" y1="-11.06034435024806" x2="-137.05953187909472" y2="-25.939655649751938" stroke="#808080" stroke-width="3" marker-start="url(#arrowRight)" stroke-linecap="butt"></line><line transform="translate(295.5,331) " class="outer-connector" id="8fc10bc5-d544-4369-86ab-d6f681505961" x1="0" y1="0" x2="-156.71068864561823" y2="-29.658800408633624" stroke="rgba(255, 255, 255, 0)" stroke-width="30"></line></g><g><line class="connector" id="4fbb6d85-94f7-4237-aa9c-ec0dd9acbf4f" transform="translate(295.5,331) scale(1,1) " x1="-32.808111487034274" y1="-38.00396624742432" x2="-77.6918885129657" y2="-89.99603375257567" stroke="#808080" stroke-width="3" marker-start="url(#arrowRight)" stroke-linecap="butt"></line><line transform="translate(295.5,331) " class="outer-connector" id="4fbb6d85-94f7-4237-aa9c-ec0dd9acbf4f" x1="0" y1="0" x2="-90.76120631668259" y2="-105.13515301841967" stroke="rgba(255, 255, 255, 0)" stroke-width="30"></line></g><g><line class="connector" id="2bc379c0-aa41-4b9d-a90b-8adc2a195265" transform="translate(495.5,331) scale(1,1) " x1="0.9710163356993444" y1="40.00587303081312" x2="1.5289836643006474" y2="62.99412696918687" stroke="#808080" stroke-width="3" marker-start="url(#arrowRight)" stroke-linecap="butt"></line><line transform="translate(495.5,331) " class="outer-connector" id="2bc379c0-aa41-4b9d-a90b-8adc2a195265" x1="0" y1="0" x2="2.0142776297686087" y2="82.98823834646694" stroke="rgba(255, 255, 255, 0)" stroke-width="30"></line></g><g><line class="connector" id="955965c9-b28d-424e-b64f-49265178729a" transform="translate(498,434) scale(1,1) " x1="-1.6908881836877714" y1="40.01768701394382" x2="-4.309111816312243" y2="101.98231298605617" stroke="#808080" stroke-width="3" marker-start="url(#arrowRight)" stroke-linecap="butt"></line><line transform="translate(498,434) " class="outer-connector" id="955965c9-b28d-424e-b64f-49265178729a" x1="0" y1="0" x2="-5.153428869988596" y2="121.96448325639646" stroke="rgba(255, 255, 255, 0)" stroke-width="30"></line></g><g><line class="connector" id="eb0486d5-4f22-47a5-89c6-d2e410520773" transform="translate(295.5,331) scale(1,1) " x1="-2.587674553650476" y1="40.040858882802056" x2="-6.912325446349534" y2="106.95914111719793" stroke="#808080" stroke-width="6" marker-start="url(#arrowRight)" stroke-linecap="butt"></line><line transform="translate(295.5,331) " class="outer-connector" id="eb0486d5-4f22-47a5-89c6-d2e410520773" x1="0" y1="0" x2="-8.202151779441754" y2="126.91750648188804" stroke="rgba(255, 255, 255, 0)" stroke-width="30"></line></g><g><line class="connector" id="b5e995a2-84ff-4853-8b9a-8d28f2a26ad2" transform="translate(492,576) scale(1,1) " x1="-51.58849261407583" y1="-24.542098428055496" x2="-154.41150738592415" y2="-73.4579015719445" stroke="#808080" stroke-width="3" marker-start="url(#arrowRight)" stroke-linecap="butt"></line><line transform="translate(492,576) " class="outer-connector" id="b5e995a2-84ff-4853-8b9a-8d28f2a26ad2" x1="0" y1="0" x2="-172.4719575919652" y2="-82.04976623307084" stroke="rgba(255, 255, 255, 0)" stroke-width="30"></line></g><g><line class="connector" id="277869e5-245d-46a6-b213-74b29f6ac5fc" transform="translate(498,434) scale(1,1) " x1="-58.13673132508287" y1="12.066114048602103" x2="-153.86326867491712" y2="31.933885951397887" stroke="#808080" stroke-width="3" marker-start="url(#arrowRight)" stroke-linecap="butt"></line><line transform="translate(498,434) " class="outer-connector" id="277869e5-245d-46a6-b213-74b29f6ac5fc" x1="0" y1="0" x2="-173.44594542425202" y2="35.9982150880523" stroke="rgba(255, 255, 255, 0)" stroke-width="30"></line></g><g><line class="connector" id="da19ba40-35cf-49df-850d-4d0b0cd6e4cb" transform="translate(498,434) scale(1,1) " x1="48.542018780682646" y1="28.031306619830822" x2="93.45798121931736" y2="53.96869338016918" stroke="#808080" stroke-width="3" marker-start="url(#arrowRight)" stroke-linecap="butt"></line><line transform="translate(498,434) " class="outer-connector" id="da19ba40-35cf-49df-850d-4d0b0cd6e4cb" x1="0" y1="0" x2="110.7776303771471" y2="63.97018092201452" stroke="rgba(255, 255, 255, 0)" stroke-width="30"></line></g><g><line class="connector" id="134821c4-e93f-4cfe-a49a-87f0ac192f81" transform="translate(695.5,331) scale(1,1) " x1="-12.166354292807982" y1="40.55451430935991" x2="-43.333645707192055" y2="144.44548569064006" stroke="#808080" stroke-width="3" marker-start="url(#arrowRight)" stroke-linecap="butt"></line><line transform="translate(695.5,331) " class="outer-connector" id="134821c4-e93f-4cfe-a49a-87f0ac192f81" x1="0" y1="0" x2="-49.08060341851896" y2="163.6020113950631" stroke="rgba(255, 255, 255, 0)" stroke-width="30"></line></g><g><line class="connector" id="297a52ec-6c79-4815-8d14-7b97d6661611" transform="translate(295.5,331) scale(1,1) " x1="10.723052368583549" y1="-40.48253478476485" x2="33.77694763141646" y2="-127.51746521523515" stroke="#808080" stroke-width="6" marker-start="url(#arrowRight)" stroke-linecap="butt"></line><line transform="translate(295.5,331) " class="outer-connector" id="297a52ec-6c79-4815-8d14-7b97d6661611" x1="0" y1="0" x2="38.89796181290127" y2="-146.85073223746994" stroke="rgba(255, 255, 255, 0)" stroke-width="30"></line></g><g><line class="connector" id="8c286aed-3856-4ee5-8be1-49890e298580" transform="translate(185,203) scale(1,1) " x1="57.17889186741418" y1="-14.755843062558498" x2="97.82110813258582" y2="-25.2441569374415" stroke="#808080" stroke-width="3" marker-start="url(#arrowRight)" stroke-linecap="butt"></line><line transform="translate(185,203) " class="outer-connector" id="8c286aed-3856-4ee5-8be1-49890e298580" x1="0" y1="0" x2="117.18665460677296" y2="-30.241717317876894" stroke="rgba(255, 255, 255, 0)" stroke-width="30"></line></g><g><line class="connector" id="bfa57f4c-8aed-4258-8227-735154739524" transform="translate(495.5,331) scale(1,1) " x1="-3.2084296615949497" y1="-40.06201361234774" x2="-15.291570338405053" y2="-190.93798638765227" stroke="#808080" stroke-width="3" marker-start="url(#arrowRight)" stroke-linecap="butt"></line><line transform="translate(495.5,331) " class="outer-connector" id="bfa57f4c-8aed-4258-8227-735154739524" x1="0" y1="0" x2="-16.88818987670678" y2="-210.87415467671707" stroke="rgba(255, 255, 255, 0)" stroke-width="30"></line></g><g><line class="connector" id="0ac3dfa5-9381-4e1b-b048-f32f5a9aeafd" transform="translate(477,100) scale(1,1) " x1="-52.050199829593694" y1="23.935493352294912" x2="-84.94980017040629" y2="39.06450664770509" stroke="#808080" stroke-width="3" marker-start="url(#arrowRight)" stroke-linecap="butt"></line><line transform="translate(477,100) " class="outer-connector" id="0ac3dfa5-9381-4e1b-b048-f32f5a9aeafd" x1="0" y1="0" x2="-103.12061621486889" y2="47.42042935428278" stroke="rgba(255, 255, 255, 0)" stroke-width="30"></line></g><g><line class="connector" id="339141ab-a0b8-4ee1-86a1-1c0dc2968dd4" transform="translate(131,416) scale(1,1) " x1="-10.280269387666968" y1="-40.457834364366775" x2="-20.719730612333034" y2="-81.54216563563322" stroke="#808080" stroke-width="3" marker-start="url(#arrowRight)" stroke-linecap="butt"></line><line transform="translate(131,416) " class="outer-connector" id="339141ab-a0b8-4ee1-86a1-1c0dc2968dd4" x1="0" y1="0" x2="-25.645176676743596" y2="-100.92617917944254" stroke="rgba(255, 255, 255, 0)" stroke-width="30"></line></g><g><line class="connector" id="b88f70e5-548c-439e-8ea2-e03e44fb0567" transform="translate(295.5,331) scale(1,1) " x1="-50.37551102580104" y1="26.0298993142437" x2="-114.12448897419897" y2="58.97010068575631" stroke="#808080" stroke-width="9" marker-start="url(#arrowRight)" stroke-linecap="butt"></line><line transform="translate(295.5,331) " class="outer-connector" id="b88f70e5-548c-439e-8ea2-e03e44fb0567" x1="0" y1="0" x2="-131.89264002793055" y2="68.15121217248692" stroke="rgba(255, 255, 255, 0)" stroke-width="30"></line></g><g><line class="connector" id="eb42d084-62d4-4569-a35d-370343936f52" transform="translate(733,236) scale(1,1) " x1="59.699177080669514" y1="-4.896462473493399" x2="257.30082291933047" y2="-21.103537526506603" stroke="#808080" stroke-width="9" marker-start="url(#arrowRight)" stroke-linecap="butt"></line><line transform="translate(733,236) " class="outer-connector" id="eb42d084-62d4-4569-a35d-370343936f52" x1="0" y1="0" x2="277.2338893877041" y2="-22.738426258928413" stroke="rgba(255, 255, 255, 0)" stroke-width="30"></line></g><g><line class="connector" id="10223c56-00d8-4460-a248-2a819f15b548" transform="translate(893,277) scale(1,1) " x1="52.994326061073444" y1="-22.615413032432613" x2="104.00567393892658" y2="-44.38458696756739" stroke="#808080" stroke-width="9" marker-start="url(#arrowRight)" stroke-linecap="butt"></line><line transform="translate(893,277) " class="outer-connector" id="10223c56-00d8-4460-a248-2a819f15b548" x1="0" y1="0" x2="122.40067336387297" y2="-52.23468226356361" stroke="rgba(255, 255, 255, 0)" stroke-width="30"></line></g><g><line class="connector" id="a324a7fc-9f3d-4513-96b2-38e2a8ce2119" transform="translate(841,371) scale(1,1) " x1="42.74504060917878" y1="-32.92799778984586" x2="166.2549593908212" y2="-128.07200221015415" stroke="#808080" stroke-width="9" marker-start="url(#arrowRight)" stroke-linecap="butt"></line><line transform="translate(841,371) " class="outer-connector" id="a324a7fc-9f3d-4513-96b2-38e2a8ce2119" x1="0" y1="0" x2="182.09898085926903" y2="-140.27720535092016" stroke="rgba(255, 255, 255, 0)" stroke-width="30"></line></g><g><line class="connector" id="e4732ac6-2f8b-49a8-b78e-feff022aa7b1" transform="translate(1050,210) scale(1,1) " x1="-16.119606664309266" y1="40.649442892605975" x2="-75.88039333569074" y2="191.35055710739402" stroke="#808080" stroke-width="9" marker-start="url(#arrowRight)" stroke-linecap="butt"></line><line transform="translate(1050,210) " class="outer-connector" id="e4732ac6-2f8b-49a8-b78e-feff022aa7b1" x1="0" y1="0" x2="-83.25290774135321" y2="209.94211517384718" stroke="rgba(255, 255, 255, 0)" stroke-width="30"></line></g><g><line class="connector" id="0791b388-b8d7-4dcc-a1e7-8196481ca0f5" transform="translate(1050,210) scale(1,1) " x1="-30.202384399475743" y1="38.83163708504024" x2="-172.79761560052427" y2="222.16836291495977" stroke="#808080" stroke-width="9" marker-start="url(#arrowRight)" stroke-linecap="butt"></line><line transform="translate(1050,210) " class="outer-connector" id="0791b388-b8d7-4dcc-a1e7-8196481ca0f5" x1="0" y1="0" x2="-185.07642787082267" y2="237.9554072624863" stroke="rgba(255, 255, 255, 0)" stroke-width="30"></line></g><g transform="translate(495.5,331) scale(0.45)"><rect id="0d2c66e0-9d9e-4f1e-a46a-3079b0f38f6e" class="node" x="-100" y="-60" width="200" height="120" transform="translate(0,0)" fill="#F0EEC0" stroke="#F3F033" stroke-width="5"></rect><text id="0d2c66e0-9d9e-4f1e-a46a-3079b0f38f6e" class="noselect node" x="0" fill="black" alignment-baseline="center" text-anchor="middle" font-size="20px" y="-20">social  <tspan dy="1.1em" x="0">assistance</tspan>  <tspan dy="1.1em" x="0">robot</tspan></text></g><g transform="translate(295.5,331) scale(0.45)"><polygon id="9e01f721-94ac-4320-9aef-9c5d9f11a3be" class="node" points="-100,0 -60,-60 60,-60 100,0 60,60 -60,60" transform="translate(0,0)" fill="#EB8989" stroke="#E04848" stroke-width="9"></polygon><text id="9e01f721-94ac-4320-9aef-9c5d9f11a3be" class="noselect node" x="0" fill="black" alignment-baseline="center" text-anchor="middle" font-size="20px" y="0">disadvantages</text></g><g transform="translate(695.5,331) scale(0.45)"><ellipse id="df004969-9779-415a-bacb-d5a72ad6e9c6" class="node" null="cy" rx="100" ry="70" transform="translate(0,0)" fill="#B9F1B9" stroke="#22AA22" stroke-width="9" opacity="1"></ellipse><text id="df004969-9779-415a-bacb-d5a72ad6e9c6" class="noselect node" x="0" fill="black" alignment-baseline="center" text-anchor="middle" font-size="20px" y="0">advantages</text></g><g transform="translate(733,236) scale(0.45)"><ellipse id="29a32bbe-1264-4e5e-891f-d70e4638301e" class="node" null="cy" rx="100" ry="70" transform="translate(0,0)" fill="#B9F1B9" stroke="#22AA22" stroke-width="9" opacity="1"></ellipse><text id="29a32bbe-1264-4e5e-891f-d70e4638301e" class="noselect node" x="0" fill="black" alignment-baseline="center" text-anchor="middle" font-size="20px" y="0">learning</text></g><g transform="translate(727,119) scale(0.45)"><g><polygon id="e23e404a-2c9e-446f-94fa-ee004b7e8360" class="node" points="-100,0 -60,-60 60,-60 100,0 60,60 -60,60" transform="translate(0,0)" fill="rgb(247, 151, 226)" stroke="rgb(142, 19, 146)" stroke-width="5"></polygon><ellipse id="e23e404a-2c9e-446f-94fa-ee004b7e8360" class="node" null="cy" rx="90" ry="55" transform="translate(0,0)" fill="rgb(247, 151, 226)" stroke="rgb(142, 19, 146)" stroke-width="3"></ellipse></g><text id="e23e404a-2c9e-446f-94fa-ee004b7e8360" class="noselect node" x="0" fill="black" alignment-baseline="center" text-anchor="middle" font-size="20px" y="0">Social interactions</text></g><g transform="translate(851,107) scale(0.45)"><ellipse id="ffc0fdf1-8d65-4b29-9513-a306718f0f05" class="node" null="cy" rx="100" ry="70" transform="translate(0,0)" fill="#B9F1B9" stroke="#22AA22" stroke-width="3" opacity="1"></ellipse><text id="ffc0fdf1-8d65-4b29-9513-a306718f0f05" class="noselect node" x="0" fill="black" alignment-baseline="center" text-anchor="middle" font-size="20px" y="0">Emotion recognition</text></g><g transform="translate(893,277) scale(0.45)"><ellipse id="40b746a5-2744-4a68-b8be-5024914d44fc" class="node" null="cy" rx="100" ry="70" transform="translate(0,0)" fill="#B9F1B9" stroke="#22AA22" stroke-width="9" opacity="1"></ellipse><text id="40b746a5-2744-4a68-b8be-5024914d44fc" class="noselect node" x="0" fill="black" alignment-baseline="center" text-anchor="middle" font-size="20px" y="-20"> <tspan dy="1.1em" x="0">Non-judgmental</tspan>  <tspan dy="1.1em" x="0">feedback</tspan></text></g><g transform="translate(841,371) scale(0.45)"><ellipse id="3c9a8b42-c551-4d9d-9175-ccf243a333e1" class="node" null="cy" rx="100" ry="70" transform="translate(0,0)" fill="#B9F1B9" stroke="#22AA22" stroke-width="9" opacity="1"></ellipse><text id="3c9a8b42-c551-4d9d-9175-ccf243a333e1" class="noselect node" x="0" fill="black" alignment-baseline="center" text-anchor="middle" font-size="20px" y="0">(Pre-)judgment-free</text></g><g transform="translate(847,471) scale(0.45)"><ellipse id="a13ed83d-d1c7-4126-b155-6f5ac27617ac" class="node" null="cy" rx="100" ry="70" transform="translate(0,0)" fill="#B9F1B9" stroke="#22AA22" stroke-width="9" opacity="1"></ellipse><text id="a13ed83d-d1c7-4126-b155-6f5ac27617ac" class="noselect node" x="0" fill="black" alignment-baseline="center" text-anchor="middle" font-size="20px" y="0">Fear-relieving</text></g><g transform="translate(958,442) scale(0.45)"><ellipse id="8ebe54fa-e113-40b5-b97b-35ad5b094743" class="node" null="cy" rx="100" ry="70" transform="translate(0,0)" fill="#B9F1B9" stroke="#22AA22" stroke-width="6" opacity="1"></ellipse><text id="8ebe54fa-e113-40b5-b97b-35ad5b094743" class="noselect node" x="0" fill="black" alignment-baseline="center" text-anchor="middle" font-size="20px" y="0">Possible to try out</text></g><g transform="translate(803,554) scale(0.45)"><ellipse id="d0bb1b40-5c9e-4014-893d-68809aff56a2" class="node" null="cy" rx="100" ry="70" transform="translate(0,0)" fill="#B9F1B9" stroke="#22AA22" stroke-width="6" opacity="1"></ellipse><text id="d0bb1b40-5c9e-4014-893d-68809aff56a2" class="noselect node" x="0" fill="black" alignment-baseline="center" text-anchor="middle" font-size="20px" y="0">supportive</text></g><g transform="translate(185,203) scale(0.45)"><polygon id="6935c6c8-0006-429a-b36f-84db72cba39e" class="node" points="-100,0 -60,-60 60,-60 100,0 60,60 -60,60" transform="translate(0,0)" fill="#EB8989" stroke="#E04848" stroke-width="6"></polygon><text id="6935c6c8-0006-429a-b36f-84db72cba39e" class="noselect node" x="0" fill="black" alignment-baseline="center" text-anchor="middle" font-size="20px" y="-20">Not  <tspan dy="1.1em" x="0">empathetic</tspan>  <tspan dy="1.1em" x="0">(enough)</tspan></text></g><g transform="translate(607,198) scale(0.45)"><g><polygon id="29ab904b-e68b-48ea-a1df-2c755338f3a3" class="node" points="-100,0 -60,-60 60,-60 100,0 60,60 -60,60" transform="translate(0,0)" fill="rgb(247, 151, 226)" stroke="rgb(142, 19, 146)" stroke-width="5"></polygon><ellipse id="29ab904b-e68b-48ea-a1df-2c755338f3a3" class="node" null="cy" rx="90" ry="55" transform="translate(0,0)" fill="rgb(247, 151, 226)" stroke="rgb(142, 19, 146)" stroke-width="3"></ellipse></g><text id="29ab904b-e68b-48ea-a1df-2c755338f3a3" class="noselect node" x="0" fill="black" alignment-baseline="center" text-anchor="middle" font-size="20px" y="0">No human contact</text></g><g transform="translate(100,294) scale(0.45)"><polygon id="5daaa4e2-8648-4e06-9c77-81875daf4040" class="node" points="-100,0 -60,-60 60,-60 100,0 60,60 -60,60" transform="translate(0,0)" fill="#EB8989" stroke="#E04848" stroke-width="6"></polygon><text id="5daaa4e2-8648-4e06-9c77-81875daf4040" class="noselect node" x="0" fill="black" alignment-baseline="center" text-anchor="middle" font-size="20px" y="-20"> <tspan dy="1.1em" x="0">Unforeseen</tspan>  <tspan dy="1.1em" x="0">reactions</tspan></text></g><g transform="translate(498,434) scale(0.45)"><g><polygon id="4565c189-4856-4734-93d1-dbbcaab23281" class="node" points="-100,0 -60,-60 60,-60 100,0 60,60 -60,60" transform="translate(0,0)" fill="rgb(247, 151, 226)" stroke="rgb(142, 19, 146)" stroke-width="5"></polygon><ellipse id="4565c189-4856-4734-93d1-dbbcaab23281" class="node" null="cy" rx="90" ry="55" transform="translate(0,0)" fill="rgb(247, 151, 226)" stroke="rgb(142, 19, 146)" stroke-width="3"></ellipse></g><text id="4565c189-4856-4734-93d1-dbbcaab23281" class="noselect node" x="0" fill="black" alignment-baseline="center" text-anchor="middle" font-size="20px" y="0">jobs</text></g><g transform="translate(492,576) scale(0.45)"><g><polygon id="34833698-b468-44b2-bdbe-aeec90c2480d" class="node" points="-100,0 -60,-60 60,-60 100,0 60,60 -60,60" transform="translate(0,0)" fill="rgb(247, 151, 226)" stroke="rgb(142, 19, 146)" stroke-width="5"></polygon><ellipse id="34833698-b468-44b2-bdbe-aeec90c2480d" class="node" null="cy" rx="90" ry="55" transform="translate(0,0)" fill="rgb(247, 151, 226)" stroke="rgb(142, 19, 146)" stroke-width="3"></ellipse></g><text id="34833698-b468-44b2-bdbe-aeec90c2480d" class="noselect node" x="0" fill="black" alignment-baseline="center" text-anchor="middle" font-size="20px" y="0">replaces human care</text></g><g transform="translate(286,478) scale(0.45)"><polygon id="e5e12fe0-18ff-48e3-a58f-5b11dfec9c0b" class="node" points="-100,0 -60,-60 60,-60 100,0 60,60 -60,60" transform="translate(0,0)" fill="#EB8989" stroke="#E04848" stroke-width="9"></polygon><text id="e5e12fe0-18ff-48e3-a58f-5b11dfec9c0b" class="noselect node" x="0" fill="black" alignment-baseline="center" text-anchor="middle" font-size="20px" y="-20">Loss of  <tspan dy="1.1em" x="0">therapist</tspan>  <tspan dy="1.1em" x="0">jobs</tspan></text></g><g transform="translate(640,516) scale(0.45)"><ellipse id="6d11ad90-62f1-4d45-b551-f6662c69cf8e" class="node" null="cy" rx="100" ry="70" transform="translate(0,0)" fill="#B9F1B9" stroke="#22AA22" stroke-width="6" opacity="1"></ellipse><text id="6d11ad90-62f1-4d45-b551-f6662c69cf8e" class="noselect node" x="0" fill="black" alignment-baseline="center" text-anchor="middle" font-size="20px" y="-20">creates  <tspan dy="1.1em" x="0">jobs</tspan>  <tspan dy="1.1em" x="0">development</tspan></text></g><g transform="translate(340,163) scale(0.45)"><polygon id="8637d644-33ec-49c0-b022-74fbb3d6ebd3" class="node" points="-100,0 -60,-60 60,-60 100,0 60,60 -60,60" transform="translate(0,0)" fill="#EB8989" stroke="#E04848" stroke-width="6"></polygon><text id="8637d644-33ec-49c0-b022-74fbb3d6ebd3" class="noselect node" x="0" fill="black" alignment-baseline="center" text-anchor="middle" font-size="20px" y="-20"> <tspan dy="1.1em" x="0">unrealistic</tspan>  <tspan dy="1.1em" x="0">learned</tspan>  <tspan dy="1.1em" x="0">handling</tspan></text></g><g transform="translate(477,100) scale(0.45)"><g><polygon id="7fa54b12-eb1e-4b08-81cf-a4995efdd5ae" class="node" points="-100,0 -60,-60 60,-60 100,0 60,60 -60,60" transform="translate(0,0)" fill="rgb(247, 151, 226)" stroke="rgb(142, 19, 146)" stroke-width="5"></polygon><ellipse id="7fa54b12-eb1e-4b08-81cf-a4995efdd5ae" class="node" null="cy" rx="90" ry="55" transform="translate(0,0)" fill="rgb(247, 151, 226)" stroke="rgb(142, 19, 146)" stroke-width="3"></ellipse></g><text id="7fa54b12-eb1e-4b08-81cf-a4995efdd5ae" class="noselect node" x="0" fill="black" alignment-baseline="center" text-anchor="middle" font-size="20px" y="-20"> <tspan dy="1.1em" x="0">integration</tspan> into  <tspan dy="1.1em" x="0">society</tspan></text></g><g transform="translate(131,416) scale(0.45)"><polygon id="c4f466b4-502a-472f-a3bc-47e8d3df8c6d" class="node" points="-100,0 -60,-60 60,-60 100,0 60,60 -60,60" transform="translate(0,0)" fill="#EB8989" stroke="#E04848" stroke-width="9"></polygon><text id="c4f466b4-502a-472f-a3bc-47e8d3df8c6d" class="noselect node" x="0" fill="black" alignment-baseline="center" text-anchor="middle" font-size="20px" y="0">unresearched</text></g><g transform="translate(1050,210) scale(0.45)"><ellipse id="a4e8f45d-8247-4a9c-81ea-814594e9a1c4" class="node" null="cy" rx="100" ry="70" transform="translate(0,0)" fill="#B9F1B9" stroke="#22AA22" stroke-width="9" opacity="1"></ellipse><text id="a4e8f45d-8247-4a9c-81ea-814594e9a1c4" class="noselect node" x="0" fill="black" alignment-baseline="center" text-anchor="middle" font-size="20px" y="0">infinite patience</text></g></svg>