<?xml version="1.0" standalone="no"?>
<svg id="CAMSVG" xmlns="http://www.w3.org/2000/svg" height="1400px" width="2400px"><rect id="background" x="0" y="0" width="100%" height="100%" fill="white"></rect><marker id="arrowRight" markerWidth="30" markerHeight="15" refX="30" refY="7.5" orient="auto" markerUnits="userSpaceOnUse"><polygon points="0 0, 0 0, 0 0" fill="#8c8c8c"></polygon></marker><marker id="arrowLeft" markerWidth="30" markerHeight="15" refX="0" refY="7.5" orient="auto" markerUnits="userSpaceOnUse"><polygon points="0 0, 0 0, 0 0" fill="#8c8c8c"></polygon></marker><g><line class="connector" id="7bfd908f-7be5-4ea9-bed5-d165ba692557" transform="translate(295.5,331) scale(1,1) " x1="60" y1="0" x2="140" y2="0" stroke="#808080" stroke-width="9" marker-start="url(#arrowRight)" stroke-dasharray="20,10"></line><line transform="translate(295.5,331) " class="outer-connector" id="7bfd908f-7be5-4ea9-bed5-d165ba692557" x1="0" y1="0" x2="160" y2="0" stroke="rgba(255, 255, 255, 0)" stroke-width="30"></line></g><g><line class="connector" id="8521111d-61fe-4601-b652-a927ec444f2a" transform="translate(695.5,331) scale(1,1) " x1="-60" y1="0" x2="-140" y2="0" stroke="#808080" stroke-width="9" marker-start="url(#arrowRight)" stroke-linecap="butt"></line><line transform="translate(695.5,331) " class="outer-connector" id="8521111d-61fe-4601-b652-a927ec444f2a" x1="0" y1="0" x2="-160" y2="0" stroke="rgba(255, 255, 255, 0)" stroke-width="30"></line></g><g><line class="connector" id="8a9ab0b8-9e2a-4d94-8225-9b10a9df9716" transform="translate(733,236) scale(1,1) " x1="-2.0526121953405494" y1="-40.025937809140785" x2="-3.94738780465944" y2="-76.97406219085921" stroke="#808080" stroke-width="3" marker-start="url(#arrowRight)" stroke-linecap="butt"></line><line transform="translate(733,236) " class="outer-connector" id="8a9ab0b8-9e2a-4d94-8225-9b10a9df9716" x1="0" y1="0" x2="-4.971682844122606" y2="-96.94781546039098" stroke="rgba(255, 255, 255, 0)" stroke-width="30"></line></g><g><line class="connector" id="22cdfb4b-dff2-4c81-9870-921fb3148fb7" transform="translate(733,236) scale(1,1) " x1="34.26566146501948" y1="-37.45991804226706" x2="83.73433853498052" y2="-91.54008195773295" stroke="#808080" stroke-width="3" marker-start="url(#arrowRight)" stroke-linecap="butt"></line><line transform="translate(733,236) " class="outer-connector" id="22cdfb4b-dff2-4c81-9870-921fb3148fb7" x1="0" y1="0" x2="97.23328275940855" y2="-106.29740233867545" stroke="rgba(255, 255, 255, 0)" stroke-width="30"></line></g><g><line class="connector" id="8325d015-22a6-4666-8975-6278ae45c414" transform="translate(733,236) scale(1,1) " x1="57.216140810422715" y1="14.661636082670823" x2="102.7838591895773" y2="26.33836391732919" stroke="#808080" stroke-width="6" marker-start="url(#arrowRight)" stroke-linecap="butt"></line><line transform="translate(733,236) " class="outer-connector" id="8325d015-22a6-4666-8975-6278ae45c414" x1="0" y1="0" x2="122.15788328494118" y2="31.302957591766184" stroke="rgba(255, 255, 255, 0)" stroke-width="30"></line></g><g><line class="connector" id="f3676370-981b-4016-82ed-84cbf12a449d" transform="translate(695.5,331) scale(1,1) " x1="16.045824477999727" y1="-40.64942201093264" x2="21.45417552200028" y2="-54.35057798906737" stroke="#808080" stroke-width="9" marker-start="url(#arrowRight)" stroke-linecap="butt"></line><line transform="translate(695.5,331) " class="outer-connector" id="f3676370-981b-4016-82ed-84cbf12a449d" x1="0" y1="0" x2="28.79750621672125" y2="-72.95368241569382" stroke="rgba(255, 255, 255, 0)" stroke-width="30"></line></g><g><line class="connector" id="bcbef3d5-ac10-4524-af2d-5d99b5adfc03" transform="translate(893,277) scale(1,1) " x1="-22.314937835220576" y1="40.338541471360266" x2="-29.685062164779428" y2="53.66145852863973" stroke="#808080" stroke-width="9" marker-start="url(#arrowRight)" stroke-linecap="butt"></line><line transform="translate(893,277) " class="outer-connector" id="bcbef3d5-ac10-4524-af2d-5d99b5adfc03" x1="0" y1="0" x2="-39.36628986812474" y2="71.16213937699472" stroke="rgba(255, 255, 255, 0)" stroke-width="30"></line></g><g><line class="connector" id="217b7f4b-d9f8-45e0-9829-79f4c4edfc1f" transform="translate(841,371) scale(1,1) " x1="-56.82353792009951" y1="-15.62159118078337" x2="-88.6764620799005" y2="-24.378408819216634" stroke="#808080" stroke-width="9" marker-start="url(#arrowRight)" stroke-linecap="butt"></line><line transform="translate(841,371) " class="outer-connector" id="217b7f4b-d9f8-45e0-9829-79f4c4edfc1f" x1="0" y1="0" x2="-107.96099344711939" y2="-29.679998198520796" stroke="rgba(255, 255, 255, 0)" stroke-width="30"></line></g><g><line class="connector" id="bd0ee7f3-e734-4d15-99af-f2920a8cb652" transform="translate(841,371) scale(1,1) " x1="2.4021195470752383" y1="40.03532578458728" x2="3.597880452924766" y2="59.96467421541273" stroke="#808080" stroke-width="6" marker-start="url(#arrowRight)" stroke-linecap="butt"></line><line transform="translate(841,371) " class="outer-connector" id="bd0ee7f3-e734-4d15-99af-f2920a8cb652" x1="0" y1="0" x2="4.795726267483701" y2="79.9287711247283" stroke="rgba(255, 255, 255, 0)" stroke-width="30"></line></g><g><line class="connector" id="31447b95-e415-46dc-83ff-1668bdb75818" transform="translate(841,371) scale(1,1) " x1="47.64852690166375" y1="28.914918034342953" x2="69.35147309833626" y2="42.08508196565704" stroke="#808080" stroke-width="9" marker-start="url(#arrowRight)" stroke-linecap="butt"></line><line transform="translate(841,371) " class="outer-connector" id="31447b95-e415-46dc-83ff-1668bdb75818" x1="0" y1="0" x2="86.44953829362422" y2="52.460830930318956" stroke="rgba(255, 255, 255, 0)" stroke-width="30"></line></g><g><line class="connector" id="aeda8380-f525-4095-b234-07c59d596881" transform="translate(695.5,331) scale(1,1) " x1="19.551922557666355" y1="40.55887191032183" x2="87.94807744233367" y2="182.4411280896782" stroke="#808080" stroke-width="6" marker-start="url(#arrowRight)" stroke-linecap="butt"></line><line transform="translate(695.5,331) " class="outer-connector" id="aeda8380-f525-4095-b234-07c59d596881" x1="0" y1="0" x2="96.63289058565128" y2="200.45706605209517" stroke="rgba(255, 255, 255, 0)" stroke-width="30"></line></g><g><line class="connector" id="0b81a637-48cc-455f-a720-8128d6376e71" transform="translate(495.5,331) scale(1,1) " x1="32.07191130647427" y1="-38.25618119965092" x2="79.42808869352574" y2="-94.74381880034906" stroke="#808080" stroke-width="3" marker-start="url(#arrowRight)" stroke-linecap="butt"></line><line transform="translate(495.5,331) " class="outer-connector" id="0b81a637-48cc-455f-a720-8128d6376e71" x1="0" y1="0" x2="92.27706024965481" y2="-110.07039473725638" stroke="rgba(255, 255, 255, 0)" stroke-width="30"></line></g><g><line class="connector" id="79bd1d76-4e12-4d90-83da-1bd4c3b74bfa" transform="translate(727,119) scale(1,1) " x1="-46.08352613878782" y1="30.338321374701987" x2="-73.91647386121218" y2="48.66167862529804" stroke="#808080" stroke-width="3" marker-start="url(#arrowRight)" stroke-linecap="butt"></line><line transform="translate(727,119) " class="outer-connector" id="79bd1d76-4e12-4d90-83da-1bd4c3b74bfa" x1="0" y1="0" x2="-90.6214505829811" y2="59.659121633795905" stroke="rgba(255, 255, 255, 0)" stroke-width="30"></line></g><g><line class="connector" id="5b7196a2-9164-4db2-9f77-2b0232764e24" transform="translate(295.5,331) scale(1,1) " x1="-58.440468120905294" y1="-11.06034435024806" x2="-137.05953187909472" y2="-25.939655649751938" stroke="#808080" stroke-width="3" marker-start="url(#arrowRight)" stroke-linecap="butt"></line><line transform="translate(295.5,331) " class="outer-connector" id="5b7196a2-9164-4db2-9f77-2b0232764e24" x1="0" y1="0" x2="-156.71068864561823" y2="-29.658800408633624" stroke="rgba(255, 255, 255, 0)" stroke-width="30"></line></g><g><line class="connector" id="d29baefb-aa13-47c6-8a35-5cc7a2c8557f" transform="translate(295.5,331) scale(1,1) " x1="-32.808111487034274" y1="-38.00396624742432" x2="-77.6918885129657" y2="-89.99603375257567" stroke="#808080" stroke-width="3" marker-start="url(#arrowRight)" stroke-linecap="butt"></line><line transform="translate(295.5,331) " class="outer-connector" id="d29baefb-aa13-47c6-8a35-5cc7a2c8557f" x1="0" y1="0" x2="-90.76120631668259" y2="-105.13515301841967" stroke="rgba(255, 255, 255, 0)" stroke-width="30"></line></g><g><line class="connector" id="a667f348-cbe2-44ce-940c-9c94c0634a47" transform="translate(495.5,331) scale(1,1) " x1="0.9710163356993444" y1="40.00587303081312" x2="1.5289836643006474" y2="62.99412696918687" stroke="#808080" stroke-width="3" marker-start="url(#arrowRight)" stroke-linecap="butt"></line><line transform="translate(495.5,331) " class="outer-connector" id="a667f348-cbe2-44ce-940c-9c94c0634a47" x1="0" y1="0" x2="2.0142776297686087" y2="82.98823834646694" stroke="rgba(255, 255, 255, 0)" stroke-width="30"></line></g><g><line class="connector" id="ca36face-cd63-4577-8da9-addda394e919" transform="translate(498,434) scale(1,1) " x1="-1.6908881836877714" y1="40.01768701394382" x2="-4.309111816312243" y2="101.98231298605617" stroke="#808080" stroke-width="3" marker-start="url(#arrowRight)" stroke-linecap="butt"></line><line transform="translate(498,434) " class="outer-connector" id="ca36face-cd63-4577-8da9-addda394e919" x1="0" y1="0" x2="-5.153428869988596" y2="121.96448325639646" stroke="rgba(255, 255, 255, 0)" stroke-width="30"></line></g><g><line class="connector" id="9c095ec2-1c14-458a-9bde-7a59bac1149a" transform="translate(295.5,331) scale(1,1) " x1="-2.587674553650476" y1="40.040858882802056" x2="-6.912325446349534" y2="106.95914111719793" stroke="#808080" stroke-width="6" marker-start="url(#arrowRight)" stroke-linecap="butt"></line><line transform="translate(295.5,331) " class="outer-connector" id="9c095ec2-1c14-458a-9bde-7a59bac1149a" x1="0" y1="0" x2="-8.202151779441754" y2="126.91750648188804" stroke="rgba(255, 255, 255, 0)" stroke-width="30"></line></g><g><line class="connector" id="5d6b05e9-c606-48d9-87bd-84886e5bd37d" transform="translate(492,576) scale(1,1) " x1="-51.58849261407583" y1="-24.542098428055496" x2="-154.41150738592415" y2="-73.4579015719445" stroke="#808080" stroke-width="3" marker-start="url(#arrowRight)" stroke-linecap="butt"></line><line transform="translate(492,576) " class="outer-connector" id="5d6b05e9-c606-48d9-87bd-84886e5bd37d" x1="0" y1="0" x2="-172.4719575919652" y2="-82.04976623307084" stroke="rgba(255, 255, 255, 0)" stroke-width="30"></line></g><g><line class="connector" id="41210e8c-071d-47ff-8be6-28d681384369" transform="translate(498,434) scale(1,1) " x1="-58.13673132508287" y1="12.066114048602103" x2="-153.86326867491712" y2="31.933885951397887" stroke="#808080" stroke-width="3" marker-start="url(#arrowRight)" stroke-linecap="butt"></line><line transform="translate(498,434) " class="outer-connector" id="41210e8c-071d-47ff-8be6-28d681384369" x1="0" y1="0" x2="-173.44594542425202" y2="35.9982150880523" stroke="rgba(255, 255, 255, 0)" stroke-width="30"></line></g><g><line class="connector" id="9d734c08-20e6-4501-a6b0-a4fbd3084cb4" transform="translate(498,434) scale(1,1) " x1="48.542018780682646" y1="28.031306619830822" x2="93.45798121931736" y2="53.96869338016918" stroke="#808080" stroke-width="3" marker-start="url(#arrowRight)" stroke-linecap="butt"></line><line transform="translate(498,434) " class="outer-connector" id="9d734c08-20e6-4501-a6b0-a4fbd3084cb4" x1="0" y1="0" x2="110.7776303771471" y2="63.97018092201452" stroke="rgba(255, 255, 255, 0)" stroke-width="30"></line></g><g><line class="connector" id="8372ad89-1481-44e9-97e6-efe33a281e7e" transform="translate(695.5,331) scale(1,1) " x1="-12.166354292807982" y1="40.55451430935991" x2="-43.333645707192055" y2="144.44548569064006" stroke="#808080" stroke-width="3" marker-start="url(#arrowRight)" stroke-linecap="butt"></line><line transform="translate(695.5,331) " class="outer-connector" id="8372ad89-1481-44e9-97e6-efe33a281e7e" x1="0" y1="0" x2="-49.08060341851896" y2="163.6020113950631" stroke="rgba(255, 255, 255, 0)" stroke-width="30"></line></g><g><line class="connector" id="3f404e1c-bf4e-4ecf-9db5-996662026b45" transform="translate(295.5,331) scale(1,1) " x1="10.723052368583549" y1="-40.48253478476485" x2="33.77694763141646" y2="-127.51746521523515" stroke="#808080" stroke-width="6" marker-start="url(#arrowRight)" stroke-linecap="butt"></line><line transform="translate(295.5,331) " class="outer-connector" id="3f404e1c-bf4e-4ecf-9db5-996662026b45" x1="0" y1="0" x2="38.89796181290127" y2="-146.85073223746994" stroke="rgba(255, 255, 255, 0)" stroke-width="30"></line></g><g><line class="connector" id="735f3757-ab00-437c-a1a3-b7cf4b303a47" transform="translate(185,203) scale(1,1) " x1="57.17889186741418" y1="-14.755843062558498" x2="97.82110813258582" y2="-25.2441569374415" stroke="#808080" stroke-width="3" marker-start="url(#arrowRight)" stroke-linecap="butt"></line><line transform="translate(185,203) " class="outer-connector" id="735f3757-ab00-437c-a1a3-b7cf4b303a47" x1="0" y1="0" x2="117.18665460677296" y2="-30.241717317876894" stroke="rgba(255, 255, 255, 0)" stroke-width="30"></line></g><g><line class="connector" id="a6c88a33-4b7d-4011-86c1-c49dc704afb2" transform="translate(495.5,331) scale(1,1) " x1="-3.2084296615949497" y1="-40.06201361234774" x2="-15.291570338405053" y2="-190.93798638765227" stroke="#808080" stroke-width="3" marker-start="url(#arrowRight)" stroke-linecap="butt"></line><line transform="translate(495.5,331) " class="outer-connector" id="a6c88a33-4b7d-4011-86c1-c49dc704afb2" x1="0" y1="0" x2="-16.88818987670678" y2="-210.87415467671707" stroke="rgba(255, 255, 255, 0)" stroke-width="30"></line></g><g><line class="connector" id="a113dcfd-3a77-4b52-bbef-81a30eb42d00" transform="translate(477,100) scale(1,1) " x1="-52.050199829593694" y1="23.935493352294912" x2="-84.94980017040629" y2="39.06450664770509" stroke="#808080" stroke-width="3" marker-start="url(#arrowRight)" stroke-linecap="butt"></line><line transform="translate(477,100) " class="outer-connector" id="a113dcfd-3a77-4b52-bbef-81a30eb42d00" x1="0" y1="0" x2="-103.12061621486889" y2="47.42042935428278" stroke="rgba(255, 255, 255, 0)" stroke-width="30"></line></g><g><line class="connector" id="2b972896-6cf5-4e73-ac98-3b68fda6e0b9" transform="translate(131,416) scale(1,1) " x1="-10.280269387666968" y1="-40.457834364366775" x2="-20.719730612333034" y2="-81.54216563563322" stroke="#808080" stroke-width="3" marker-start="url(#arrowRight)" stroke-linecap="butt"></line><line transform="translate(131,416) " class="outer-connector" id="2b972896-6cf5-4e73-ac98-3b68fda6e0b9" x1="0" y1="0" x2="-25.645176676743596" y2="-100.92617917944254" stroke="rgba(255, 255, 255, 0)" stroke-width="30"></line></g><g><line class="connector" id="cf22e0c0-9ca1-404b-aea5-166e2542e816" transform="translate(295.5,331) scale(1,1) " x1="-50.37551102580104" y1="26.0298993142437" x2="-114.12448897419897" y2="58.97010068575631" stroke="#808080" stroke-width="9" marker-start="url(#arrowRight)" stroke-linecap="butt"></line><line transform="translate(295.5,331) " class="outer-connector" id="cf22e0c0-9ca1-404b-aea5-166e2542e816" x1="0" y1="0" x2="-131.89264002793055" y2="68.15121217248692" stroke="rgba(255, 255, 255, 0)" stroke-width="30"></line></g><g><line class="connector" id="3f2d5a26-2953-4f6b-829c-44384b7b04a7" transform="translate(733,236) scale(1,1) " x1="59.699177080669514" y1="-4.896462473493399" x2="257.30082291933047" y2="-21.103537526506603" stroke="#808080" stroke-width="9" marker-start="url(#arrowRight)" stroke-linecap="butt"></line><line transform="translate(733,236) " class="outer-connector" id="3f2d5a26-2953-4f6b-829c-44384b7b04a7" x1="0" y1="0" x2="277.2338893877041" y2="-22.738426258928413" stroke="rgba(255, 255, 255, 0)" stroke-width="30"></line></g><g><line class="connector" id="e1db7d83-447a-44ec-93a1-e570cae573d5" transform="translate(893,277) scale(1,1) " x1="52.994326061073444" y1="-22.615413032432613" x2="104.00567393892658" y2="-44.38458696756739" stroke="#808080" stroke-width="9" marker-start="url(#arrowRight)" stroke-linecap="butt"></line><line transform="translate(893,277) " class="outer-connector" id="e1db7d83-447a-44ec-93a1-e570cae573d5" x1="0" y1="0" x2="122.40067336387297" y2="-52.23468226356361" stroke="rgba(255, 255, 255, 0)" stroke-width="30"></line></g><g><line class="connector" id="38dc0227-aaeb-4952-b450-bfbffb2469d0" transform="translate(841,371) scale(1,1) " x1="42.74504060917878" y1="-32.92799778984586" x2="166.2549593908212" y2="-128.07200221015415" stroke="#808080" stroke-width="9" marker-start="url(#arrowRight)" stroke-linecap="butt"></line><line transform="translate(841,371) " class="outer-connector" id="38dc0227-aaeb-4952-b450-bfbffb2469d0" x1="0" y1="0" x2="182.09898085926903" y2="-140.27720535092016" stroke="rgba(255, 255, 255, 0)" stroke-width="30"></line></g><g><line class="connector" id="e0bfd012-c9bd-4ee5-b2e5-f8648bf6532f" transform="translate(1050,210) scale(1,1) " x1="-16.119606664309266" y1="40.649442892605975" x2="-75.88039333569074" y2="191.35055710739402" stroke="#808080" stroke-width="9" marker-start="url(#arrowRight)" stroke-linecap="butt"></line><line transform="translate(1050,210) " class="outer-connector" id="e0bfd012-c9bd-4ee5-b2e5-f8648bf6532f" x1="0" y1="0" x2="-83.25290774135321" y2="209.94211517384718" stroke="rgba(255, 255, 255, 0)" stroke-width="30"></line></g><g><line class="connector" id="2c0768c8-68f7-4108-b80d-b8907786d8a7" transform="translate(1050,210) scale(1,1) " x1="-30.202384399475743" y1="38.83163708504024" x2="-172.79761560052427" y2="222.16836291495977" stroke="#808080" stroke-width="9" marker-start="url(#arrowRight)" stroke-linecap="butt"></line><line transform="translate(1050,210) " class="outer-connector" id="2c0768c8-68f7-4108-b80d-b8907786d8a7" x1="0" y1="0" x2="-185.07642787082267" y2="237.9554072624863" stroke="rgba(255, 255, 255, 0)" stroke-width="30"></line></g><g transform="translate(495.5,331) scale(0.45)"><rect id="4743ceea-c13b-4381-aa5e-96b7417ba6a4" class="node" x="-100" y="-60" width="200" height="120" transform="translate(0,0)" fill="#F0EEC0" stroke="#F3F033" stroke-width="5"></rect><text id="4743ceea-c13b-4381-aa5e-96b7417ba6a4" class="noselect node" x="0" fill="black" alignment-baseline="center" text-anchor="middle" font-size="20px" y="-20">social  <tspan dy="1.1em" x="0">assistance</tspan>  <tspan dy="1.1em" x="0">robot</tspan></text></g><g transform="translate(295.5,331) scale(0.45)"><polygon id="4e1301af-64c7-4ba7-a6ad-3b1bf293a05b" class="node" points="-100,0 -60,-60 60,-60 100,0 60,60 -60,60" transform="translate(0,0)" fill="#EB8989" stroke="#E04848" stroke-width="9"></polygon><text id="4e1301af-64c7-4ba7-a6ad-3b1bf293a05b" class="noselect node" x="0" fill="black" alignment-baseline="center" text-anchor="middle" font-size="20px" y="0">risks</text></g><g transform="translate(695.5,331) scale(0.45)"><ellipse id="fb5a7b34-5711-4dd3-9153-8950893d6f5e" class="node" null="cy" rx="100" ry="70" transform="translate(0,0)" fill="#B9F1B9" stroke="#22AA22" stroke-width="9" opacity="1"></ellipse><text id="fb5a7b34-5711-4dd3-9153-8950893d6f5e" class="noselect node" x="0" fill="black" alignment-baseline="center" text-anchor="middle" font-size="20px" y="0">benefits</text></g><g transform="translate(733,236) scale(0.45)"><ellipse id="cecd7511-bb94-4425-9745-c7deb8ab4542" class="node" null="cy" rx="100" ry="70" transform="translate(0,0)" fill="#B9F1B9" stroke="#22AA22" stroke-width="9" opacity="1"></ellipse><text id="cecd7511-bb94-4425-9745-c7deb8ab4542" class="noselect node" x="0" fill="black" alignment-baseline="center" text-anchor="middle" font-size="20px" y="0">learning</text></g><g transform="translate(727,119) scale(0.45)"><g><polygon id="a58f8092-cde8-42f3-8f76-cbe89bc2ba4e" class="node" points="-100,0 -60,-60 60,-60 100,0 60,60 -60,60" transform="translate(0,0)" fill="rgb(247, 151, 226)" stroke="rgb(142, 19, 146)" stroke-width="5"></polygon><ellipse id="a58f8092-cde8-42f3-8f76-cbe89bc2ba4e" class="node" null="cy" rx="90" ry="55" transform="translate(0,0)" fill="rgb(247, 151, 226)" stroke="rgb(142, 19, 146)" stroke-width="3"></ellipse></g><text id="a58f8092-cde8-42f3-8f76-cbe89bc2ba4e" class="noselect node" x="0" fill="black" alignment-baseline="center" text-anchor="middle" font-size="20px" y="0">Social interactions</text></g><g transform="translate(851,107) scale(0.45)"><ellipse id="ed017813-3607-4d47-9cfc-b4d49d460298" class="node" null="cy" rx="100" ry="70" transform="translate(0,0)" fill="#B9F1B9" stroke="#22AA22" stroke-width="3" opacity="1"></ellipse><text id="ed017813-3607-4d47-9cfc-b4d49d460298" class="noselect node" x="0" fill="black" alignment-baseline="center" text-anchor="middle" font-size="20px" y="0">Emotion recognition</text></g><g transform="translate(893,277) scale(0.45)"><ellipse id="527d6103-24ff-49b4-85a0-7e998c2b072a" class="node" null="cy" rx="100" ry="70" transform="translate(0,0)" fill="#B9F1B9" stroke="#22AA22" stroke-width="9" opacity="1"></ellipse><text id="527d6103-24ff-49b4-85a0-7e998c2b072a" class="noselect node" x="0" fill="black" alignment-baseline="center" text-anchor="middle" font-size="20px" y="-20"> <tspan dy="1.1em" x="0">Non-judgmental</tspan>  <tspan dy="1.1em" x="0">feedback</tspan></text></g><g transform="translate(841,371) scale(0.45)"><ellipse id="a8aa6f65-6117-4c17-a13d-3a67c2a25623" class="node" null="cy" rx="100" ry="70" transform="translate(0,0)" fill="#B9F1B9" stroke="#22AA22" stroke-width="9" opacity="1"></ellipse><text id="a8aa6f65-6117-4c17-a13d-3a67c2a25623" class="noselect node" x="0" fill="black" alignment-baseline="center" text-anchor="middle" font-size="20px" y="0">(Pre-)judgment-free</text></g><g transform="translate(847,471) scale(0.45)"><ellipse id="30eaf715-02de-4e99-90a1-f529d5b67d11" class="node" null="cy" rx="100" ry="70" transform="translate(0,0)" fill="#B9F1B9" stroke="#22AA22" stroke-width="9" opacity="1"></ellipse><text id="30eaf715-02de-4e99-90a1-f529d5b67d11" class="noselect node" x="0" fill="black" alignment-baseline="center" text-anchor="middle" font-size="20px" y="0">Fear-relieving</text></g><g transform="translate(958,442) scale(0.45)"><ellipse id="d41b604e-c1c4-4f24-ad6a-ec7deb67f88f" class="node" null="cy" rx="100" ry="70" transform="translate(0,0)" fill="#B9F1B9" stroke="#22AA22" stroke-width="6" opacity="1"></ellipse><text id="d41b604e-c1c4-4f24-ad6a-ec7deb67f88f" class="noselect node" x="0" fill="black" alignment-baseline="center" text-anchor="middle" font-size="20px" y="0">Possible to try out</text></g><g transform="translate(803,554) scale(0.45)"><ellipse id="bed39632-6718-40ba-b335-16715aa99261" class="node" null="cy" rx="100" ry="70" transform="translate(0,0)" fill="#B9F1B9" stroke="#22AA22" stroke-width="6" opacity="1"></ellipse><text id="bed39632-6718-40ba-b335-16715aa99261" class="noselect node" x="0" fill="black" alignment-baseline="center" text-anchor="middle" font-size="20px" y="0">supportive</text></g><g transform="translate(185,203) scale(0.45)"><polygon id="06dfd6bd-d570-47d0-83cb-982ead53e86c" class="node" points="-100,0 -60,-60 60,-60 100,0 60,60 -60,60" transform="translate(0,0)" fill="#EB8989" stroke="#E04848" stroke-width="6"></polygon><text id="06dfd6bd-d570-47d0-83cb-982ead53e86c" class="noselect node" x="0" fill="black" alignment-baseline="center" text-anchor="middle" font-size="20px" y="-20">Not  <tspan dy="1.1em" x="0">empathetic</tspan>  <tspan dy="1.1em" x="0">(enough)</tspan></text></g><g transform="translate(607,198) scale(0.45)"><g><polygon id="9b15ebbc-81f2-4561-bb7c-8a3db5c17040" class="node" points="-100,0 -60,-60 60,-60 100,0 60,60 -60,60" transform="translate(0,0)" fill="rgb(247, 151, 226)" stroke="rgb(142, 19, 146)" stroke-width="5"></polygon><ellipse id="9b15ebbc-81f2-4561-bb7c-8a3db5c17040" class="node" null="cy" rx="90" ry="55" transform="translate(0,0)" fill="rgb(247, 151, 226)" stroke="rgb(142, 19, 146)" stroke-width="3"></ellipse></g><text id="9b15ebbc-81f2-4561-bb7c-8a3db5c17040" class="noselect node" x="0" fill="black" alignment-baseline="center" text-anchor="middle" font-size="20px" y="0">No human contact</text></g><g transform="translate(100,294) scale(0.45)"><polygon id="841c45b5-af75-4b75-b173-ed2b4c47e4df" class="node" points="-100,0 -60,-60 60,-60 100,0 60,60 -60,60" transform="translate(0,0)" fill="#EB8989" stroke="#E04848" stroke-width="6"></polygon><text id="841c45b5-af75-4b75-b173-ed2b4c47e4df" class="noselect node" x="0" fill="black" alignment-baseline="center" text-anchor="middle" font-size="20px" y="-20"> <tspan dy="1.1em" x="0">Unforeseen</tspan>  <tspan dy="1.1em" x="0">reactions</tspan></text></g><g transform="translate(498,434) scale(0.45)"><g><polygon id="9c6c5bab-fc5a-4203-92ad-4314287f115b" class="node" points="-100,0 -60,-60 60,-60 100,0 60,60 -60,60" transform="translate(0,0)" fill="rgb(247, 151, 226)" stroke="rgb(142, 19, 146)" stroke-width="5"></polygon><ellipse id="9c6c5bab-fc5a-4203-92ad-4314287f115b" class="node" null="cy" rx="90" ry="55" transform="translate(0,0)" fill="rgb(247, 151, 226)" stroke="rgb(142, 19, 146)" stroke-width="3"></ellipse></g><text id="9c6c5bab-fc5a-4203-92ad-4314287f115b" class="noselect node" x="0" fill="black" alignment-baseline="center" text-anchor="middle" font-size="20px" y="0">jobs</text></g><g transform="translate(492,576) scale(0.45)"><g><polygon id="912123a6-7ce8-48b8-a43b-a7c5204654c8" class="node" points="-100,0 -60,-60 60,-60 100,0 60,60 -60,60" transform="translate(0,0)" fill="rgb(247, 151, 226)" stroke="rgb(142, 19, 146)" stroke-width="5"></polygon><ellipse id="912123a6-7ce8-48b8-a43b-a7c5204654c8" class="node" null="cy" rx="90" ry="55" transform="translate(0,0)" fill="rgb(247, 151, 226)" stroke="rgb(142, 19, 146)" stroke-width="3"></ellipse></g><text id="912123a6-7ce8-48b8-a43b-a7c5204654c8" class="noselect node" x="0" fill="black" alignment-baseline="center" text-anchor="middle" font-size="20px" y="0">replaces human care</text></g><g transform="translate(286,478) scale(0.45)"><polygon id="398aa9bf-c255-462f-a543-ed565eac0daa" class="node" points="-100,0 -60,-60 60,-60 100,0 60,60 -60,60" transform="translate(0,0)" fill="#EB8989" stroke="#E04848" stroke-width="9"></polygon><text id="398aa9bf-c255-462f-a543-ed565eac0daa" class="noselect node" x="0" fill="black" alignment-baseline="center" text-anchor="middle" font-size="20px" y="-20">Loss of  <tspan dy="1.1em" x="0">therapist</tspan>  <tspan dy="1.1em" x="0">jobs</tspan></text></g><g transform="translate(640,516) scale(0.45)"><ellipse id="b17e2c63-2f06-4a03-9053-736de179de33" class="node" null="cy" rx="100" ry="70" transform="translate(0,0)" fill="#B9F1B9" stroke="#22AA22" stroke-width="6" opacity="1"></ellipse><text id="b17e2c63-2f06-4a03-9053-736de179de33" class="noselect node" x="0" fill="black" alignment-baseline="center" text-anchor="middle" font-size="20px" y="-20">creates  <tspan dy="1.1em" x="0">jobs</tspan>  <tspan dy="1.1em" x="0">development</tspan></text></g><g transform="translate(340,163) scale(0.45)"><polygon id="89f29a05-a3d1-4353-9825-b7e2032fb788" class="node" points="-100,0 -60,-60 60,-60 100,0 60,60 -60,60" transform="translate(0,0)" fill="#EB8989" stroke="#E04848" stroke-width="6"></polygon><text id="89f29a05-a3d1-4353-9825-b7e2032fb788" class="noselect node" x="0" fill="black" alignment-baseline="center" text-anchor="middle" font-size="20px" y="-20"> <tspan dy="1.1em" x="0">unrealistic</tspan>  <tspan dy="1.1em" x="0">learned</tspan>  <tspan dy="1.1em" x="0">handling</tspan></text></g><g transform="translate(477,100) scale(0.45)"><g><polygon id="adccae27-4029-42e0-8c7a-79896cd77ba6" class="node" points="-100,0 -60,-60 60,-60 100,0 60,60 -60,60" transform="translate(0,0)" fill="rgb(247, 151, 226)" stroke="rgb(142, 19, 146)" stroke-width="5"></polygon><ellipse id="adccae27-4029-42e0-8c7a-79896cd77ba6" class="node" null="cy" rx="90" ry="55" transform="translate(0,0)" fill="rgb(247, 151, 226)" stroke="rgb(142, 19, 146)" stroke-width="3"></ellipse></g><text id="adccae27-4029-42e0-8c7a-79896cd77ba6" class="noselect node" x="0" fill="black" alignment-baseline="center" text-anchor="middle" font-size="20px" y="-20"> <tspan dy="1.1em" x="0">integration</tspan> into  <tspan dy="1.1em" x="0">society</tspan></text></g><g transform="translate(131,416) scale(0.45)"><polygon id="039be2da-697b-44f5-9764-7a275d5819bf" class="node" points="-100,0 -60,-60 60,-60 100,0 60,60 -60,60" transform="translate(0,0)" fill="#EB8989" stroke="#E04848" stroke-width="9"></polygon><text id="039be2da-697b-44f5-9764-7a275d5819bf" class="noselect node" x="0" fill="black" alignment-baseline="center" text-anchor="middle" font-size="20px" y="0">unresearched</text></g><g transform="translate(1050,210) scale(0.45)"><ellipse id="2fd7450a-1464-4490-91e3-e7260b12c388" class="node" null="cy" rx="100" ry="70" transform="translate(0,0)" fill="#B9F1B9" stroke="#22AA22" stroke-width="9" opacity="1"></ellipse><text id="2fd7450a-1464-4490-91e3-e7260b12c388" class="noselect node" x="0" fill="black" alignment-baseline="center" text-anchor="middle" font-size="20px" y="0">infinite patience</text></g></svg>